<!-- Generator: Adobe Illustrator 22.1.0, SVG Export Plug-In  -->
<svg version="1.1"
xmlns="http://www.w3.org/2000/svg" xmlns:xlink="http://www.w3.org/1999/xlink" xmlns:a="http://ns.adobe.com/AdobeSVGViewerExtensions/3.0/"
x="0px" y="0px" width="42.9px" height="42.9px" viewBox="0 0 42.9 42.9" style="enable-background:new 0 0 42.9 42.9;"
xml:space="preserve">
<style type="text/css">
.st0{fill:#A42629;}
</style>
<defs>
</defs>
<g>
<g>
<polygon class="st0" points="23.3,31.2 17.8,21.8 23.3,12 24.2,12.5 18.9,21.8 24.2,30.7 		"/>
</g>
<g>
<path class="st0" d="M21.5,42.9C9.6,42.9,0,33.3,0,21.5C0,9.6,9.6,0,21.5,0s21.5,9.6,21.5,21.5C42.9,33.3,33.3,42.9,21.5,42.9z
M21.5,1C10.2,1,1,10.2,1,21.5s9.2,20.5,20.5,20.5s20.5-9.2,20.5-20.5S32.7,1,21.5,1z"/>
</g>
</g>
</svg>
