<!-- Generator: Adobe Illustrator 22.1.0, SVG Export Plug-In  -->
<svg version="1.1"
xmlns="http://www.w3.org/2000/svg" xmlns:xlink="http://www.w3.org/1999/xlink" xmlns:a="http://ns.adobe.com/AdobeSVGViewerExtensions/3.0/"
x="0px" y="0px" width="1657.9px" height="1271.7px" viewBox="0 0 1657.9 1271.7"
style="enable-background:new 0 0 1657.9 1271.7;" xml:space="preserve">
<style type="text/css">
.st0{clip-path:url(#SVGID_2_);}
.st1{opacity:9.000000e-02;}
.st2{fill:#FFFFFF;}
.st3{opacity:0.28;}
.st4{opacity:0.28;fill:#1A1A1A;}
.st5{clip-path:url(#SVGID_4_);}
</style>
<defs>
</defs>
<g>
<defs>
<rect id="SVGID_1_" x="176.6" y="4.2" width="1481.3" height="1267.5"/>
</defs>
<clipPath id="SVGID_2_">
<use xlink:href="#SVGID_1_"  style="overflow:visible;"/>
</clipPath>
<g class="st0">
<g class="st1">
<g>
<path class="st2" d="M1378.5,961.8c0,24.2,0,48.4,0,72.6c-140.6,0-281.2,0-421.8,0c-1-2.3-1.4-5.2-3.1-6.7
c-4.4-3.7-9.4-6.7-14.1-10c-19.4-13.6-38.9-27.2-58.3-40.8c-5.5-3.8-11.1-7.5-16.6-11.2c0-0.4,0-0.8,0.1-1.3
c6.3-0.9,10.3-9.2,18.4-4.7c0.8,0.5,2.6-0.5,3.8-0.9c1.1-0.4,2.2-1.2,3.3-1.2c4.5,0.1,6-2.6,7.2-6.3c0.6-1.9,2.1-4,3.7-4.9
c6.8-3.8,13.8-7.2,20.9-10.6c3.6-1.7,4.4-3.6,1.9-7c-3.9-5.4-7.5-11-11.3-16.8c6,0,11.4,0,16.9,0c-2.5,6.5,3.1,10.3,6.4,15
c2.5,3.6,6.1,5.4,10.4,3.5c4-1.8,6.1-5.3,6.1-9.9c0.1-7.8-0.3-15.3-2.4-23c-2.8-10.1-3.7-20.7-5.4-31.1c-0.6-3.5-0.9-7-1.6-11.8
c25.1,11.4,48.7,22.1,72.7,32.9c-7.9,6.9-7.9,10.3-1,17c1.2,1.2,2.4,2.3,3.6,3.5c2.6,2.8,5.7,4.4,9.4,2.4c3.7-1.9,5.7-5,5.5-9.3
c-0.1-2.7-0.5-5.5-0.2-8.2c0.7-6.1-2.1-9.8-7.2-12.6c-14.5-7.6-28.9-15.4-43.4-23c-2.5-1.3-3.4-2.9-3.4-5.7
c0-5.4-0.4-10.7-0.7-15.1c8.8-3.5,18.4-6.5,27.3-11c9.7-4.9,13.1-15.2,7.2-24.8c-3.5-5.7-6.6-11.7-9.8-17.6
c-3.1-5.7-4.3-11.7-3.8-18.2c0.5-6,3.3-7.8,9-5.4c0.8,0.4,1.6,0.8,2.4,1.3c56.3,30.8,112.5,61.5,168.8,92.3
c54.1,29.6,108.2,59.3,162.3,88.8C1353.9,948.8,1366.2,955.3,1378.5,961.8z"/>
<path class="st2" d="M516.5,1034.4c-0.4-11.3-0.7-22.6-1.1-33.9c-0.2-7.2-0.9-14.4-0.5-21.6c0.2-4.1,2-8.1,3.4-12
c0.3-0.7,2.4-1.1,3.6-0.9c24,3.7,48,7.5,72,11.3c4.8,0.8,9.6,1.5,14.8,2.4c-0.4,3.4-1,6.4-1.2,9.4c-0.4,6.7,3.9,9.7,9.5,6.9
c5.5,5.3,8.9,4.7,11.4-2.8c1.5-4.4,1.6-9.2,2.1-13.9c0.1-0.8-0.1-2.2-0.6-2.6c-6-3.9-8-11.5-17.2-13.1
c-17.5-3.1-34.5-9.1-52.8-14.1c2.1-0.8,3.3-1.4,4.7-1.8c12.2-4.2,24.3-8.4,36.5-12.4c3.3-1.1,5.4-2.9,6.2-6.5
c3.4-14.6,6.9-29.2,10.6-43.7c0.9-3.5-0.3-5.2-3.3-6.2c-5.3-1.9-10.6-3.8-16.6-5.9c1.6-2.3,2.8-4.1,4.1-5.9
c3.1-4.3,6.2-8.8,9.5-12.9c1.8-2.3,4.3-4,6.6-5.9c4-3.4,4.7-8.1,5-12.8c0.3-3.9-0.4-7.9,0.1-11.8c0.8-6.3,5.5-9.7,11.9-8.2
c15.9,3.9,31.7,8.3,47.4,12.6c1.1,0.3,2.4,2.4,2.4,3.6c0.1,8,0.1,15.9-0.3,23.9c-0.2,4.4,1.1,6.8,5.5,8
c10.5,2.9,20.8,6.3,31.2,9.2c4.2,1.2,7.4,3.1,9.9,6.7c3.4,4.9,7.3,9.1,14.4,6.4c1.3-0.5,3.6,1.4,6.5,2.7
c-5.7,3.3-5.4,7.3-4,11.2c3.4,9.6,6.9,19.3,10.9,28.6c1.5,3.4,1.3,4.7-2.1,6.1c-22.3,9-44.5,18.1-66.7,27.1
c-6.9,2.8-6.9,2.8-7,10.4c-0.3,18.8-0.6,37.6-0.9,56.5c0,2,0.2,4,0.3,5.9C627.4,1034.4,571.9,1034.4,516.5,1034.4z"/>
<path class="st2" d="M1148.7,0.6c-30.9,39.2-61.9,78.3-92.8,117.5c-35.1,44.5-70.1,89-105.1,133.5c-20.7,26.2-41.4,52.4-62,78.7
c-2,2.6-4.1,3.6-7.4,3.6c-131.7,0-263.4,0-395.2-0.1c-2.1,0-4.1-1-6.2-1.6c0.1-0.7,0.2-1.3,0.3-2c1.9-0.1,3.8-0.3,5.7-0.3
c126.5,0,253-0.1,379.5,0.1c5.2,0,8.3-1.6,11.3-5.8c75.7-106.2,151.5-212.4,227.2-318.6c1.1-1.6,2.1-3.3,3.2-5
C1121.2,0.6,1134.9,0.6,1148.7,0.6z"/>
<path class="st2" d="M684.6,1034.4c0.4-20.7,1-41.3,1.1-62c0-4.5,1.3-6.7,5.6-8.4c22.5-8.9,44.8-18.1,67.2-27.3
c2.7-1.1,4.6-1.1,7,0.9c3.4,2.8,7.1,5.3,11.1,7.3c4,2.1,8.2,3.5,13.1,1.9c3.2-1,7-0.2,10.5-0.2c0.1,0.4,0.1,0.8,0.2,1.3
c-1.5,0.5-2.9,1-4.4,1.5c-24.7,7.7-49.3,15.4-74,23c-1.7,0.5-3.5,0.9-5.3,1.2c-6.6,1.1-16.3,12.8-15.7,19.4
c0.4,3.9,1.3,7.9,2.6,11.6c2.6,7,6.5,7.4,11.1,1.5c6.4,2.5,9.7,0.2,9.8-6.8c0-1.4,0-2.8-0.1-4.1c-0.7-6-0.8-6.1,5.4-7.4
c26.4-5.7,52.9-11.4,79.3-17.1c2.9-0.6,4.5-1,6,3.4c5.3,16.2,0.4,32.4,1,48.5c0.1,4,0,7.9,0,11.9
C772.3,1034.4,728.4,1034.4,684.6,1034.4z"/>
<path class="st2" d="M374,1034.4c4.2-3.4,8.3-6.9,12.7-10.2c9.4-7.1,18.8-14.2,28.5-20.9c25.1-17.5,50.4-34.7,75.6-52.1
c1.7-1.1,3.2-2.5,4.8-3.7c-0.3-0.5-0.6-0.9-0.9-1.4c-3.1,2-6,4.2-9.3,5.8c-1.8,0.9-4.4,1.4-6.3,0.9c-11.2-3.1-22.3-6.7-33.4-10
c-1.4-0.4-3-0.6-4.5-0.8c-0.1,0.4-0.3,0.8-0.4,1.2c1.1,0.9,2.1,1.7,3.8,3.1c-1.7,2.4-3.4,4.8-5,7.2c-0.6-0.2-1.2-0.4-1.8-0.6
c0-5.3-0.5-10.7,0.2-16c0.4-3.6,4.1-4.5,7.2-4.2c14.6,1.5,29.1,3.2,43.6,5.3c3,0.4,5.6,2.9,8.3,4.5c0,0,0.3-1,0.2-2.1
c-0.1-2.9,1.2-4,4.1-4.1c3.1-0.1,6.3-0.8,9.4-1.5c2.8-0.6,4.6-0.3,4.5,3c-0.1,4.3,2.4,5.7,6.1,6.6c29.8,7.2,59.7,14.6,89.5,21.9
c0.4,0.1,0.9,0.3,1.3,0.3c9.8,2.1,11.6,4.8,9,14.8c-0.8,3.1-2.3,6-3.8,8.8c-0.4,0.6-3.4,0.7-3.4,0.5c-1-2.8-2.6-5.9-2.1-8.6
c0.6-4-0.9-4.9-4.1-5.4c-12.8-2-25.7-4-38.5-6c-16.6-2.6-33.2-5.3-49.8-7.7c-4.2-0.6-6-2.2-5.5-6.4c0.1-1.2-0.5-2.5-1.9-3.7
c-0.3,1.1-0.9,2.1-0.9,3.2c1,25.8,2.1,51.7,3.2,77.5c0,0.3,0.2,0.6,0.3,0.9c-3.4,0-6.7,0-10.1,0c-0.2-6.4-0.3-12.8-0.7-19.2
c-0.3-4.7,0.5-10-1.5-14c-3.5-7.3-1.2-14.3-1-21.5c0.2-6.2,0-12.4,0-18.6c-0.6-0.3-1.2-0.5-1.7-0.8c0,6.9-5.5,8.5-9.6,11.1
c-27.7,17.7-55.4,35.3-83.1,53c-5,3.2-9.7,6.7-14.6,10.1C386.3,1034.4,380.2,1034.4,374,1034.4z"/>
<path class="st2" d="M817.9,1034.4c0.7-13.1,1.5-26.3,2.1-39.4c0.5-11,0.7-22,1-33c0-1.7-0.3-3.4-0.4-5.1c-0.4,0-0.8,0-1.2-0.1
c-0.3,1-0.9,2.1-0.9,3.1c0.1,4.6-1.9,6.5-6.6,7.5c-29.2,6-58.2,12.5-87.4,18.6c-4.2,0.9-5,2.9-4.8,6.7c0.1,2.6-0.8,5.3-1.7,7.8
c-0.1,0.4-3.4,0.4-3.6-0.2c-1.8-3.8-3.8-7.8-4.5-11.9c-1.4-8.1,0.7-10.1,8.5-12.5c12.3-3.7,24.3-8.3,36.6-12
c18.4-5.5,37-10.6,55.6-15.7c3.6-1,6-2.5,6.5-6.6c0.1-1,2.1-2.6,3.2-2.6c4,0,7.9,0.3,11.8,1.1c1.1,0.2,2.5,2.2,2.6,3.4
c0.4,4.8,2.8,7.8,6.8,10.6c33,22.1,65.9,44.5,98.8,66.9c1.8,1.2,3.5,2.5,5.4,3.4c4.6,1.9,7.5,5.1,8.8,9.9c-5.2,0-10.4,0-15.6,0
c-1.3-1-2.5-2.2-4-3c-26.2-16.1-52.7-31.8-78.6-48.3c-8.9-5.7-20.2-8.4-25.8-20.3c-0.2,2.6-0.5,3.9-0.4,5.2
c0.3,6,0.8,12,0.9,18.1c0.1,6.9-0.3,13.6-2,20.6c-2.2,8.8-1,18.5-1.3,27.8C824.6,1034.4,821.3,1034.4,817.9,1034.4z"/>
<path class="st2" d="M501.8,1034.4c-35.2,0-70.5,0-105.7,0c0.9-0.8,1.8-1.6,2.9-2.3c26.2-16.7,52.3-33.4,78.5-50
c5.4-3.4,10.8-6.8,16.2-10.2c1.5,3.3,4,6.2,3.9,9c-0.3,9.3,1.9,18.3,3.1,27.4C501.6,1017,501.4,1025.7,501.8,1034.4z"/>
<path class="st2" d="M930,1034.4c-33.4,0-66.8,0-100.2,0c0.4-6.7,0.8-13.4,1.3-20c0.2-2.9,0.3-5.8,0.8-8.6
c0.7-4.4,2.4-8.9,2.3-13.2c-0.2-6.3,1.5-11.8,4.5-17.5c31.2,19.1,62.3,38.1,94,57.5C931.4,1033.4,930.7,1033.9,930,1034.4z"/>
<path class="st2" d="M1160.7,0.6c-36.8,45.5-73.5,90.9-110.3,136.4c-53.3,65.9-106.6,131.9-159.9,197.8
c-0.6,0.7-1.2,1.3-2.7,1.4c0.8-1.5,1.4-3.1,2.4-4.3c37.6-47.7,75.2-95.4,112.8-143.1c48.2-61.2,96.4-122.4,144.6-183.6
c1.1-1.4,1.9-3,2.9-4.6C1153.9,0.6,1157.3,0.6,1160.7,0.6z"/>
<path class="st2" d="M1085.3,299.2c11.4-8.5,22.8-17,34.3-25.3c86.3-62.6,258.9-183.2,258.9-183.2c-1.6,0.8-3.3,1.4-4.8,2.5
c-62.4,44.6-124.7,89.3-187,134c-32.5,23.3-64.9,46.6-97.4,69.8C1088,297.8,1086.6,298.5,1085.3,299.2L1085.3,299.2z"/>
<path class="st2" d="M277.5,303.9c-14.3-9.5-28.6-18.9-42.7-28.5c-76.9-52-153.8-104-230.8-155.9c-1.3-0.8-2.6-1.5-4-2.2
c0-1.2,0-2.5,0-3.7c27.6,18.8,55.2,37.5,82.7,56.4c63.7,43.5,127.3,87.1,191,130.7c1.4,0.9,2.6,2.1,3.9,3.1L277.5,303.9z"/>
<path d="M930,1034.4c0.7-0.5,1.4-1.1,2.6-2c-31.7-19.4-62.8-38.4-94-57.5c-3,5.8-4.7,11.2-4.5,17.5c0.1,4.4-1.6,8.8-2.3,13.2
c-0.4,2.9-0.6,5.8-0.8,8.6c-0.4,6.7-0.8,13.4-1.3,20c-0.6,0-1.2,0-1.8,0c0.3-9.3-0.9-19,1.3-27.8c1.8-7,2.1-13.7,2-20.6
c-0.1-6-0.6-12-0.9-18.1c-0.1-1.3,0.2-2.6,0.4-5.2c5.5,12,16.9,14.7,25.8,20.3c26,16.5,52.4,32.2,78.6,48.3c1.4,0.9,2.6,2,4,3
C936.1,1034.4,933.1,1034.4,930,1034.4z M832.9,979.7c0.4,0,0.8,0.1,1.2,0.1c0-2.4,0-4.8,0-7.3c-0.4,0-0.8,0-1.2,0
C832.9,974.9,832.9,977.3,832.9,979.7z"/>
<path d="M501.8,1034.4c-0.4-8.7-0.2-17.5-1.2-26.1c-1.1-9.1-3.4-18-3.1-27.4c0.1-2.8-2.4-5.7-3.9-9c-5.4,3.4-10.8,6.8-16.2,10.2
c-26.2,16.7-52.3,33.4-78.5,50c-1,0.7-1.9,1.5-2.9,2.3c-1.2,0-2.5,0-3.7,0c4.8-3.4,9.6-6.9,14.6-10.1
c27.7-17.7,55.4-35.3,83.1-53c4.1-2.7,9.6-4.2,9.6-11.1c0.6,0.3,1.2,0.5,1.7,0.8c0,6.2,0.2,12.4,0,18.6
c-0.3,7.2-2.5,14.1,1,21.5c1.9,4,1.2,9.3,1.5,14c0.3,6.4,0.5,12.8,0.7,19.2C503.6,1034.4,502.7,1034.4,501.8,1034.4z M497.9,977
c0.4,0,0.8,0,1.2-0.1c0-2.6,0-5.1,0-7.7c-0.5,0-1,0-1.6,0.1C497.6,971.9,497.7,974.4,497.9,977z"/>
<path d="M681.6,226.7c0.5,2.1,1.4,4.1,1.4,6.2c0.1,15.3,0.2,30.6,0,45.9c-0.1,4.1,1,5.9,5.4,5.5c3.2-0.3,6.4,0,9.6-0.1
c3.5-0.1,5.7,1.6,5.7,5.1c0,10.5-0.2,21.1-0.6,31.6c-0.1,1.2-2.1,3.1-3.5,3.3c-13,2.6-26,2.7-39,0c-1.4-0.3-3.3-2.5-3.4-4
c-0.7-10.4-1-20.7-1.3-31.1c-0.1-3.5,1.9-4.9,5.2-4.9c4.1,0,8.3-0.2,12.4,0c3.6,0.2,4.8-1.2,4.8-4.8c-0.1-15.4-0.1-30.9,0-46.3
c0-2.1,0.7-4.2,1.1-6.3C680.1,226.8,680.9,226.8,681.6,226.7z M679.6,286.6C679.6,286.6,679.6,286.6,679.6,286.6
c-5.7,0-11.3,0.1-17,0c-3-0.1-4.6,0.9-4.3,4.2c0.7,9.4,1.2,18.9,1.9,28.3c0.1,0.9,1,2.4,1.8,2.6c3.5,0.9,7.2,1.9,10.7,1.8
c8-0.2,16.1-0.9,24-1.8c1.2-0.1,3-2,3.1-3.2c0.6-9.3,0.7-18.6,1.1-27.9c0.1-2.9-1-4.1-4-4.1
C691.2,286.7,685.4,286.6,679.6,286.6z"/>
<path d="M944.1,94c3.6,0,6.2-0.1,8.8,0c2.8,0.2,3.9,1.7,2.5,4.4c-2.4,4.6-4.8,9.2-7.5,13.6c-0.7,1.1-2.4,2.1-3.7,2.2
c-4.7,0.3-9.5,0.4-14.2,0.1c-3.1-0.2-4.2-2.1-2.6-5.1c1.1-2,2.2-4,3-6.2C932.9,96.1,936.9,91.7,944.1,94z M945,100
c-0.7-0.2-1.3-0.5-2-0.7c-2.4,1.6-4.9,2.9-6.9,4.8c-0.6,0.6,0.4,2.8,0.6,4.3c2.5-0.9,5.3-1.2,7.2-2.8
C945,104.7,944.7,101.9,945,100z"/>
<path d="M352.7,94.9c6.3-1.9,10.6,1.5,13.8,7.7c1.4,2.7,3.4,5.1,5,7.6c1.5,2.4,1.1,4.4-1.9,4.5c-5,0.3-10.1,0.2-15.1,0.1
c-0.7,0-1.6-0.4-2-0.9c-3.8-5.1-7.6-10.3-11.2-15.6c-0.3-0.4,1.6-3,2.7-3.3C346.4,94.6,349.1,94.9,352.7,94.9z M363.1,106.5
c-3.4-2.2-6.8-4.3-10.2-6.5c-0.6,0.5-1.1,1-1.7,1.4c0.7,1.7,1,3.8,2.2,5C355.9,108.8,358.9,110.2,363.1,106.5z"/>
<path d="M651.9,114.8c-10,0-10,0-11.3-9.8c-1.4-10.4-0.9-11.1,9.4-11c9.4,0.1,12.7-2.5,12.1,11.6c0,0.9,0.1,1.8,0.3,2.7
c0.6,5.3-0.3,6.4-5.4,6.4C655.2,114.9,653.5,114.8,651.9,114.8z M651.6,110.6c2-2.8,4.5-5,4.1-5.8c-0.8-1.8-3.1-3.9-5-4.1
c-1.2-0.2-3.7,2.7-3.8,4.4C646.7,106.4,649.2,108,651.6,110.6z"/>
<path d="M432.9,226c9.3-4.8,16.6-4.3,21.8,8.1C447.6,238.7,438.3,239.1,432.9,226z M439.5,227.5c-0.2,0.5-0.4,1-0.6,1.5
c2.7,4.9,5.5,5.7,9.6,1.6C445.2,229.5,442.4,228.5,439.5,227.5z"/>
<path d="M886.8,224.2c-1.9,3.8-3.1,5.9-4.1,8.1c-1.3,2.8-3.4,4.2-6.6,3.9c-0.8-0.1-1.6,0.1-2.3,0c-2.9-0.7-7.5,2.2-8.2-3.1
c-0.6-4.5,4.8-9.5,9.5-9.5C878.7,223.6,882.2,223.9,886.8,224.2z M880.5,226.9c-4,1.1-7.2,2.1-11.3,3.2
C874.4,234.4,878.5,233.3,880.5,226.9z"/>
<path d="M661.2,223.1c7.8,0.5,8.9,1.6,8.8,9c0,0.7-0.1,2.1-0.3,2.1c-3.6,0.8-7.1,1.7-10.7,1.9c-1.7,0.1-4.7-1.2-5-2.4
c-0.7-2.8-0.9-6.3,0.3-8.7C655,223.5,658.8,223.6,661.2,223.1z M661.4,234.9c1.8-1.9,3.1-3.3,4.4-4.6c-1.5-0.8-3-2.4-4.4-2.3
c-1.7,0.1-3.3,1.5-4.9,2.4C658,231.6,659.4,233,661.4,234.9z"/>
<path d="M494.1,299c3.9-1,6.4,1.6,8,5.1c0.4,0.9-0.2,3.3-1.1,3.8c-3.8,2-10.2,0.2-12.5-3.4c-0.7-1.1-1.6-3-1.1-3.9
c0.5-0.9,2.4-1.2,3.8-1.6C491.9,298.8,492.7,299,494.1,299z"/>
<path d="M829.1,306.2c1.8-6.7,7.4-9.7,13.7-7c0.8,0.3,1.9,1.8,1.7,2.2c-1.1,2.1-2.1,4.4-3.8,5.9
C838.9,308.9,831.7,307.8,829.1,306.2z"/>
<path class="st2" d="M621,641.7c0.1-4.7,2.8-4.3,5.2-4.3c13.9,0,27.9,0,41.8,0c20.8,0,41.7,0.1,62.5,0c3.5,0,5.3,0.8,6.7,4.5
c2.1,5.4,5.7,9.8,12.7,8.9c1-0.1,2,0,3.1,0c0,0.4,0,0.8,0,1.2c-3.7,0-7.3-0.1-11,0c-4,0.1-6.3,3.1-6,8c0.2,3.3,2.1,4.7,5.5,4.7
c4.6-0.1,9.2,0.4,13.8,0.4c2.7,0,3.6,1.4,5,3.6c4.1,6.4,8.5,12.6,13.6,18.2c1.4,1.6,5.3,1.4,8.1,1.4c15.9,0.1,31.9,0.2,47.8,0
c2.5,0,5-1.5,7.2-2.2c0-1.3,0.1-1.8,0-1.9c-7.3-5.2-14.6-10.4-22-15.3c-1.2-0.8-3.3-0.5-5-0.5c-11.2,0-22.4,0-33.5-0.1
c-1.6,0-3.2-0.7-4.8-1.1c0.1-0.6,0.2-1.3,0.3-1.9c3.7,0,7.5,0,11.2,0c4.4-0.1,5-1,3-4.7c-0.1-0.1-0.2-0.2-0.2-0.4
c-0.7-9.2-7.8-7.9-13.8-8.4c-1-0.1-2.1,0-4.4,0c5.8-3,12.9,1.8,16.8-4.9c23.6,15.4,48,31.2,72.4,47
c11.5,7.5,23.1,14.9,34.6,22.6c1.8,1.2,2.9,3.5,4.3,5.3c-2.1,0.9-4.2,2.4-6.4,2.5c-13.7,0.6-27.5,1.1-41.3,1.1
c-71.5,0.1-143,0-214.5,0c-35.8,0-71.7,0-107.5,0c-19.1,0-38.3,0.1-57.4,0c-5.7,0-11.3-0.5-16.9-1c-1.1-0.1-2.9-1.1-3-1.9
c-0.1-1.3,0.5-3.2,1.5-3.9c2.7-2,5.7-3.5,8.7-5.2c28.8-15.9,57.6-31.9,86.4-47.8c2.6-1.4,4.8-2.9,7.9-0.5c1.3,1.1,3.8,1,5.7,1
c11.6,0.1,23.3,0.3,34.9,0c3.6-0.1,7.5-1.3,10.6-3.1c4.8-2.7,10.7-4.3,13-10.3c0.3-0.7,2.1-1.1,3.2-1.2c2.9-0.2,5.8,0,8.7-0.1
c2.4-0.1,5.3,0.6,5.8-2.9c0.4-3-2.9-6.7-6.1-6.9C626.5,641.6,623.9,641.7,621,641.7z M597,699.6c0,0.6,0.1,1.3,0.1,1.9
c2.6,0.4,5.1,1.1,7.7,1.3c16.3,1,32.6,1.8,48.9,2.9c14.3,1,28.6,2.2,42.9,3.5c4.6,0.4,8.6-0.1,12.2-3.6
c3.3-3.2,7.2-5.7,10.6-8.7c1.1-1,1.6-2.6,2.4-3.9c-1.5-0.6-2.9-1.7-4.4-1.7c-12.3-0.2-9.6,0.2-11.4-10.9c-0.6-4-2.1-5.8-6.5-5.8
c-13.9,0.2-27.8,0.4-41.7-0.1c-6.4-0.2-10.2,1.6-11.7,7.9c-0.8,3.4-3,4.6-6.5,4.2c-1.7-0.2-3.4,0.2-5-0.2
c-8.3-2.1-15.5,0.3-22.5,4.8C607.3,694.4,602.1,696.9,597,699.6z M560.4,695.8c0-0.4,0-0.7,0-1.1c8.1,0,16.2,0.3,24.3-0.1
c12.6-0.5,11.7,2.4,14.5-13.1c0-0.1,0.1-0.3,0.1-0.4c-0.9-5.5-0.4-8.3-7.9-7.7c-3.2,0.3-6.4,0.4-9.6,0.5
c-12.8,0.4-25.7,0.6-38.5,1.2c-2.1,0.1-4.6,1-6,2.4c-3.8,4.1-7.1,8.6-10.5,13.1c-0.7,1-1.7,2.9-1.3,3.3c0.8,1,2.4,1.8,3.7,1.8
C539.6,695.9,550,695.8,560.4,695.8z M680.9,651.2C680.9,651.2,680.9,651.2,680.9,651.2c4.9,0,9.8,0.1,14.7,0
c2.5,0,5.1-0.1,5.2-3.6c0-3.4-0.8-6.1-5.1-5.9c-2.1,0.1-4.3,0-6.4,0c-7.2,0-14.4,0-21.6,0c-3.4,0-7.4,3.9-6.3,6.7
c0.6,1.5,3.7,2.5,5.7,2.7C671.7,651.5,676.4,651.2,680.9,651.2z"/>
<path class="st2" d="M927.5,734.9c-1.3,7.3-2.3,13.5-3.7,19.7c-4.7,21.5-9.8,42.9-14.3,64.5c-2.7,12.5-0.7,25,2.3,37.2
c1.9,7.4,3.8,14.8,6,22.1c0.8,2.6,0.1,3.8-2.3,4.9c-25.4,12.6-52.4,19.4-80.3,23c-10,1.3-20,2.3-30,3.6
c-2.7,0.3-4.2-0.2-4.7-3.3c-3-16.9-7.1-33.7-5.1-50.9c1.2-10.7,4.1-21.3,6.3-31.9c5.2-25,10.4-50,15.4-75
c0.8-3.9,2.1-5.2,6.3-5.1c32.8,0.5,65.4-0.9,97.6-7.9C922.8,735.5,924.4,735.3,927.5,734.9z"/>
<path class="st2" d="M490.4,629.7c-0.2-0.6-0.4-0.8-0.4-1.1c-1.2-14.1-1.2-14.1,12.7-14.2c9.8,0,19.6-0.1,29.4-0.1
c0.2,0,0.4-0.2,1.3-0.8c-7.7,0-14.7,0-21.7,0c-6.8,0-13.7,0-20.5,0c0-0.5,0-1-0.1-1.4c4.3,0,8.7,0,13,0c0-0.4,0-0.8,0-1.2
c-3,0-6-0.2-8.9,0c-4.2,0.3-5.5-1.4-5.5-5.6c0.1-30.3,0.1-60.6,0.1-90.9c0-19.6,0-39.2,0-58.8c0-5.8,0.1-5.9,5.9-5.8
c12.1,0.1,24.2,0.2,36.3,0c4.2-0.1,5.6,1.5,5.6,5.6c-0.2,19.4-0.3,38.9-0.4,58.3c0,12.1,0.2,24.2,0.3,36.3c0,17.4,0,34.9,0,52.3
c0,8.9-0.2,17.8-0.3,26.3c-5.5-8-5.5-8-15.9-5.3c-1.9,0.5-4,0.4-5.8,1c-1.3,0.4-2.4,1.6-3.6,2.4c0.8,0.9,1.6,1.9,2.4,2.8
c0.8,0.9,2,1.5,2.3,2.5c2.6,9.1,5,18.3,7.5,27.4c0.2,0.8,0,1.8,0,2.6c-0.3,0.3-0.5,0.6-0.8,0.6c-8.6,2.6-8.7,2.7-11.9-5.5
c-2.5-6.4-4.9-12.9-7.2-19.3C501,628.9,499.5,628,490.4,629.7z"/>
<path class="st2" d="M684.5,569.7c29.5,0,59.1,0,88.6,0c5.9,0,6,0.1,6,6.1c0,10.1-0.2,20.2,0.1,30.3c0.1,4.6-1.5,5.7-5.8,5.6
c-11.6-0.2-23.3,0-34.9-0.1c-18-0.1-36,0-54.1,0.6c-14.2,0.5-28.4-0.4-42.6-0.5c-15.7-0.1-31.4-0.1-47.2,0c-3.9,0-5.4-1-5.3-5.2
c0.3-10.4,0.3-20.8,0-31.2c-0.1-4.4,1.2-5.8,5.6-5.7C624.8,569.7,654.6,569.7,684.5,569.7z"/>
<path class="st2" d="M586.3,613.5c-15.2,0-29,0.1-42.7-0.1c-4.2-0.1-4.9-3.6-5-7c-0.1-8.9-0.1-17.8-0.1-26.6
c0-41.2,0-82.4,0-123.6c0-6.6,0.2-6.6,6.6-6.6c9,0.1,18,0,27.1-0.2c6.5-0.2,6.8-0.1,6.8,6.3c0,35.2,0,70.4,0,105.6
c0,3.9-0.7,8.4,5.5,8.5c0.6,0,1.7,1.5,1.7,2.3C586.3,585.8,586.3,599.4,586.3,613.5z"/>
<path class="st2" d="M558.6,809.7c7.3-19.1,14.6-38.2,22-57.3c2.6-6.7,5.2-13.4,7.7-20.2c1-2.9,2.7-4,5.8-4
c15.2,0.1,30.3,0.1,45.5,0c3.7,0,4.7,1.5,4.6,5c-0.1,14.4,0,28.8-0.1,43.2c0,6.9,0.5,7.4,7.2,7.5c13.9,0,27.9,0,41.8,0
c7.2,0,6.9,0.1,7.8,7.1c2.1,15.3,4.3,30.5,6.9,45.7c1.8,10.2,6,19.6,12.5,27.7c1.4,1.7,2.5,3.6,4.6,6.6
c-8.9-2.6-16.5-4.8-24-7.2c-4.3-1.4-10.1-1.9-12.4-5c-2.2-2.9-0.7-8.5-0.7-12.9c0-4.9-0.1-9.8,0-14.7c0.1-3.2-1-5.1-4.3-6
c-15.7-4.1-31.3-8.5-47-12.3c-3.3-0.8-7.1,0.4-10.9,0.6c0.9-7.4,2.1-14.6,2.7-21.8c0.5-6.4,0.8-12.8,0.6-19.2
c-0.1-6-3.6-8.3-9.4-9.8c-11.3-2.9-19.1,1.7-26.1,9.8c-10.4,11.9-21.2,23.4-31.8,35c-0.8,0.8-1.6,1.7-2.4,2.5
C558.9,810,558.7,809.9,558.6,809.7z"/>
<path class="st2" d="M787.2,614c-4.7-0.1-5-2.8-5-6c0.1-11.3,0.2-22.6,0-34c0-3.5,1.3-4.5,4.6-4.4c4.4,0.2,8.9,0.1,13.3,0.1
c5.4,0,6.1-0.6,6.2-6c0-16.8,0-33.7,0-50.5c0-19.4,0.1-38.9-0.1-58.3c0-4.2,1.2-5.8,5.4-5.5c4.3,0.3,8.6,0.2,12.8,0
c3.4-0.2,4.6,1.2,4.5,4.6c-0.1,12.9,0,25.7,0,38.6c0,37.2,0,74.4-0.1,111.6c0,3.1-1,6.1-1.6,9.2c-0.1,0.4-0.3,0.9-0.2,1
c3.9,3.5,1.2,5.6-1.3,8.2c-1.5,1.6-2.5,3.8-3.3,5.9c-2.5,6.4-4.7,12.9-7.4,19.2c-0.5,1.1-2.7,2.4-3.9,2.2
c-8-1.3-15.9-2.9-23.9-4.5c-3.9-0.8-5.6-3.1-5.5-7.2c0.2-6.1,0.1-12.2,0-18.4C781.9,616.5,782.2,613.7,787.2,614z M822.2,614.2
c0-0.1,0-0.3,0-0.4c-10.2,0-20.3,0-30.5,0c0,0.1,0,0.3,0,0.4C801.8,614.2,812,614.2,822.2,614.2z"/>
<path class="st2" d="M395.8,716.2c-2.7-0.6-5.5-1.2-8.3-1.7c-6.8-1.3-12.5,2.2-13.9,8.1c-0.8,3.5,0.3,5.6,3.8,6.5
c1.8,0.4,3.5,1.1,5.3,1.3c3.6,0.4,3.7,2.9,3.9,5.6c0.3,3.1-1.9,3.5-4,3.8c-13.7,2.5-27.4,4.9-41,7.5c-3.1,0.6-4.7-0.1-5.7-3.3
c-5.9-18.8-11.8-37.6-18-56.4c-1.4-4.3-3.5-8.3-5.3-12.3c11.4-2.7,23.1-5.3,34.8-8.2c6.4-1.6,12.5-3.9,18.8-5.8
c5-1.5,8.7-0.4,10.6,4.4c6.6,16.3,12.9,32.7,19.2,49.1C396.3,715.1,396,715.4,395.8,716.2z"/>
<path class="st2" d="M942.9,712.3c1.6-4.1,3.5-8.5,5.1-12.9c4-10.4,7.8-20.9,11.9-31.3c2.9-7.4,6-8.5,13.6-6
c14.5,4.8,29,9.2,42.6,13.5c-7.2,21.7-14.7,44-22.1,66.4c-2.1,6.4-2,6.4-8.5,5.2c-13.4-2.4-26.8-4.8-40.1-7.3
c-2.1-0.4-4.9,0-4.9-3.5c0-3.2,0.5-5.8,4.3-6.5c1.2-0.2,2.5-0.4,3.5-1c2-1.1,5.4-2.4,5.5-3.8c0.1-2.7-1.1-6-2.8-8.1
C949.2,715,946.1,714.1,942.9,712.3z"/>
<path class="st2" d="M777.9,823.4c-5.3-6.1-10.5-12.1-15.8-18c-9.4-10.5-18.8-21-28.4-31.3c-4.4-4.7-9.1-9.2-16.7-7.7
c-0.7,0.1-2.5-1.7-2.5-2.7c-0.2-10.7-0.2-21.4,0-32.1c0-1.1,2.1-3.1,3.2-3.1c15.6-0.2,31.2-0.2,46.8,0c1.4,0,3.5,1.5,4,2.8
c6.6,17.1,12.9,34.3,19.2,51.6c0.6,1.8,0.7,4,0.2,5.8c-2.9,11.1-6,22.1-9.1,33.2C778.8,822.3,778.4,822.6,777.9,823.4z"/>
<path class="st2" d="M807.8,738.5c7.2,3.2,8.1,4.7,6.5,12c-6.9,32.9-13.9,65.8-20.8,98.7c-2.9,13.8-0.6,27.4,1.5,41
c2.1,13.7,4.1,27.5,6,41.2c0.3,2.4-0.3,4.9-0.6,7.3c-0.5,4.1-2.6,5.6-7,5.1c-3.2-0.4-6.6,1.2-9.7,0.7
c-8.3-1.4-15.1-5.7-19.9-12.8c-7.1-10.6-11-22.3-12.7-35c2.9,7.1,5.9,14.3,8.8,21.4c0.4-0.2,0.8-0.3,1.2-0.5
c-2.7-8.2-5.4-16.3-8.1-24.4c5.6-2.8,6.6-2.4,8.4,2.8c1.8,5.3,3.6,10.7,5.8,15.9c2.8,6.4,7.4,11.5,13.5,15.3
c1.1,0.7,1.9,1.6,2.5,3.6c-1.8,0.2-3.6,0.4-5.4,0.6c-0.1,0.3-0.2,0.7-0.3,1c1.9,0.4,4.2,1.6,5.7,1c1.3-0.5,2.5-2.9,2.6-4.6
c0.2-2.5-0.2-5.2-0.8-7.7c-3.9-15.7-6.5-31.6-6.6-47.8c-0.1-9.7-0.4-19.7,1.5-29.1c1.2-5.9,2.8-11.7,4.1-17.7
c4.3-20.2,9.9-40,15-60c0.2-0.7,0.5-1.4,1.4-1.9c-1,5-1.9,10-2.9,15c0.5,0.1,1,0.2,1.5,0.3C802.1,765.9,804.9,752.2,807.8,738.5
L807.8,738.5z M789.5,941.3c0.6,0.1,1.2,0.1,1.8,0.2c0.4-4,0.8-8,1.2-11.9c-0.5-0.1-1-0.1-1.5-0.2
C790.4,933.4,789.9,937.3,789.5,941.3z"/>
<path class="st2" d="M521.7,733.9c-1.4,0.2-2.8,0.3-4.2,0.5c-0.1-0.4-0.2-0.8-0.3-1.2c1.8-0.5,4.1-1.8,5.4-1.2
c1.5,0.8,3.8,3,1.1,5.4c-0.4,0.3-0.2,1.4,0,2.2c2.6,12.4,5.2,24.8,7.9,37.2c0.2,0.9,0.7,1.8,1.1,2.7c0.4-0.1,0.7-0.2,1.1-0.3
c-1.5-7-2.9-14.1-4.4-21.1c0.2-0.1,0.5-0.1,0.7-0.2c1.5,5.7,3,11.5,4.5,17.2c3.8,14.3,7.7,28.6,11.4,43c1.7,6.7-0.4,14.4,5,20.2
c2.2,17.5,2.7,35-1.3,52.4c-1,4.3-1.4,8.7-2.1,13c-1,5.5-2.3,11-2.9,16.5c-0.2,1.8,1.3,4.7,2.8,5.3c1.6,0.7,4.1-0.8,6.2-1.3
c-0.1-0.4-0.2-0.9-0.3-1.3c-1.9,0.2-3.8,0.3-6.8,0.6c1.1-1.6,1.4-2.4,1.9-2.7c9.6-5.2,14.8-13.8,18.1-23.9
c0.9-2.6,1.9-5.2,2.6-7.8c1.1-4.5,3.7-5.1,8.4-3.2c-2.8,8.3-5.7,16.5-8.5,24.7c0.4,0.2,0.8,0.4,1.2,0.5
c2.4-5.4,4.9-10.8,7.4-16.3c0.4,0.4,0.9,0.7,0.9,1c-3,13-7.2,25.5-17.8,34.3c-5.3,4.4-11.5,8.3-19.3,5.7
c-0.9-0.3-2.1-0.1-3.2,0.1c-6.1,0.9-7.4,0-8.3-6.3c-1.4-10.2,1.2-20,2.8-30c2.1-12.8,4.1-25.6,5.5-38.5
c1.3-12.4-2.7-24.2-5.3-36.1c-5.9-27-11.8-54-17.4-81.1c-0.4-1.8,1.9-4.3,3.3-6.3c0.8-1.1,2.3-1.8,3.4-2.6
C522,734.7,521.9,734.3,521.7,733.9z"/>
<path class="st2" d="M679.8,728.4c9,0,18.1,0.1,27.1-0.1c3.7-0.1,5.2,0.9,5.1,4.9c-0.2,10.1-0.1,20.2,0,30.3
c0,2.5-0.5,3.8-3.4,4.3c-5,0.9-7.7,4.3-7.7,9.4c0,3.2-1.6,4.2-4.6,4.1c-15-0.1-30-0.1-45,0c-3.5,0-4.5-1.4-4.4-4.7
c0.1-14.5,0.1-29.1,0-43.6c0-3.6,1.4-4.8,4.9-4.8C661.1,728.4,670.4,728.4,679.8,728.4z"/>
<path class="st2" d="M706.7,777c2.7,1.8,5.7,3.3,8.1,5.4c1.3,1.2,2.3,3.2,2.6,5c2.2,13.1,4.2,26.2,6.1,39.4
c0.4,2.5-0.7,5.2-0.3,7.7c0.5,3.2,1,6.9,2.9,9.2c7.9,9.7,16.5,18.9,24.5,28.5c1.6,1.9,2.4,5,2.1,7.4c-0.1,1.2-3.5,2.1-5.4,2.9
c-1.1,0.5-2.4,0.5-3.5,0.9c-3.8,1.3-6.7,0.4-9.1-3c-5.7-8.1-11.8-16-17.4-24.2c-3.2-4.8-3.7-10.3-4.2-16.1
c-1.2-13-4.6-25.8-6.6-38.8c-0.9-6.3-0.6-12.7-0.9-19.1c-0.1-1.1-0.1-2.4-0.8-3.2c-2.2-2.8-1.3-6.7,2.1-7.6
c1-0.3,2.2,0.1,3.2-0.3c11.1-4.8,18.9,0,26,8.2c12.8,14.8,25.9,29.4,38.7,44.2c2,2.3,3.7,4.9,5.3,7.4c2.5,3.9,1.7,4.8-2.7,6.4
c-6.5,2.4-11,0.4-15.5-4.7c-14.9-17.2-30.2-34.1-45.4-51.1c-1.5-1.7-3.2-3.3-5.2-4.5c-1.3-0.8-3-0.7-4.6-0.9
C706.8,776.3,706.8,776.7,706.7,777z"/>
<path class="st2" d="M605.5,826.5c1.8-10.4,3.6-20.4,5.3-30.5c0.6-3.8,1.4-7.6,1.3-11.4c-0.2-6.2,3.3-9.1,8.3-11
c0.9-0.3,1.6-1,2.4-1.5c-0.1-0.4-0.3-0.8-0.4-1.3c-1.4,0.3-3.1,0.2-4.1,1c-3.1,2.5-6.1,5.1-8.8,8c-12.1,13.4-24,27-36,40.4
c-2.5,2.8-5.3,5.5-8,8.1c-4.1,3.8-10.2,4.9-15,2.4c-3-1.5-1.8-3.8-0.2-5.6c9.8-11.7,19.5-23.5,29.6-34.9
c6.2-7.1,12.9-13.8,19.5-20.7c5-5.3,11.1-5.8,17.8-3.8c1.4,0.4,3.1,0.3,4.4,0.9c1.5,0.7,3.3,1.6,3.9,2.9
c0.7,1.3,2.5,3.5-0.7,4.8c-0.7,0.3-0.8,2.4-0.8,3.7c0.2,19.9-4.5,39-8.3,58.4c-1.2,6.4-2.6,11.9-6.2,17.1
c-3.6,5.1-7.3,10.2-11.1,15.2c-6.3,8.2-9.3,9.2-19.1,6.4c-3.1-0.9-3.5-3.5-0.9-6.4c5.1-5.5,10.3-10.9,15.5-16.3
c4.1-4.3,8.4-8.4,12.5-12.8c1.3-1.4,2.5-3.1,3.2-4.9C611.7,828.8,611.5,828.5,605.5,826.5z"/>
<path class="st2" d="M532.4,943.6c3.1-4.1,6.1-4.5,10.4-4.4c4.7,0.2,9.5-2.3,14.1-4c2.6-1,4.7-3.4,8-1.4c0.7,0.4,3-0.4,3.5-1.3
c2-3.3,3.9-6.8,5.2-10.4c1.6-4.4,2.4-9,3.7-13.5c0.9-3.1,2-6.1,3-9.1c1.4-4.2,1.7-8.7,6.5-11.3c2.1-1.2,3.2-4.7,4.2-7.3
c1.8-4.6,4.1-6,8.6-4.5c4.2,1.4,8.4,3,12.6,4.3c2.5,0.8,3.6,2.2,3,4.7c-3.6,14.5-7.1,29.1-10.8,43.6c-0.4,1.4-2.2,2.9-3.7,3.4
c-14.4,5.1-28.9,10.1-43.3,14.9c-1.9,0.6-4.2,0.7-6.2,0.3C545.1,946.6,539.1,945.1,532.4,943.6z"/>
<path class="st2" d="M684.6,340.3c-64.9,0-129.8,0-194.7-0.1c-2,0-5.3,1.8-5.8-2c0-0.3,3.9-1.8,6-1.8
c128.6-0.1,257.2-0.1,385.8-0.2c2.3,0,4.6-0.2,6.9,0c0.9,0.1,1.8,1.1,2.6,1.8c-0.9,0.7-1.9,2-2.8,2c-4.6,0.2-9.2,0.2-13.8,0.2
C807.4,340.2,746,340.2,684.6,340.3C684.6,340.2,684.6,340.3,684.6,340.3z"/>
<path class="st2" d="M474.8,693.2c-3.7,0.7-7.1,1.3-10.5,1.9c-6.4,1.2-12.9,2.3-19.3,3.7c-2.9,0.6-4.1-0.2-5-2.9
c-3.9-12.1-8-24.1-12-36.1c-1.2-3.5-2.5-6.8-3.9-10.7c4.2-1,8.8-2,13.2-3.3c3.5-1,7-2.2,10.4-3.5c5.3-1.9,7.6-1,9.7,4.3
c2,5.1,3.8,10.3,5.7,15.5c3.4,8.8,6.9,17.6,10.3,26.5C473.9,689.9,474.2,691.2,474.8,693.2z"/>
<path class="st2" d="M920,649.3c-5.3,15.5-10.6,30.6-15.7,45.9c-1.1,3.3-2.2,4.7-6.1,3.7c-6.8-1.7-13.8-2.9-20.7-3.7
c-4.3-0.5-3.6-2.5-2.6-5.3c4.5-11.7,9-23.4,13.4-35.1c1.2-3.1,2.2-6.4,3.5-9.4c1.2-2.8,3.4-4.5,6.6-3.5
C905.7,644.2,912.8,646.8,920,649.3z"/>
<path class="st2" d="M927.7,837.2c-2.8-0.9-4.3-1.4-5.9-1.9c0.1-0.4,0.2-0.8,0.4-1.3c1.7,0.2,3.4,0.4,5.3,0.6
c0.5-1.5,1-2.9,1.4-4.3c3.3,0.5,6.5,0.7,9.6,1.5c1,0.2,2.1,2.1,2.1,3.2c0.1,3.6,1.9,5.4,4.9,7c27,13.8,53.9,27.7,80.8,41.5
c4,2,4.6,4.4,2.9,11.7c-3.1-2.7-5.7-5.2-8.5-7.5c-1.3-1-2.8-1.8-4.4-2.5c-23-10.4-46-20.9-69-31.2c-3.7-1.7-6.9-3.3-6.3-8.2
c0.1-0.7-0.9-1.6-1.3-2.4c-0.6,0.1-1.1,0.3-1.7,0.4c1.9,11.7,4.2,23.3,5.6,35c1.4,11.6,5.8,22.8,6.1,35.1
c-6.8-2.5-8.7-6-8.7-12.7c0-8.9-2.9-17.7-4.4-26.6c-1.7-10.1-3.2-20.2-4.9-30.3c-0.1-0.7-0.5-1.3-1.8-2.1c-0.3,1.4-0.5,3-1,4.3
c-0.5,1.1-1.4,2-2.1,3c-0.8-0.9-2-1.7-2.4-2.8C923.1,843.4,921.1,839.4,927.7,837.2z"/>
<path class="st2" d="M801.8,913c6.7-0.8,13-1.6,19.3-2.2c33.3-3.3,65.5-10.1,95.7-25.3c2.3-1.2,4.5-2.4,7.1-0.1
c3.9,3.4,3.8,6.1-0.5,9c-18,12.1-38,19.1-59.1,22.9c-12.8,2.3-25.8,3.3-38.7,4.7c-5.6,0.6-11.3,0.4-16.9,1.1
c-4.2,0.5-5.9-1.2-6.1-5.1C802.6,916.4,802.2,914.9,801.8,913z"/>
<path class="st2" d="M376.1,912.2c1.1-4.1,2.2-8.2,3.3-12.3c2-7.4,4-14.7,6.1-22.1c2.8-9.8,5.7-19.7,8.5-29.5
c0.5-1.7,0.9-3.4,1.3-5.1c-0.5-0.2-0.9-0.5-1.4-0.7c-0.6,1.2-1.7,2.3-1.8,3.6c-0.6,4.1-3,6.2-6.7,7.8
c-23,9.7-45.9,19.5-68.7,29.6c-5.7,2.5-10.7,6.7-16,10.1c-2.2-5.6-1.4-8.3,3.2-10.6c23.5-11.8,47.1-23.5,70.6-35.2
c3-1.5,6.1-2.9,9.2-4.1c5.5-2.1,10.7-4.4,9.6-11.6c4.3-0.9,8.2-1.6,12.5-2.5c-0.3,4.7,1.6,9.6-3.1,13.2
c-0.4,0.3-0.4,1.1-0.6,1.7c-2.7,10-5.1,20.1-8.4,29.8c-3.6,10.7-7.1,21.3-8.5,32.6c-0.3,2.4-4.6,4.4-7.1,6.6
C377.5,913,376.8,912.6,376.1,912.2z"/>
<path class="st2" d="M528.3,907c-0.9,9.5-0.9,9.7-9.5,9.5c-16-0.4-32.1-0.3-48.1-1.9c-23.2-2.3-45.8-7.7-66.4-19.4
c-2.5-1.4-4.8-2.8-3.1-5.9c1.6-2.8,3.6-5.4,7.7-4c9.2,3.3,18.2,7.4,27.7,9.5c17.9,3.8,35.9,6.9,54,9.4
c11.3,1.5,22.9,1.4,34.3,2.1C526.1,906.3,527.1,906.7,528.3,907z"/>
<path class="st2" d="M563.6,614.4c6.7,0,13.5,0,20.2,0c3.7,0,5.7,1.2,5.3,5.4c-0.3,3.3-0.1,6.7-0.1,10.1c0,8.7-3,12.9-11.5,14.7
c-10,2.1-20.1,3.7-30.2,5.3c-1,0.2-2.9-0.9-3.4-1.8c-5-9.5-6.1-19.7-5.3-30.3c0.2-2.9,2-3.5,4.4-3.5
C549.8,614.4,556.7,614.4,563.6,614.4C563.6,614.4,563.6,614.4,563.6,614.4z"/>
<path class="st2" d="M807.8,738.5c-0.7,0.3-1.3,0.6-2.8,1.3c1.5-3.3,1.4-6.8,6-4.7c1.3,0.6,3,0.4,4.5,0.6
c-0.2-1.5-0.3-3-0.6-5.2c1.1,0,2.5,0.1,4,0c20.8-0.8,41.7-0.7,62.3-2.9c19.1-2,37.8-6.7,56.8-10.1c2.8-0.5,5.8-0.8,8.6-0.5
c3.4,0.3,5,3.2,4.8,6.2c-0.1,1.3-2.6,2.9-4.3,3.4c-26.4,7.5-53.2,12.5-80.7,13.6c-9.9,0.4-19.9,0.7-29.8,0.9
c-8.6,0.1-17.4,1.2-25.4-3.5C810.5,737.1,808.9,738.2,807.8,738.5C807.8,738.5,807.8,738.5,807.8,738.5z"/>
<path class="st2" d="M515.9,728.1c-0.6,1.7-1.6,3.1-1.5,4.5c0.5,4.9-1.9,5.8-6.2,5.7c-19.1-0.2-38.2,0.6-57.3-0.3
c-24.2-1.1-47.9-5.4-71.4-11.3c-1.2-0.3-3.1-1.7-3.1-2.5c0-1.8,0.6-4.6,1.9-5.2c2.6-1.3,5.8-2.3,8.5-1.9
c18.9,2.9,37.5,7.3,56.5,9.1c19.7,1.9,39.7,1.3,59.5,1.8C507.1,728.2,511.4,728.1,515.9,728.1z"/>
<path class="st2" d="M607.7,831c-17.2,18-34.5,36.1-51.8,54.2c-0.4-0.2-0.8-0.4-1.2-0.6c2.8-16.3,5.1-32.5,1.9-49.5
c6.1,1.2,8.5-3.6,11.7-6.7c2.4-2.3,4.8-3.4,8.1-3.2c7.3,0.4,14.7,0.3,22,0.7c1.5,0.1,2.9,1.1,4.3,1.9
C604.4,828.7,605.9,829.7,607.7,831z"/>
<path class="st2" d="M772.6,841.1c0,7.8-0.3,15.4,0.1,23c0.4,7.6,1.7,15.1,2.7,24c-5.3-5.3-9.7-9.8-14.2-14.3
c-11.3-11.6-22.7-23.2-33.9-34.9c-0.9-0.9-1.7-3-1.3-3.8c1-1.8,2.6-4.2,4.3-4.4c7.7-0.9,15.5-1.3,23.3-1.6
c1.3-0.1,2.9,0.9,3.9,1.8c2.1,1.8,3.9,3.9,5.9,5.8C766.2,839.3,768.5,843.3,772.6,841.1z"/>
<path class="st2" d="M590,637.4c0-6.9-0.2-13.5,0.2-20c0.1-1,2.7-2.6,4.2-2.7c11.5-0.2,23-0.2,34.4-0.1
c16.2,0,32.4,0.1,48.7,0.1c15.3,0,30.6-0.1,46-0.2c1.8,0,3.7,0.4,5.5,0.6c0,0.5,0,1-0.1,1.6c-5.5,0-11,0.3-16.5-0.1
c-7.2-0.5-7.6-0.4-7.8,6.9c-0.2,10.9-0.2,10.9-10.9,10.9c-7.7,0-15.3-0.1-23,0.1c-3.3,0.1-4.3-1.2-4.2-4.3
c0.1-3.2-0.1-6.4-0.2-9.6c-0.1-3.2-1.7-4.4-5-4.4c-11.9,0-23.8,0-35.6-0.4c-9.2-0.3-16.6,4.3-19,13.3c-1,4-2.6,5.9-7.1,5.7
C596.7,634.5,593.7,636.2,590,637.4z"/>
<path class="st2" d="M992.6,793.7c-11-1.3-21.6-3.1-32.2-3.6c-9.9-0.4-19.9,0.6-31.1,1c2.3-10.7,4.5-21.2,6.8-31.7
C944.3,760,984.2,784.3,992.6,793.7z"/>
<path class="st2" d="M854.7,614.4c6.3,0,12.5,0.1,18.8,0c3.4-0.1,5.2,0.9,4.9,4.6c-0.2,3.5-0.2,7,0,10.5
c0.2,3.5-1.6,4.5-4.5,3.8c-3.7-0.9-7.4-2-10.9-3.3c-6.3-2.4-9.2-1.3-11.7,5.2c-3.3,8.5-6.7,17.1-9.6,25.8
c-1.4,4.2-4,3.3-6.8,2.7c-3.8-0.8-2.1-3.7-1.7-5.5c2.2-8.6,4.5-17.1,7-25.6c0.4-1.2,1.7-2.1,2.6-3.1c0.7-0.8,2.3-2.1,2.1-2.5
c-0.6-1.1-1.7-2.2-2.8-2.6c-2.7-0.9-5.8-1-8.3-2.3c-1.5-0.8-2.7-3.2-2.8-5c-0.1-0.8,2.7-2.5,4.3-2.6
C841.8,614.2,848.2,614.4,854.7,614.4z"/>
<path class="st2" d="M548.7,805.6c-5.8-21.6-11.2-41.9-16.9-63.3c10.2,2,19.1,3.8,28,5.6c0.7,0.1,1.7,0.8,1.7,1.2
c-0.1,4.4,3.2,8.2,1.4,13.2c-4.6,12.9-8.4,26.1-12.5,39.2C550.1,802.5,549.6,803.4,548.7,805.6z"/>
<path class="st2" d="M340,757.2c16.7-2.4,32.6-4.7,48.9-7.1c0.7,2.9,1.7,5.4,1.7,7.9c0,1.3-1.7,3-3,3.7
c-14.7,8.5-29.5,16.9-44.2,25.3c-2.4,1.4-4.6,3-7.9,5.1C341,780.8,344,769.9,340,757.2z"/>
<path class="st2" d="M866.1,931.9c10.8-8.8,21-18.3,34.4-22.5c3.5-1.1,6.6-0.7,8.7,2.1c4.8,6.5,9.1,13.3,14,20.6
c-8.4,4.2-16.4,8.3-24.4,12.3c-2.8,1.4-3.2-0.6-3-2.7c0.3-3.9,0.1-7.7-3.3-10.4c-2.8-2.1-5.5-3.1-9.3-2.2
C877.6,930.5,871.8,931,866.1,931.9z"/>
<path class="st2" d="M526.5,919.7c0,2.3-0.1,3.8,0,5.3c0.4,3.6-1.4,4.8-4.7,5.3c-9.2,1.4-18.3,3.4-27.6,4.3
c-8.2,0.8-16.5-0.4-23.8-4.9c-8.2-5-16.1-10.4-25.3-16.3c9,1.5,16.5,2.8,24.2,4c3,0.5,6.1,0.5,9.1,0.7c0.6,0,1.4-0.2,1.8,0.1
c6.2,3.8,12.6,0.3,18.9,0.8c6.5,0.5,13.1,0.1,19.7,0.2C521.3,919.2,523.7,919.5,526.5,919.7z M488.1,926
c-1.4-1.2-2.9-2.8-3.3-2.6c-1.2,0.7-2.4,1.9-2.7,3.2c-0.2,0.7,1.8,2.7,2.3,2.5C485.7,928.7,486.6,927.4,488.1,926z"/>
<path class="st2" d="M514.1,671.2c-6.7,1.3-12.8,2.5-18.9,3.4c-0.9,0.1-2.7-1.8-3.1-3.1c-3.3-9.2-6.3-18.5-9.4-27.7
c-0.8-2.4-1.7-4.8-2.8-7.7c5.1-1.6,10.2-3.5,15.5-4.7c1.3-0.3,4.1,1.2,4.6,2.5C504.8,646.1,509.3,658.4,514.1,671.2z"/>
<path class="st2" d="M397.7,790.9c-10.8-0.5-20.4-1.6-30-1.3c-9.4,0.4-18.7,2.2-28.1,3.4c-0.2-0.4-0.5-0.8-0.7-1.2
c17.2-9.8,34.4-19.6,52.6-30C393.7,772,395.6,781,397.7,790.9z"/>
<path class="st2" d="M991.3,787.9c-15.6-9.6-31.7-19.4-47.7-29.5c-2.2-1.4-3.4-4.3-5-6.4c0.3-0.4,0.6-0.9,0.8-1.3
c4.7,0.7,9.5,1.3,14.2,2c10.6,1.5,21.1,3,31.7,4.7c1.1,0.2,3.1,1.8,2.9,2.3C985.7,769.8,987.4,779.5,991.3,787.9z"/>
<path class="st2" d="M881,917c-7.8,5.6-15,12.2-23.4,16.6c-7.7,4.1-16.6,5.7-25.7,4.1c-7-1.3-14.2-1.7-21.4-2.6
c-6.9-0.8-6.9-0.9-6.2-8.9c25.5-1.9,51.3-2.1,76.1-10.2C880.6,916.3,880.8,916.7,881,917z M848,933c1.2-1.9,2.5-3.1,2.3-3.9
c-0.3-1.2-1.7-2.2-2.7-3.2c-0.8,0.9-2.3,1.9-2.3,2.8C845.4,929.9,846.6,931,848,933z"/>
<path class="st2" d="M890.9,952.3c-1.6-2.3-3.1-4.6-5.1-7.5c1.9-0.7,3.5-1.4,5.2-2c-0.6-0.7-1.1-1.4-1.7-2.1
c-1.8,0.6-3.6,1.1-5.4,1.8c-8.7,3.4-17.6,6.3-26,10.3c-6.6,3.2-11.8,2.5-17.5-1.9c-2.8-2.2-3.7-4.3-2.9-7.4
c0.2-0.9,1-2.1,1.7-2.3c9.3-2.3,18.6-4.6,27.9-6.6c5.9-1.3,12-2.2,18-3.2c4.1-0.7,7.7,2,7.8,6.2c0.2,4.7,0,9.5,0,14.3
C892.4,952,891.6,952.1,890.9,952.3z"/>
<path class="st2" d="M871.8,635.9c-4.1,11.9-8.2,23.4-12,35c-1.2,3.5-2.9,4.5-6.4,3.6c-4.1-1.1-8.3-1.7-13-2.6
c1.1-3.2,2-6.1,3-8.9c3.2-8.7,6.6-17.4,9.8-26.1c2.2-6,3.7-6.7,9.5-4.3C865.6,633.7,868.7,634.7,871.8,635.9z"/>
<path class="st2" d="M551.1,816.4c0.2-3.4-0.4-7.1,0.6-10.3c7.1-23.5,14.6-46.9,21.9-70.4c2.6-8.3,3.7-8.9,13.3-6.6
c-11.2,29.3-22.4,58.4-33.7,87.6C552.5,816.7,551.8,816.6,551.1,816.4z"/>
<path class="st2" d="M959.1,816.9c-1,2.3-1.6,3.6-2.7,6c2.1-1.5,3.2-2.4,4.7-3.4c1.2,1,2.4,2.1,3.7,3.1
c5.8,4.4,12.3,5.3,19.1,3.2c5.7-1.7,11.4-3.6,16.8-6c7.1-3.1,8.2-6.5,5.1-13.6c-3.7-8.4-8.1-16.5-10.8-25.2
c-1.7-5.6-1-12.1-1.1-18.1c0-1.3,1.2-2.7,2-4.5c0.8,1.1,1.4,1.5,1.3,1.7c-3,12.7,2.3,23.3,8.5,33.7c1.7,2.9,3.5,5.7,5.2,8.7
c4.4,8,2,17.2-6.3,20.9c-8,3.6-16.4,6.5-24.9,8.8c-7.8,2.2-20.7-3.4-24.2-9.7c-0.7-1.3-0.7-3.1-0.6-4.7
C955.1,817.5,957.2,817.4,959.1,816.9z"/>
<path class="st2" d="M368.3,819.9c0.5,0.4,1.6,1.2,3.7,2.8c-0.9-2.4-1.4-3.7-2.3-5.9c1.9,0.3,3.8,0.3,4,0.8
c0.4,1.3,0.4,3-0.3,4.2c-3.8,6.9-10.7,9.3-17.7,10c-12.9,1.2-24.3-4-34.8-10.8c-5.4-3.5-6.4-12.8-3-18.8
c3.6-6.4,7.3-12.7,10.8-19.2c3.7-7,5-14.4,3.1-22.2c-0.2-0.7-0.1-1.4-0.1-2.1c0.5-0.2,1-0.4,1.5-0.5c0.7,1.8,1.7,3.5,1.9,5.3
c1.8,12.1-2,22.9-7.6,33.4c-1.9,3.5-3.5,7.1-5.2,10.7c-1.9,3.9-1.2,7.5,2.4,9.6c9.4,5.7,19.5,10,30.7,8.6
C359.6,825.3,363.6,822.1,368.3,819.9z"/>
<path class="st2" d="M393.1,907c-0.8-2.1-2.2-4.3-2.1-6.4c0.2-5.4,0.5-11,2-16.2c2.8-9.2,6.3-18.2,9.9-27.1
c6.5-16.2,7-32.3,2.5-49.3c-6.1-23.5-10.7-47.3-15.7-71.1c-0.3-1.3,0.8-2.9,1.2-4.4c1,1.2,2.8,2.2,3,3.6
c5.5,28.5,10.5,57.1,16.2,85.5c2.4,11.9,0.4,23.1-3.1,34.2c-4.1,12.9-8.6,25.8-12.6,38.7c-0.8,2.5-0.2,5.4-0.1,8.2
c0,1.3,0.4,2.6,0.6,3.9C394.3,906.6,393.7,906.8,393.1,907z"/>
<path class="st2" d="M781.1,641.4c-3.5-2-5.7-3.4-8-4.4c-2.5-1.1-5.1-1.6-7.6-2.5c-1.4-0.5-3.3-1-4.1-2.1
c-3.3-4.5-8.3-8.3-13.7-9.6c1-9.3-6.3-5.7-11.2-6.2c0.1-0.4,0.1-0.8,0.2-1.2c1-0.3,2.1-0.8,3.1-0.8c12.1,0,24.2,0.1,36.2,0
c3.7,0,5.2,1.5,5.1,5.3C781,626.5,781.1,633.2,781.1,641.4z"/>
<path class="st2" d="M574.2,822.7c12.2-13.8,23.4-26.4,34.6-39.1c0.3,0.1,0.7,0.1,1,0.2c-1,7.4-2,14.8-3,22.2
c0,0.2-0.1,0.3-0.1,0.4c-1.1,4.2-0.9,10.4-3.6,12.2c-4.4,2.9-10.6,3.2-16.2,4C583.2,823.2,579.4,822.7,574.2,822.7z"/>
<path class="st2" d="M932.1,905c4.4-9.2-1.4-16.5-3.5-24.5c-3.7-13.9-7.8-27.6-11.4-41.5c-2.4-9.2,0.8-18.2,2.4-27.2
c4.4-24.8,9.1-49.5,13.6-74.3c0.1-0.6,0.1-1.3,0.4-1.8c0.9-1.1,2-2.2,3-3.2c0.3,1.3,1.2,2.8,0.9,4c-3.6,18-7.3,35.9-11.2,53.8
c-2.3,10.6-5.2,21.1-7.3,31.7c-2.2,11,1.2,21.5,4.6,31.8c3.4,10.1,7.6,20,10.6,30.3c1.5,5,1.3,10.5,1.5,15.8
c0,1.8-1.4,3.6-2.2,5.4C933.2,905.3,932.7,905.2,932.1,905z"/>
<path class="st2" d="M663.4,634.3c-12.9,0-25.3,0-38,0c-0.2-0.7-0.5-1.3-0.5-1.8c0.3-13.2,0.3-13.2,13.5-13.1
c7,0.1,14.1,0,21.1-0.2c2.7-0.1,4,0.8,3.9,3.6C663.3,626.5,663.4,630.1,663.4,634.3z"/>
<path class="st2" d="M721.7,790c10.3,11.8,20.6,23.7,31.9,36.7c-9.3,0.2-17.3,0.5-25.3,0.6c-0.9,0-2.4-1.2-2.5-2.1
c-2.1-11.5-4-23-6-34.6C720.5,790.4,721.1,790.2,721.7,790z"/>
<path class="st2" d="M397.1,733.5c2.6,12.6,4.7,24.3,7.3,35.9c3.2,14.3,6.6,28.6,10.2,42.8c3.8,14.8,2.8,29.4-1,44
c-1.5,5.9-3.5,11.7-4.7,17.7c-1.1,5.3-3.6,9.3-8.9,12.3c2.8-8.5,5.4-16.5,8.1-24.5c3.9-11.8,7.5-23.8,5.4-36.4
c-1.7-10.6-4.5-20.9-6.5-31.4c-3.7-19.5-7-39.1-10.5-58.6C396.5,735.1,396.7,734.8,397.1,733.5z"/>
<path class="st2" d="M931.6,735.3c-3.2,17.6-6.4,35.1-9.6,52.7c-2.6,14.3-5.7,28.4-7.8,42.8c-1.5,9.9,2.2,19.3,5,28.7
c2.2,7.3,4.7,14.6,7,21.8c0.3,1,0.5,1.9,0.8,2.9c-0.5,0.3-1,0.6-1.5,0.8c-1.9-3-4.7-5.9-5.7-9.2c-4.6-16.2-10.3-32.3-8.5-49.4
c1.1-10.9,4-21.6,6.3-32.3c4-19.3,8.1-38.6,12.2-57.8c0.1-0.4,0.4-0.8,0.6-1.2C930.7,735.2,931.1,735.3,931.6,735.3z"/>
<path class="st2" d="M624.6,618c-2,6.9-3.7,12.7-5.3,18.5c-1,3.5-2,7-3.1,10.6c-2.4,8.4-7.2,12.9-16.9,15.6
c3.9-13.1,7.6-26,11.5-38.8c0.4-1.2,2-2.3,3.2-2.8C617.1,620,620.2,619.3,624.6,618z"/>
<path class="st2" d="M519.9,626.6c3-1.1,5.7-2.5,8.4-3c1.3-0.2,3.1,1,4.4,2c0.7,0.6,0.8,1.9,1.2,2.9c3.2,8.7,6.4,17.4,9.8,26.5
c-3.8,0.8-7,1.7-10.3,2c-1.2,0.1-3.3-1.2-3.7-2.3C526.3,645.5,523.2,636.2,519.9,626.6z"/>
<path class="st2" d="M789.7,780.9c-6.7-18-12.9-34.8-19.2-51.6c8.8-2.2,10.2-1.5,12.6,6.1c2.8,9.2,5.4,18.5,8.6,27.6
C793.8,768.9,791.8,774.1,789.7,780.9z"/>
<path class="st2" d="M978.3,805.1c4.6,0.1,9.3,0.8,12-4.4c0.4-0.7,3.4-1,4.1-0.4c2.8,2.7,5.3,5.7,7.6,8.8
c0.3,0.5-1.3,3.2-2.5,3.7c-6.5,2.6-13.1,5.1-19.9,6.9c-4.5,1.2-12-7.9-10.5-12.4c0.3-0.9,1.8-1.9,2.8-2.1
C974,804.8,976.2,805.1,978.3,805.1z"/>
<path class="st2" d="M357.6,805c1.2,3.2,2.1,5.6,3.1,8.3c-4.5,4.5-9.6,7.9-17,4.4c-4.2-2-9-3.1-13.3-5.1c-3.8-1.7-4-3.7-1.3-6.8
c1.6-1.8,3.2-4,5.3-5c1.7-0.8,5.3-0.8,5.9,0.1c2.8,4.2,6.6,4.3,10.9,4.1C353.5,804.9,355.8,805,357.6,805z"/>
<path class="st2" d="M486.8,442.6c12.2,0,24.4,0,36.6,0c16,0,32.1,0,48.1,0c1.2,0,2.6-0.3,3.6,0.1c1.3,0.5,2.4,1.6,3.6,2.4
c-1.2,0.6-2.4,1.8-3.6,1.8c-6.9,0.2-13.7,0.1-20.6,0.1c-19.9,0-39.7,0-59.6-0.2c-2.9,0-5.8-1.5-8.7-2.3
C486.4,443.9,486.6,443.2,486.8,442.6z"/>
<path class="st2" d="M882.6,444.1c-2.7,0.9-5.4,2.7-8.1,2.7c-21.4,0.2-42.8,0.2-64.2,0.1c-1.3,0-2.6-1.3-3.9-2
c1.3-0.9,2.5-2.6,3.8-2.6c23.4-0.2,46.8-0.1,70.2-0.1c0.6,0,1.1,0.2,1.7,0.3C882.2,443,882.4,443.5,882.6,444.1z"/>
<path class="st2" d="M734.7,634.5c-8.9,0-16.8,0-24.7,0c-0.5,0-1.3,0-1.3-0.2c-0.5-3.9-1.2-7.7-1.2-11.6c0-1.2,2.3-3.2,3.6-3.3
c5.3-0.3,10.7-0.1,16,0.1c1.3,0.1,3.3,0.9,3.6,1.9C732.3,625.4,733.3,629.5,734.7,634.5z"/>
<path class="st2" d="M837.2,626.4c-3.3,9.5-6.4,18.6-9.7,27.6c-0.5,1.3-2.2,3.1-3.2,3.1c-2.8-0.1-5.5-1.1-8.3-2
c-0.2-0.1-0.2-1.7,0.1-2.5c3.2-8.9,6.5-17.8,9.8-26.6c1-2.6,2.9-3.3,5.5-2.1C833.3,624.8,835.1,625.5,837.2,626.4z"/>
<path class="st2" d="M750.2,626.1c5.7,2.5,8.8,5.8,10.3,11.2c4.2,15.3,8.9,30.5,13.4,45.7c-0.4,0.3-0.9,0.5-1.3,0.8
c-3.4-5.3-7.8-10.3-9.9-16.1C758,654.3,754.4,640.5,750.2,626.1z"/>
<path class="st2" d="M877.9,640c0.2,1.7,0.6,3.4,0.6,5.2c0,8.8,0.2,17.7-0.3,26.5c-0.2,3.2-1.5,6.5-2.8,9.5
c-1.6,3.8-4.6,0.8-6.8,0.7c-1,0-2.3-1.8-2.7-3c-0.4-1.2-0.1-2.7,0.3-4c2.8-10.6,5.8-21.1,8.7-31.7c0.3-1.2,0.9-2.3,1.4-3.4
C876.8,639.8,877.3,639.9,877.9,640z"/>
<path class="st2" d="M832.8,683.1c-14.3,3.5-25.4-0.5-34.3-12c8.4,0.1,16.7-2.3,23.6,5.3C824.8,679.3,829,680.7,832.8,683.1z"/>
<path class="st2" d="M421.8,908c-5.9,1-11.8,2.3-17.7,3c-3.1,0.3-5.6-1.4-6-4.9c-0.4-3.6-0.6-7.3-0.9-10.9
c0.5-0.2,1.1-0.4,1.6-0.6c1.8,1.7,3.6,3.5,5.5,5.1c1,0.8,2.2,1.6,3.4,2c4.7,1.4,9.5,2.7,14.2,4.1
C421.9,906.4,421.9,907.2,421.8,908z"/>
<path class="st2" d="M591.5,652.1c-10.2,0.1-20.6-1.9-29.3,5.6c-0.2-0.4-0.3-0.8-0.5-1.2c1.9-1,3.7-2.1,5.6-3.1
c8.6-4.7,17-9.6,25.7-14.1c2.3-1.2,5.2-1.4,7.8-1.8c0.7-0.1,2.3,1.1,2.3,1.5c-0.2,1-1,2-1.7,2.8c-0.3,0.4-1.1,0.3-1.7,0.5
C593.6,643.5,591.9,645.4,591.5,652.1z"/>
<path class="st2" d="M964.1,833.1c-5,0-11.5,0-18,0c-0.3,0-0.8,0.1-0.9-0.1c-2.2-3.5-4.3-7.1-6.4-10.7c-0.1-0.2,0.7-1.3,1.3-1.6
c2.6-1.3,10,0.4,12.3,2.5C956.7,826.9,961,830.4,964.1,833.1z"/>
<path class="st2" d="M976.4,843.5c-2.5-0.6-4.4-1.4-6.4-1.4c-2.3,0-4.5,0.7-6.8,1.1c-7,1.4-13.9-0.7-20.1-6.2
c1.1-0.4,2-0.9,2.9-0.9c8.6,0.3,17.1,0.5,25.7,1C976,837.5,977.4,840.2,976.4,843.5z"/>
<path class="st2" d="M907.9,906.3c7-3.9,14.1-7.7,22.2-12.2c-0.5,4.3-0.7,8.7-1.7,12.8c-0.3,1.3-2.8,3-4.2,2.9
c-5.5-0.3-10.9-1.3-16.3-2C907.9,907.3,907.9,906.8,907.9,906.3z"/>
<path class="st2" d="M391,837.2c-6.3,2.9-11.1,7.4-18.1,5.7c-1.9-0.5-3.9-1-5.8-1.1c-1.8,0-3.6,0.6-5.8,1
c-1.3-3.3,1-5.7,4.5-6.1c7.7-0.8,15.5-0.8,23.2-1.1C389.3,835.6,389.7,836.1,391,837.2z"/>
<path class="st2" d="M873.6,949.2c1.1,2.3,2,4.1,3.1,6.4c-5.1,2.5-9.8,5.8-14.9,7c-2.6,0.6-6-2.4-9.1-3.8c0-0.5,0-1,0-1.4
C859.5,954.8,866.3,952.1,873.6,949.2z"/>
<path class="st2" d="M568.9,743c-5.2-1.6-9.9-3.1-15.2-4.8c4.4-2.2,8.4-4.3,6.8-9.9c4.2,0,8.1,0,12.8,0
C571.7,733.4,570.4,738,568.9,743z"/>
<path class="st2" d="M1002.3,756.4c-21.2-2.8-42.5-5.3-63.6-9.2c0.1-0.8,0.3-1.7,0.4-2.5C960.3,747.9,981.4,751.5,1002.3,756.4z
"/>
<path class="st2" d="M756.7,879.4c4.2,4.9,8.4,9.9,12.5,14.9c0.5,0.6,0.8,1.4,0.8,2.1c0,2.2-0.1,4.4-0.4,6.5
c0,0.3-2.3,0.7-2.3,0.6c-0.8-2-1.8-4-2-6.1c-0.4-5.5-3.5-8.5-8.9-8.6c-1.8,0-3.5-1.3-5.7-2.2
C753.1,883.7,754.7,881.7,756.7,879.4z"/>
<path class="st2" d="M388.2,747.3c-18.1,2.7-36.3,5.3-54.4,8c-0.1-0.5-0.1-0.9-0.2-1.4c18.1-3.1,36.1-6.9,54.3-9.2
C388,745.6,388.1,746.4,388.2,747.3z"/>
<path class="st2" d="M794.2,728.4c1.9,3.8,3.4,6.6,5.1,9.9c-2.9,1-6.2,2.2-9.5,3c-2,0.5-5.4-5.6-5.2-10.2c0-0.9,2.2-2.3,3.6-2.5
C790.4,728.1,792.7,728.4,794.2,728.4z"/>
<path class="st2" d="M940.6,797.7c7,0,15-0.2,22.9,0.1c7.8,0.3,15.5,1.1,23.2,1.7c0.2,0.4,0.3,0.8,0.5,1.2
c-1.2,0.6-2.4,1.6-3.6,1.7c-5.3,0.2-10.7,0.1-16,0.1c-0.6,0-1.4,0-1.8-0.3C957.8,796.4,948.3,799.8,940.6,797.7z"/>
<path class="st2" d="M313.7,691.8c5.8,19.2,11.6,38.4,17.7,58.4C327.4,747.6,315.7,707.2,313.7,691.8z"/>
<path class="st2" d="M1015,694.7c-3.9,18.6-8.7,37.2-14.9,55.3c-0.7-0.2-1.4-0.4-2.1-0.6C1003.7,731.2,1009.3,713,1015,694.7z"
/>
<path class="st2" d="M389.8,798.1c-5.7,0-10.9-0.1-16,0c-2.1,0.1-4.6,0.1-6.2,1.1c-6.9,4.5-14.5,2.3-21.9,2.6
c-0.9,0-1.9-1-2.8-1.5c0.1-0.6,0.2-1.1,0.2-1.7c15.3-0.6,30.6-1.2,45.9-1.8C389.1,796.8,389.2,797.2,389.8,798.1z"/>
<path class="st2" d="M533.1,938.6c-3.5,4-11.8,4.6-14.6,2c-1.6-1.5-1.1-6.4,1.1-7c3.3-0.9,6.9-2.8,9.3,1.9
C529.6,936.9,531.7,937.6,533.1,938.6z"/>
<path class="st2" d="M933.8,805.2c10.8,0.7,21.6,1.4,32.4,2c0.1,0.5,0.1,1,0.2,1.6c-1,0.4-2,1.1-2.9,1
c-8.8-0.4-17.6-0.9-26.4-1.6c-1.3-0.1-2.5-1.2-3.8-1.8C933.5,806.1,933.6,805.6,933.8,805.2z"/>
<path class="st2" d="M552.8,894.4c2.3,1.7,4.4,3.7,6.8,5c2.7,1.5,3.4,3.7,0.9,5.4c-3.1,2.1-6.5,3.8-11.1,6.5
C550.7,904.5,551.8,899,552.8,894.4z"/>
<path class="st2" d="M573.6,873.7c0.8,3.4,1.8,6.5-2.3,8.4c-3.8,1.8-6.2,4.8-5.9,9.4c0.1,1.2-0.1,2.5-0.7,3.5
c-0.5,0.9-1.8,1.9-2.6,1.8c-0.8-0.2-2-1.6-2-2.5c0-2.1,0.6-4.2,1.2-6.2c0.2-0.8,1.1-1.5,1.7-2.2
C566.5,881.9,570,877.8,573.6,873.7z"/>
<path class="st2" d="M943.1,917.1c3.7,0.2,5.9,1.8,5.9,5.6c0.1,3.4-2.2,5.9-5.7,5.7c-3.3-0.2-5.5-1.8-5.6-5.3
C937.6,919.4,939.6,917.4,943.1,917.1z"/>
<path class="st2" d="M381.5,916.8c4.4-0.1,6.8,1.6,6.8,5.3c0,3.3-1.7,5.5-5.3,5.5c-3.6,0-5.9-1.5-5.9-5.4
C377,918.8,378.6,916.8,381.5,916.8z"/>
<path class="st2" d="M801.1,944.2c0.5-0.9,0.8-1.5,1.2-2.2c2.1-4.4,7-6.1,11-3.3c1.1,0.7,1.5,4.1,0.8,5.4
C812.5,946.9,804.2,946.9,801.1,944.2z"/>
<path class="st2" d="M923,814.9c2.7,1.1,6,1.7,6.3,2.8c0.4,2.1-0.9,4.6-1.7,6.9c-0.4,1.3-1,2.5-1.7,3.6c-0.7,1-1.6,1.8-2.4,2.7
c-0.8-1.1-2.2-2.3-2.1-3.4C921.5,823.7,922.3,819.8,923,814.9z"/>
<path class="st2" d="M361,807.1c11.5-0.8,22.1-1.5,33.1-2.3C391.4,809.1,366.3,811.1,361,807.1z"/>
<path class="st2" d="M962.6,803.7c-11.6-0.4-23.2,0.5-34.4-3.1C939.7,801.1,951.4,800.3,962.6,803.7z"/>
<path class="st2" d="M449,930.3c0.5-1.3,0.6-1.8,0.9-2.2c4-6.5,4-6.5,10.2-2.3c2.7,1.8,5.3,3.5,8,5.3c0.1,0.1,0.1,0.3,0.2,0.8
C461.9,931.4,455.7,930.9,449,930.3z"/>
<path class="st2" d="M737.4,619.6c2.7-0.3,4.7-0.4,7.4-0.7c0.4,4.5,0.8,8.7,1,12.9c0,0.8-1.1,2.4-1.8,2.4
c-0.9,0.1-2.4-0.8-2.7-1.6C739.8,628.5,738.7,624.2,737.4,619.6z"/>
<path class="st2" d="M931.1,811.9c5.7,0,11.3,0,17.3,0c-0.5,3.5-1.2,5.7-4.7,5.6C932.3,817.3,932.8,817.8,931.1,811.9z"/>
<path class="st2" d="M380.3,811.5c6.2,0.4,12-2.6,16.7,2.5c-1.2,3.5-1.2,3.2-11,3.4C381.7,817.5,381.7,814.7,380.3,811.5z"/>
<path class="st2" d="M530.7,735.3c12.4,3.7,24.1,7.2,36.2,10.8c-0.7,1-0.9,1.5-1,1.5c-9.4-2.2-18.8-4.4-28.1-6.9
C535,740.1,531.1,740.9,530.7,735.3z"/>
<path class="st2" d="M1025.1,897.9c3.1,0.3,5.1,1.8,5,5.2c-0.1,3.3-1.7,5.1-5.1,5.2c-3.4,0.1-5.3-1.7-5.4-4.9
C1019.5,899.9,1021.7,898.2,1025.1,897.9z"/>
<path class="st2" d="M582.2,655.4c-7.4,4.9-14.8,8.2-24.2,5.9C566,658.6,572.7,652.9,582.2,655.4z"/>
<path class="st2" d="M304.3,897.6c3.5,0,5.3,1.5,5.4,4.9c0.1,3.4-1.8,5.1-5,5.2c-3.3,0-5.6-1.8-5.5-5.3
C299.2,899.2,301.1,897.4,304.3,897.6z"/>
<path class="st2" d="M399.7,801.8c-11.1,0.8-22.2,1.5-33.2,2.3c-0.1-0.6-0.1-1.2-0.2-1.8c10.9-2.4,22.2-1.2,33.2-2.8
C399.5,800.2,399.6,801,399.7,801.8z"/>
<path class="st2" d="M413.5,718.9c14.4-2.7,28.8-5.4,43.2-8.1c0.1,0.6,0.2,1.2,0.3,1.8c-14.5,2.4-29,4.9-43.6,7.3
C413.5,719.6,413.5,719.2,413.5,718.9z"/>
<path class="st2" d="M782.1,924.7c-5.7-2.2-8.9-6.4-11.5-11.5C777.5,911,782.9,916.5,782.1,924.7z"/>
<path class="st2" d="M767.9,906.9c5.7-1.5,10.6-3.6,7.6-11.2c0.5,0.1,1,0.2,1.6,0.3c1.1,5.2,2.1,10.4,3.3,16
c-4.5-1.5-8.3-2.7-12-3.9C768.1,907.7,768,907.3,767.9,906.9z"/>
<path class="st2" d="M876.4,702.8c7.3,1,14.5,2,21.7,3.2c0.7,0.1,1.3,1.3,2,2c-0.5,0.5-1.1,1.4-1.5,1.3
c-7.3-1.7-14.6-3.5-21.9-5.3C876.5,704,876.5,703.5,876.4,702.8z"/>
<path class="st2" d="M474.1,703.5c-10,1.6-20,3.2-30,4.8c-0.1-0.7-0.2-1.4-0.3-2.1c10-1.5,20.1-3,30.1-4.6
C473.9,702.3,474,702.9,474.1,703.5z"/>
<path class="st2" d="M355,823.3c-11.4,1.2-29.9-6.2-30.7-12.6C333,818.8,344.1,820.3,355,823.3z"/>
<path class="st2" d="M793.9,762c-0.8-2.8-1.9-5.6-2.4-8.5c-0.8-5.1,0.3-6,6.6-5.9c-1.1,4.9-2.1,9.6-3.2,14.3
C794.5,762,794.2,762,793.9,762z"/>
<path class="st2" d="M1005,811.8c-2.4,6.4-20.4,13-30.5,11.9C984.9,821.1,995.6,819.1,1005,811.8z"/>
<path class="st2" d="M741.2,654.2c3.9,2,7.7,4,11.6,6c-0.1,0.3-0.1,0.6-0.2,0.9c-3.5,0.3-7,0.6-10.5,0.8
c-2.9,0.2-3.8-1.3-2.8-4.3c1.5,0.4,2.9,0.8,4.3,1.2c0.2-0.3,0.4-0.7,0.5-1c-1.2-0.9-2.3-1.7-3.5-2.6
C740.9,654.9,741.1,654.5,741.2,654.2z"/>
<path class="st2" d="M740.6,644.7c-3-9.9-6-19.9-9-29.8c0.5-0.1,0.9-0.3,1.4-0.4c3,9.9,6,19.9,8.9,29.8
C741.5,644.4,741,644.6,740.6,644.7z"/>
<path class="st2" d="M753.2,867.3c-8.6-7.9-17.3-15.8-25.9-23.8c0.3-0.3,0.6-0.6,0.9-0.9c8.5,8.1,17,16.1,25.5,24.2
C753.5,867,753.4,867.1,753.2,867.3z"/>
<path class="st2" d="M919.6,719.3c-9.3-1.6-18.5-3.2-27.8-4.8c0.1-0.5,0.2-1.1,0.3-1.6c9.2,1.7,18.5,3.5,27.7,5.2
C919.7,718.5,919.6,718.9,919.6,719.3z"/>
<path class="st2" d="M923.8,714.4c-4-0.8-8-1.4-11.9-2.5c-1-0.3-1.6-1.9-2.5-2.9c1.3-0.4,2.9-1.4,3.9-1
c3.7,1.6,7.2,3.8,10.7,5.7C923.9,713.9,923.9,714.1,923.8,714.4z"/>
<path class="st2" d="M446.7,953.2c1.7-2.1,3.3-3.9,4.8-5.7c1,0.9,2.9,2.4,2.8,2.6c-1.4,2.3-3.1,4.5-4.7,6.7
C448.9,955.9,448.1,955,446.7,953.2z"/>
<path class="st2" d="M449.6,701.8c11.5-2,22.9-4,34.4-6c0.1,0.4,0.1,0.9,0.2,1.3c-11.4,1.8-22.9,3.5-34.3,5.3
C449.7,702.2,449.7,702,449.6,701.8z"/>
<path class="st2" d="M881.7,955.9c-3.5-1-4.7-3.9-4.8-7.1c0-0.6,2.4-1.3,3.7-1.9c1,2.7,2,5.5,3,8.2
C883,955.3,882.4,955.6,881.7,955.9z"/>
<path class="st2" d="M606,838c-7.6,7-15.3,14-22.9,21c-0.1-0.1-0.2-0.2-0.3-0.3c7.6-7.1,15.1-14.3,22.7-21.4
C605.7,837.6,605.9,837.8,606,838z"/>
<path class="st2" d="M400.1,802.5c1.1,1.5,1.5,1.9,1.7,2.5c0.5,1.6,0.8,3.2,1.5,6.3c-3-0.8-5.3-1.4-7.5-1.9
C397.1,807.2,398.5,805.1,400.1,802.5z"/>
<path class="st2" d="M766.2,642.6c3.7,0.7,7.4,1.4,11.2,2.2C772.4,648.4,768.1,647.5,766.2,642.6z"/>
<path class="st2" d="M536.9,728.2c3.9,0,7.9-0.3,11.7,0.2c0.8,0.1,1.2,2.9,1.6,3.8c-4.5-1.1-8.9-2.1-13.3-3.1
C537,728.8,537,728.5,536.9,728.2z"/>
<path class="st2" d="M772.1,660.9c2-0.4,4.1-0.9,6.1-1.3c0.5-1.4,1-2.8,1.5-4.2c0.4-0.1,0.9-0.3,1.3-0.4
c0.9,2.2,1.8,4.3,3.1,7.4c-4.5-0.4-8.2-0.7-11.9-1C772.2,661.2,772.1,661,772.1,660.9z"/>
<path class="st2" d="M705.7,1004.8c-0.9-4.7-1.8-9.4-2.7-14.1c0.6-0.1,1.3-0.2,1.9-0.4c0.9,4.7,1.9,9.4,2.8,14.1
C707.1,1004.6,706.4,1004.7,705.7,1004.8z"/>
<path class="st2" d="M923.8,810.8c1.1-3.6,1.7-5.7,2.7-9.3c1.8,2.8,3,4.6,4.2,6.4C928.9,808.7,926.9,809.5,923.8,810.8z"/>
<path class="st2" d="M398.9,826.5c-1-3.6-2.4-7.3,2.3-10.5C401.2,820.2,403.1,824,398.9,826.5z"/>
<path class="st2" d="M892.9,702.5c-8.3-1.3-16.6-2.6-24.9-3.9c0.1-0.4,0.1-0.8,0.2-1.1c8.3,1.5,16.6,2.9,24.8,4.4
C892.9,702.1,892.9,702.3,892.9,702.5z"/>
<ellipse class="st2" cx="383.8" cy="793.9" rx="18.3" ry="0.4"/>
<path class="st2" d="M624.5,993.8c0.8-4.7,1.5-9.4,2.3-14c0.6,0.1,1.3,0.2,1.9,0.3c-0.8,4.7-1.7,9.3-2.5,14
C625.6,994,625.1,993.9,624.5,993.8z"/>
<path class="st2" d="M558.4,910.4c-3.2,2.6-6.4,5.1-9.6,7.7c-0.4-0.5-0.8-1.1-1.2-1.6c2-4.2,7-4.3,10-7.1
C557.8,909.7,558.1,910,558.4,910.4z"/>
<path class="st2" d="M864.8,689c2.3,0.5,4.6,0.9,6.8,1.4c-0.3,0.9-0.6,2.6-1,2.7C868.2,693.4,865.4,693.9,864.8,689z"/>
<path class="st2" d="M621.7,644.6c8.1-1.1,9.1-0.8,10.6,4.3C628.4,647.3,625.2,646,621.7,644.6z"/>
<path class="st2" d="M937.1,823.6c-1.2,1.5-1.9,2.6-2.7,3.6c-0.7-1.1-1.9-2.3-1.9-3.5c-0.1-1.1,1-2.3,1.6-3.4
C934.9,821.3,935.8,822.2,937.1,823.6z"/>
<path class="st2" d="M579.8,883.8c-1.1-1.4-2.1-2.7-3.2-4.1c1.1-0.7,2.4-2,3.4-1.8c3.5,0.6,1.8,3,1.4,4.8
C580.9,883.1,580.3,883.4,579.8,883.8z"/>
<path class="st2" d="M975.7,853.8c-2.2-1.1-4.4-2.1-6.5-3.2c0-0.5,0-1,0.1-1.4c1.5-0.2,3.3-0.9,4.5-0.3c1.3,0.6,2.1,2.3,3.2,3.6
C976.6,852.9,976.1,853.4,975.7,853.8z"/>
<path class="st2" d="M587.6,656.6c3.7-0.2,6.8-0.3,9.8-0.4c0,0.3,0.1,0.6,0.1,0.9c-2.4,1.2-4.8,2.4-7.7,3.8
C589.2,659.7,588.5,658.4,587.6,656.6z"/>
<path class="st2" d="M277.6,303.8c6.4,4.1,12.7,8.3,19.1,12.4c-0.2,0.3-0.4,0.6-0.6,0.9c-6.2-4.4-12.4-8.8-18.6-13.1
C277.5,303.9,277.6,303.8,277.6,303.8z"/>
<path class="st2" d="M434.9,699.8c-1.9-6.1-3.8-12.1-5.7-18.2c0.2-0.1,0.4-0.1,0.7-0.2c2,6,4,12,6,18.1
C435.6,699.6,435.3,699.7,434.9,699.8z"/>
<path class="st2" d="M915.1,680.8c-2,6.3-3.9,12.6-5.9,18.9c-0.3-0.1-0.6-0.2-1-0.3c2.1-6.2,4.1-12.4,6.2-18.7
C914.6,680.7,914.9,680.8,915.1,680.8z"/>
<path class="st2" d="M496.5,688c1-4.4,5.3-2.5,8.5-2.7c-2.5,1.4-5,2.7-7.5,4.1C497.2,688.9,496.9,688.5,496.5,688z"/>
<path class="st2" d="M773.2,640.5c-3.2-0.3-6.4-0.5-9.6-0.8c0.1-0.8,0.2-1.6,0.3-2.4c3.2,0.5,6.3,1,9.5,1.6
C773.4,639.4,773.3,640,773.2,640.5z"/>
<path class="st2" d="M710.2,1007.8c-0.4-4.4-0.7-7.7-1.2-12.1C711.2,999.8,713.3,1002.9,710.2,1007.8z"/>
<path class="st2" d="M357.9,819c2.7-0.6,4.1-5,8.1-1.4c-2.6,0.9-5.1,1.8-7.7,2.7C358.2,819.8,358.1,819.4,357.9,819z"/>
<path class="st2" d="M954.3,794.4c-7.9,0-15.8,0-23.7,0c0-0.1,0-0.2,0-0.3c8,0,16,0,23.9,0C954.4,794.2,954.3,794.3,954.3,794.4
z"/>
<path class="st2" d="M485.5,688.1c-1.8,1-3.6,2.1-5.5,2.8c-0.8,0.3-2-0.2-3-0.3c0.7-0.7,1.2-1.9,2.1-2.1c2-0.6,4.1-0.7,6.2-1
C485.3,687.7,485.4,687.9,485.5,688.1z"/>
<path class="st2" d="M1085.3,299.3c-4.9,3.8-9.9,7.6-14.8,11.4c-0.2-0.3-0.4-0.6-0.6-0.9C1075,306.3,1080.2,302.7,1085.3,299.3
L1085.3,299.3z"/>
<path class="st2" d="M789.5,682.2c-3.1-2.9-6.2-5.8-9.3-8.7c0.3-0.4,0.7-0.7,1-1.1c3,2.9,6.1,5.8,9.1,8.7
C790,681.5,789.8,681.8,789.5,682.2z"/>
<path class="st2" d="M529.5,732.9c-0.9-1.7-1.4-2.7-2.4-4.4c2.3-0.2,4-0.4,7.1-0.6C532.2,730.1,531.2,731.2,529.5,732.9z"/>
<path class="st2" d="M750.7,639.6c-2.4,0-4.9,0-7.3,0c0-0.5,0-0.9,0-1.4c2.4,0,4.9,0,7.3,0C750.8,638.6,750.8,639.1,750.7,639.6
z"/>
<path class="st2" d="M964.3,816.4c3.7-1.3,4.7-0.7,8.4,4.4C970,819.4,967.4,818,964.3,816.4z"/>
<path class="st2" d="M479.5,336.9c-1.6-1.9-3.3-3.8-4.9-5.8c0.4-0.4,0.8-0.7,1.3-1.1c1.7,1.9,3.4,3.8,5.1,5.7
C480.5,336.1,480,336.5,479.5,336.9z"/>
<path class="st2" d="M433.9,721.6c-2.2,0.2-4.4,0.5-6.7,0.7c-0.1-0.5-0.2-1-0.3-1.5c2.1-0.5,4.3-1,6.4-1.6
C433.6,720.1,433.8,720.9,433.9,721.6z"/>
<path class="st2" d="M620.1,995.9c0.4-2.9,0.8-5.9,1.2-8.8c0.4,0,0.9,0.1,1.3,0.1c-0.2,2.9-0.4,5.9-0.6,8.8
C621.3,996,620.7,996,620.1,995.9z"/>
<path class="st2" d="M797.3,673.8c3.1,2.5,6.2,5,9.3,7.6c-0.2,0.3-0.5,0.6-0.7,0.9c-3.1-2.5-6.2-4.9-9.3-7.4
C796.8,674.5,797,674.2,797.3,673.8z"/>
<path class="st2" d="M312.4,900.7c-1.7-2-3.5-3.9-5.2-5.9c0.3-0.3,0.6-0.6,0.9-0.9c1.8,2,3.7,3.9,5.5,5.9
C313.3,900.1,312.8,900.4,312.4,900.7z"/>
<path class="st2" d="M832.9,979.7c0-2.4,0-4.8,0-7.2c0.4,0,0.8,0,1.2,0c0,2.4,0,4.8,0,7.3C833.7,979.8,833.3,979.7,832.9,979.7z
"/>
<path class="st2" d="M497.9,977c-0.1-2.6-0.2-5.1-0.4-7.7c0.5,0,1,0,1.6-0.1c0,2.6,0,5.1,0,7.7C498.7,977,498.3,977,497.9,977z"
/>
<path class="st2" d="M679.6,286.6c5.8,0,11.6,0.1,17.4,0c3-0.1,4.1,1.1,4,4.1c-0.4,9.3-0.5,18.6-1.1,27.9
c-0.1,1.2-1.9,3.1-3.1,3.2c-8,0.9-16,1.6-24,1.8c-3.6,0.1-7.2-1-10.7-1.8c-0.8-0.2-1.8-1.7-1.8-2.6c-0.7-9.4-1.2-18.9-1.9-28.3
c-0.2-3.3,1.3-4.3,4.3-4.2C668.3,286.7,673.9,286.6,679.6,286.6C679.6,286.6,679.6,286.6,679.6,286.6z"/>
<path class="st2" d="M945,100c-0.3,1.9,0.1,4.7-1.1,5.6c-1.9,1.5-4.8,1.9-7.2,2.8c-0.2-1.5-1.2-3.7-0.6-4.3
c2-1.9,4.6-3.2,6.9-4.8C943.7,99.5,944.3,99.7,945,100z"/>
<path class="st2" d="M363.1,106.5c-4.3,3.7-7.3,2.3-9.7-0.1c-1.2-1.2-1.5-3.3-2.2-5c0.6-0.5,1.1-1,1.7-1.4
C356.3,102.2,359.7,104.4,363.1,106.5z"/>
<path class="st2" d="M651.6,110.6c-2.4-2.6-4.9-4.2-4.7-5.6c0.2-1.7,2.7-4.6,3.8-4.4c1.9,0.2,4.1,2.3,5,4.1
C656.1,105.6,653.6,107.8,651.6,110.6z"/>
<path class="st2" d="M439.5,227.5c2.8,1,5.7,2,9,3.2c-4.1,4.1-6.9,3.3-9.6-1.6C439.1,228.5,439.3,228,439.5,227.5z"/>
<path class="st2" d="M880.5,226.9c-2,6.4-6.1,7.5-11.3,3.2C873.3,229,876.5,228.1,880.5,226.9z"/>
<path class="st2" d="M661.4,234.9c-2.1-1.9-3.5-3.3-4.9-4.6c1.6-0.9,3.2-2.3,4.9-2.4c1.4-0.1,2.9,1.5,4.4,2.3
C664.6,231.6,663.3,233,661.4,234.9z"/>
<path d="M597,699.6c5.1-2.7,10.3-5.2,15.1-8.3c7-4.5,14.2-6.9,22.5-4.8c1.6,0.4,3.4,0,5,0.2c3.4,0.4,5.7-0.8,6.5-4.2
c1.5-6.3,5.3-8.1,11.7-7.9c13.9,0.5,27.8,0.3,41.7,0.1c4.4-0.1,5.9,1.8,6.5,5.8c1.8,11.2-0.9,10.7,11.4,10.9
c1.5,0,2.9,1.1,4.4,1.7c-0.8,1.3-1.3,2.9-2.4,3.9c-3.5,3-7.4,5.5-10.6,8.7c-3.6,3.5-7.6,4-12.2,3.6c-14.3-1.2-28.6-2.5-42.9-3.5
c-16.3-1.1-32.6-1.9-48.9-2.9c-2.6-0.2-5.1-0.8-7.7-1.3C597.1,700.9,597,700.3,597,699.6z M690.8,677.3c-3.1,0-6.1-0.1-9.2,0
c-5.1,0.2-3.5,4.4-4,7.3c-0.6,3.1,1.2,3.9,4,4c6.7,0.4,13.4,1.2,20,1.5c0.9,0,2.7-1.7,2.8-2.7c0.2-9.2-0.9-10.2-9.9-10.1
C693.2,677.3,692,677.3,690.8,677.3z M603.4,698.9c11.4,3.6,22.1,0.8,32.8-1.1c0.9-0.2,2.2-2.1,2.2-3.1c0-1.7-0.8-4.9-1.5-5
c-5.1-0.5-10.7-1.7-15.3-0.2C615.1,691.4,609.4,695.6,603.4,698.9z M647.8,686.6c2.4,0.3,4.8,0.8,7.1,0.9
c3.7,0.2,7.4-0.2,11,0.4c8,1.2,8.2,1.2,9.1-6.7c0.3-2.7-0.4-4-3.3-4c-4.6,0.1-9.2,0-13.8,0C650.2,677.3,649.3,678.1,647.8,686.6
z M655,702.4c0,0.3,0.1,0.6,0.1,0.8c14.2,1,28.4,1.7,42.5,3.1c9.9,1,13.7-7.2,20.2-11.4c-7.9-1.1-15.9-3.4-22.2,3.6
c-1.4,1.6-3.3,2.9-5.2,3.7c-2.4,1-5.1,1.9-7.6,1.8C673.5,703.7,664.3,703,655,702.4z M694.6,692.8c0-0.4-0.1-0.9-0.1-1.3
c-7.8,0-15.6,0.3-23.4-0.1c-4.9-0.3-6.6,2.5-8.6,6.6c5.6,0.3,10.7-0.2,15.5,1.1C685.4,701,689.8,696.8,694.6,692.8z
M661.6,690.4c-5.5-0.3-10.8-0.4-16.1-0.8c-2.4-0.2-4.7-0.6-4.8,2.9c-0.1,3,0.2,5.5,4,6C651.9,699.6,658.1,698.6,661.6,690.4z"
/>
<path d="M560.4,695.8c-10.4,0-20.8,0.1-31.2-0.1c-1.3,0-2.9-0.8-3.7-1.8c-0.4-0.5,0.6-2.4,1.3-3.3c3.4-4.4,6.7-9,10.5-13.1
c1.3-1.5,3.9-2.4,6-2.4c12.8-0.6,25.7-0.8,38.5-1.2c3.2-0.1,6.4-0.2,9.6-0.5c7.4-0.6,6.9,2.2,7.9,7.7c0,0.1-0.1,0.3-0.1,0.4
c-2.7,15.5-1.9,12.6-14.5,13.1c-8.1,0.3-16.2,0.1-24.3,0.1C560.4,695.1,560.4,695.4,560.4,695.8z M535.9,689.3
c0-0.6,0-1.2,0-1.8c1.5-0.5,2.9-1.5,4.4-1.6c15.9-0.4,31.8-0.7,47.6-1.1c0.8,0,1.7-0.7,2.5-1.3c1.1-0.8,2.2-1.7,3.3-2.7
c0.9-0.8,1.6-1.8,2.3-2.8c-1-0.6-2.2-1.9-3.1-1.8c-5.2,0.7-11.1-1.8-15.6,3c-0.5,0.6-1.7,0.6-2.6,0.6c-7.2,0.6-14.3,1-21.5,1.7
c-3,0.3-5.8,0.4-5.3-3.8c-7.4,0.1-7.3,0.2-10.9,5.4c-0.8,1.1-1.9,1.9-2.9,2.9c-2,2-3.9,4-6.7,6.8c2.7,0.1,4.2,0.3,5.7,0.2
c7.8-0.2,15.6-0.5,23.4-0.7c11.5-0.3,23-0.6,34.4-1c4.3-0.1,5.7-2.9,3.9-6.4c-1.5,1.1-2.9,3-4.5,3.1c-16.5,1-33,1.8-49.4,2.5
C539.2,690.7,537.5,689.8,535.9,689.3z"/>
<path d="M680.9,651.2c-4.6,0-9.2,0.3-13.7-0.1c-2.1-0.2-5.2-1.2-5.7-2.7c-1.1-2.8,2.9-6.7,6.3-6.7c7.2-0.1,14.4,0,21.6,0
c2.1,0,4.3,0.1,6.4,0c4.3-0.2,5.1,2.5,5.1,5.9c0,3.5-2.7,3.6-5.2,3.6C690.7,651.3,685.8,651.2,680.9,651.2
C680.9,651.2,680.9,651.2,680.9,651.2z M663.9,646.7c0.3,0.5,0.5,1,0.8,1.5c4.2,0,8.5,0.1,12.7-0.1c0.8,0,1.5-1.4,2.3-2.1
c-0.7-0.6-1.5-1.6-2.2-1.7c-3.3-0.2-6.7-0.3-10,0C666.2,644.5,665.1,645.9,663.9,646.7z M690.6,648.2
C690.6,648.2,690.6,648.2,690.6,648.2c1.7-0.1,3.4,0.1,5-0.1c0.8-0.1,1.6-1,2.3-1.6c-0.7-0.8-1.4-2.1-2.2-2.2
c-3.3-0.3-6.7-0.3-10.1,0c-0.9,0.1-1.7,1.2-2.6,1.9c0.8,0.7,1.6,1.8,2.5,1.9C687.2,648.5,688.9,648.2,690.6,648.2z"/>
<path d="M822.2,614.2c-10.2,0-20.3,0-30.5,0c0-0.1,0-0.3,0-0.4c10.2,0,20.3,0,30.5,0C822.1,614,822.2,614.1,822.2,614.2z"/>
<path d="M789.5,941.3c0.5-4,1-7.9,1.4-11.9c0.5,0.1,1,0.1,1.5,0.2c-0.4,4-0.8,8-1.2,11.9C790.7,941.4,790.1,941.4,789.5,941.3z"
/>
<path d="M488.1,926c-1.5,1.4-2.5,2.7-3.7,3.1c-0.5,0.2-2.4-1.9-2.3-2.5c0.3-1.3,1.5-2.5,2.7-3.2
C485.3,923.2,486.7,924.8,488.1,926z"/>
<path d="M848,933c-1.3-2-2.6-3.2-2.6-4.4c-0.1-0.9,1.5-1.9,2.3-2.8c0.9,1.1,2.4,2,2.7,3.2C850.5,929.9,849.1,931.1,848,933z"/>
<path class="st2" d="M690.8,677.3c1.2,0,2.4,0,3.7,0c9,0,10.1,1,9.9,10.1c0,1-1.8,2.7-2.8,2.7c-6.7-0.3-13.4-1.1-20-1.5
c-2.8-0.2-4.6-0.9-4-4c0.5-2.8-1.1-7,4-7.3C684.7,677.2,687.7,677.3,690.8,677.3z"/>
<path class="st2" d="M603.4,698.9c6.1-3.3,11.8-7.4,18.2-9.5c4.7-1.5,10.2-0.3,15.3,0.2c0.7,0.1,1.5,3.3,1.5,5
c0,1.1-1.3,3-2.2,3.1C625.4,699.6,614.8,702.5,603.4,698.9z"/>
<path class="st2" d="M647.8,686.6c1.5-8.6,2.4-9.4,10.1-9.4c4.6,0,9.2,0.1,13.8,0c3-0.1,3.6,1.3,3.3,4c-0.9,8-1.1,8-9.1,6.7
c-3.6-0.6-7.3-0.2-11-0.4C652.6,687.4,650.2,687,647.8,686.6z"/>
<path class="st2" d="M655,702.4c9.2,0.6,18.5,1.3,27.7,1.7c2.5,0.1,5.2-0.8,7.6-1.8c1.9-0.8,3.8-2.2,5.2-3.7
c6.4-7,14.3-4.7,22.2-3.6c-6.5,4.2-10.3,12.4-20.2,11.4c-14.1-1.4-28.3-2.1-42.5-3.1C655.1,702.9,655.1,702.6,655,702.4z"/>
<path class="st2" d="M694.6,692.8c-4.8,3.9-9.2,8.1-16.7,6.2c-4.7-1.2-9.9-0.8-15.5-1.1c2-4.1,3.8-6.8,8.6-6.6
c7.8,0.4,15.6,0.1,23.4,0.1C694.5,692,694.5,692.4,694.6,692.8z"/>
<path class="st2" d="M661.6,690.4c-3.5,8.2-9.7,9.1-16.9,8.1c-3.7-0.5-4-3-4-6c0.1-3.6,2.3-3.1,4.8-2.9
C650.8,690,656.1,690.2,661.6,690.4z"/>
<path class="st2" d="M535.9,689.3c1.6,0.5,3.3,1.4,4.9,1.4c16.5-0.7,33-1.5,49.4-2.5c1.6-0.1,3-2.1,4.5-3.1
c1.9,3.5,0.5,6.2-3.9,6.4c-11.5,0.4-22.9,0.6-34.4,1c-7.8,0.2-15.6,0.5-23.4,0.7c-1.5,0-2.9-0.1-5.7-0.2
c2.7-2.8,4.7-4.8,6.7-6.8c1-1,2.2-1.8,2.9-2.9c3.6-5.2,3.5-5.3,10.9-5.4c-0.5,4.2,2.3,4.1,5.3,3.8c7.2-0.6,14.3-1.1,21.5-1.7
c0.9-0.1,2.1-0.1,2.6-0.6c4.5-4.8,10.4-2.3,15.6-3c0.9-0.1,2.1,1.2,3.1,1.8c-0.8,0.9-1.5,1.9-2.3,2.8c-1,1-2.1,1.9-3.3,2.7
c-0.8,0.5-1.6,1.3-2.5,1.3c-15.9,0.4-31.8,0.7-47.6,1.1c-1.5,0-2.9,1-4.4,1.6C535.9,688.1,535.9,688.7,535.9,689.3z"/>
<path class="st2" d="M663.9,646.7c1.2-0.8,2.3-2.2,3.5-2.3c3.3-0.3,6.7-0.2,10,0c0.8,0,1.5,1.1,2.2,1.7
c-0.8,0.7-1.5,2.1-2.3,2.1c-4.2,0.2-8.4,0.1-12.7,0.1C664.4,647.7,664.2,647.2,663.9,646.7z"/>
<path class="st2" d="M690.6,648.2c-1.7,0-3.4,0.2-5-0.1c-0.9-0.2-1.7-1.3-2.5-1.9c0.9-0.7,1.7-1.8,2.6-1.9
c3.3-0.2,6.7-0.2,10.1,0c0.8,0.1,1.5,1.4,2.2,2.2c-0.8,0.6-1.5,1.5-2.3,1.6C694,648.3,692.3,648.2,690.6,648.2
C690.6,648.2,690.6,648.2,690.6,648.2z"/>
</g>
<path d="M1369.6,98.8c2.9-2.1,5.9-4.2,8.8-6.3c0-0.6,0-1.2,0-1.8c-1.6,0.8-3.3,1.4-4.8,2.5c-1.8,1.3-3.6,2.6-5.5,3.9 M1368.3,97
c-60.5,43.3-121.1,86.7-181.6,130.1c-32.5,23.3-64.9,46.6-97.4,69.8c-1.2,0.9-2.6,1.6-3.9,2.3c-4.9,3.8-9.9,7.6-14.8,11.4
c-0.2-0.3-0.4-0.6-0.6-0.9c5.1-3.5,10.3-7,15.4-10.5c11.4-8.5,22.8-17,34.3-25.3c82-59.6,164.1-119.1,246.2-178.6
c4.2-3.1,8.5-6.2,12.7-9.2c0,0,0,0,0,0L1494,0.6l-1.5,0c0,0-13,9.5-28.2,20.7c-2.2,1.6-4.9,3.3-7.5,5.2
c-19.8,13.7-39.1,29-39.8,29.4c-1.2,0.9-26.8,20-26.8,20l-12.7,8.9l0,0c-1.8,1-3.5,2-5.2,3.2c-2.5,1.8-5,3.6-7.5,5.5
c-56.2,40.8-112.4,81.5-168.6,122.3c-100.8,73.2-201.7,146.3-302.5,219.5c-1.3,0.9-2.6,1.8-4.5,3.1c-0.1-2.2-0.2-3.5-0.2-4.9
c0-28.5,0.1-57-0.1-85.4c0-4.4,1.3-7.8,4-11.2c34.1-41.7,68.1-83.5,102.1-125.3c51.7-63.5,103.5-126.9,155.2-190.4
c5.5-6.7,10.7-13.7,16-20.5c-1.8,0-3.7,0-5.5,0c-36.8,45.5-73.5,90.9-110.3,136.4c-53.3,65.9-106.6,131.9-159.9,197.8
c-0.6,0.7-1.2,1.3-2.7,1.4c0.8-1.5,1.4-3.1,2.4-4.3c37.6-47.7,75.2-95.4,112.8-143.1c48.2-61.2,96.4-122.4,144.6-183.6
c1.1-1.4,1.9-3,2.9-4.6c-0.6,0-1.2,0-1.8,0c-30.9,39.2-61.9,78.3-92.8,117.5c-35.1,44.5-70.1,89-105.1,133.5
c-20.7,26.2-41.4,52.4-62,78.7c-2,2.6-4.1,3.6-7.4,3.6c-131.7,0-263.4,0-395.2-0.1c-2.1,0-4.1-1-6.2-1.6c0.1-0.7,0.2-1.3,0.3-2
c1.9-0.1,3.8-0.3,5.7-0.3c126.5,0,253-0.1,379.5,0.1c5.2,0,8.3-1.6,11.3-5.8c75.7-106.2,151.5-212.4,227.2-318.6
c1.1-1.6,2.1-3.3,3.2-5c-0.9,0-1.8,0-2.8,0c-0.8,1.3-1.4,2.7-2.3,3.9c-21.2,29.8-42.5,59.6-63.7,89.4
c-54.4,76.3-108.8,152.5-163.1,228.8c-2.3,3.3-4.7,4.8-9,4.8c-103.1-0.1-206.1-0.1-309.2-0.1c-26.9,0-53.9-0.1-80.8,0.2
c-4.6,0.1-7.6-0.6-10.7-4.3c-19.7-23.3-39.7-46.2-59.6-69.3c-30-34.7-60.1-69.5-90.1-104.2c-32.4-37.5-64.9-75.1-97.3-112.6
c-10.5-12.2-20.9-24.4-31.3-36.7c-0.9,0-1.8,0-2.8,0c8,9.3,15.9,18.6,23.9,27.9c41.7,48.3,83.4,96.7,125.1,145
c47.5,55,95.2,110,142.6,165.1c1.9,2.2,3.2,5.7,3.2,8.6c0.2,26.3,0.1,52.7,0.1,79c0,3.9,0,7.8,0,12.4c-2.1-1.2-3.1-1.7-4.1-2.4
C402.1,386,328.7,335.8,255.3,285.5c-83.5-57.1-167-114.3-250.5-171.4c-1.5-1-3.2-1.6-4.8-2.3c0,0.6,0,1.2,0,1.8
c27.6,18.8,55.2,37.5,82.7,56.4c63.7,43.5,127.3,87.1,191,130.7c1.4,0.9,2.6,2.1,3.9,3.1c6.4,4.1,12.7,8.3,19.1,12.4
c-0.2,0.3-0.4,0.6-0.6,0.9c-6.2-4.4-12.4-8.8-18.6-13.1c-14.3-9.5-28.6-18.9-42.7-28.5c-76.9-52-153.8-104-230.8-155.9
c-1.3-0.8-2.6-1.5-4-2.2c0,0.9,0,1.8,0,2.8c1.9,1.1,3.8,2,5.5,3.2c81.2,54.8,162.4,109.6,243.6,164.5
c77.7,52.6,155.4,105.2,233.1,157.7c3.6,2.4,4.9,5.1,4.8,9.4c-0.2,19.4-0.1,38.9-0.1,58.4c0,37.5-0.1,75,0.1,112.5
c0,4.6-1.4,6.9-6,7.1c-2.1,0.1-4.4,0-6.3,0.8c-1.6,0.6-2.9,2.3-4.3,3.5c1.1,0.8,2.3,1.6,3.3,2.5c1.1,1.2,2.6,2.4,3,3.9
c2.8,9.7,5.5,19.4,8,29.2c0.7,2.6,0.5,5.4,0.8,8c-11.4,2.7-11.4,2.7-15.4-7.2c-0.7-1.7-1.4-3.4-2.1-5.1
c-2.7-7.3-5.2-14.7-8.2-21.9c-3-7.4-6.3-8.3-13.6-6.2c-8.6,2.5-17.5,4.1-26.2,6.1c-1.8,0.4-3.6,0.8-5.1,1.8
c-0.9,0.6-1.7,2.4-1.5,3.4c0.2,1,1.9,2.4,2.8,2.3c3.6-0.2,4.2,2.1,4.9,4.8c3.3,12.7,6.8,25.4,10.1,38.1c0.5,2.1-0.2,4.6,0,6.8
c0.1,1.2,0.6,2.6,1.5,3.3c0.8,0.7,2.3,0.7,3.5,1.1c-2,1.9-2.1,2.3-2.4,2.4c-10.3,2.2-20.6,4.4-31,6.3c-1.2,0.2-3.5-1.5-4.2-2.9
c-2.7-5.8-5.1-11.8-7.4-17.8c-3.8-9.7-7.2-19.5-11.2-29.1c-3.4-8.2-8-10.1-16-7.4c-18.9,6.4-38.1,11.1-58,13.5
c-2,0.3-4.2,1.7-5.7,3.2c-0.8,0.8-1.1,3.1-0.6,4.1c0.5,0.9,2.6,1.8,3.7,1.5c4.6-0.9,5.8,1.5,6.7,5.3c3.9,16.5,8,33,12.1,49.4
c1.2,4.9,2.8,9.6,4.2,14.4c-0.9,0.6-1.6,0.8-2,1.2c-1.1,1.4-2.1,2.9-3.2,4.4c1.5,0.8,3,1.4,4.3,2.4c1.4,1,3.1,2.2,3.7,3.7
c1.4,4-0.7,6.2-4.4,8.1C256,806.1,187,841.7,118,877.2c-39.3,20.2-78.6,40.5-118,60.8c0,0.6,0,1.2,0,1.8c5-2.3,10-4.5,14.9-7
c74.1-38,148.1-76.1,222.2-114.2c29.4-15.1,58.8-30.3,88.2-45.4c1.2-0.6,2.4-1.1,3.7-1.7c0.4,0.2,0.8,0.4,1.2,0.7
c-1.6,4.1-2.8,8.4-4.8,12.4c-2.7,5.5-6,10.7-9.1,16c-5.6,9.6-2.8,19.7,7.1,24.9c5.5,2.9,11.3,5.3,17.4,8.1
c-1.2,1.1-2.1,2-3.2,2.8c-3.2,2.4-6.7,4.4-9.7,7c-14.3,13-31.4,18.9-50.3,22c-21.4,3.5-42.5,8.7-63.7,13.4
c-3.3,0.7-6.7,2.2-9.6,4c-23.1,14.1-46.2,28.3-69.1,42.8c-6.5,4.1-13.5,6.3-20.8,8C76.2,942.2,38.1,951.1,0,960
c0,0.9,0,1.8,0,2.8c40.7-9.5,81.3-18.9,122-28.4c2.9-0.7,5.8-1.9,8.4-3.5c23.4-14.3,46.8-28.4,69.9-43.3c8.1-5.2,16.8-7,25.7-8.9
c25-5.3,50-10.4,74.9-15.8c3-0.7,6.1-2.1,8.6-3.8c10.4-7.2,20.6-14.9,31-22.1c2-1.4,4.8-2.5,7.1-2.3c9.8,1.2,18.2-2,25.5-8
c5.9-4.9,13.3-3.8,19.9-5.8c0.4,1.4,1.5,3.1,1.1,4.2c-0.8,2.2-2.2,4.3-3.7,6.1c-0.8,1-2.4,1.6-3.7,1.7c-6.4,0.5-12.8,0.7-19.2,1
c-6.2,0.3-9.1,3.4-9.1,9.6c0,0.5,0,0.9,0,1.4c0.9,5.8-1.3,8.9-6.9,11.6c-16.1,7.6-31.7,15.9-47.5,24c-5.8,3-7.3,6-6.8,12.5
c0.2,2.4-0.2,4.9-0.5,7.3c-0.6,4.3,1.1,7.6,4.7,9.6c3.5,1.9,6.8,1,9.7-1.7c1.2-1.1,2.5-2.3,3.8-3.3c8.1-6.5,8.2-10.3-0.1-17.8
c24.8-10.7,49.2-21.3,74.6-32.2c-1.1,4.3-2,7.7-3,11.1c-2.7,9.9-4.6,20.1-8.4,29.5c-3.3,8.2-4,16.4-4,25c0,4.5,2,7.6,5.8,9.6
c3.7,1.9,7.1,0.7,9.5-2.3c3.7-4.6,9.9-7.8,9-15.3c6.8,2.6,13.3,1.5,18.9-1.1c9.8-4.5,18-1.6,26.1,3.6c2.8,1.8,5.6,3.6,8.6,5.6
c-2.6,4.6-4.6,9.1-10.2,10.1c-1.3,0.2-2.5,1.2-3.6,2c-3.8,3.1-6.2,19.8-3.5,23.8c0.4,0.6,0.9,1.5,1.5,1.7c3.9,1.1,7.9,3,11.6,2.5
c2.7-0.4,5.9-3.6,7.2-6.4c2.2-4.7,4.8-4.8,8.9-3.2c4.6,1.8,9.4,3,15.1,4.8c-2,1.5-3.2,2.5-4.4,3.3c-29,20.5-58,41-87,61.5
c-4,2.8-8.1,5.4-11.9,8.4c-1.6,1.2-2.3,3.5-3.5,5.2c0.6,0,1.2,0,1.8,0c4.2-3.4,8.3-6.9,12.7-10.2c9.4-7.1,18.8-14.2,28.5-20.9
c25.1-17.5,50.4-34.7,75.6-52.1c1.7-1.1,3.2-2.5,4.8-3.7c-0.3-0.5-0.6-0.9-0.9-1.4c-3.1,2-6,4.2-9.3,5.8
c-1.8,0.9-4.4,1.4-6.3,0.9c-11.2-3.1-22.3-6.7-33.4-10c-1.4-0.4-3-0.6-4.5-0.8c-0.1,0.4-0.3,0.8-0.4,1.2c1.1,0.9,2.1,1.7,3.8,3.1
c-1.7,2.4-3.4,4.8-5,7.2c-0.6-0.2-1.2-0.4-1.8-0.6c0-5.3-0.5-10.7,0.2-16c0.4-3.6,4.1-4.5,7.2-4.2c14.6,1.5,29.1,3.2,43.6,5.3
c3,0.4,5.6,2.9,8.3,4.5c0,0,0.3-1,0.2-2.1c-0.1-2.9,1.2-4,4.1-4.1c3.1-0.1,6.3-0.8,9.4-1.5c2.8-0.6,4.6-0.3,4.5,3
c-0.1,4.3,2.4,5.7,6.1,6.6c29.8,7.2,59.7,14.6,89.5,21.9c0.4,0.1,0.9,0.3,1.3,0.3c9.8,2.1,11.6,4.8,9,14.8
c-0.8,3.1-2.3,6-3.8,8.8c-0.4,0.6-3.4,0.7-3.4,0.5c-1-2.8-2.6-5.9-2.1-8.6c0.6-4-0.9-4.9-4.1-5.4c-12.8-2-25.7-4-38.5-6
c-16.6-2.6-33.2-5.3-49.8-7.7c-4.2-0.6-6-2.2-5.5-6.4c0.1-1.2-0.5-2.5-1.9-3.7c-0.3,1.1-0.9,2.1-0.9,3.2
c1,25.8,2.1,51.7,3.2,77.5c0,0.3,0.2,0.6,0.3,0.9c0.6,0,1.2,0,1.8,0c-0.4-11.3-0.7-22.6-1.1-33.9c-0.2-7.2-0.9-14.4-0.5-21.6
c0.2-4.1,2-8.1,3.4-12c0.3-0.7,2.4-1.1,3.6-0.9c24,3.7,48,7.5,72,11.3c4.8,0.8,9.6,1.5,14.8,2.4c-0.4,3.4-1,6.4-1.2,9.4
c-0.4,6.7,3.9,9.7,9.5,6.9c5.5,5.3,8.9,4.7,11.4-2.8c1.5-4.4,1.6-9.2,2.1-13.9c0.1-0.8-0.1-2.2-0.6-2.6c-6-3.9-8-11.5-17.2-13.1
c-17.5-3.1-34.5-9.1-52.8-14.1c2.1-0.8,3.3-1.4,4.7-1.8c12.2-4.2,24.3-8.4,36.5-12.4c3.3-1.1,5.4-2.9,6.2-6.5
c3.4-14.6,6.9-29.2,10.6-43.7c0.9-3.5-0.3-5.2-3.3-6.2c-5.3-1.9-10.6-3.8-16.6-5.9c1.6-2.3,2.8-4.1,4.1-5.9
c3.1-4.3,6.2-8.8,9.5-12.9c1.8-2.3,4.3-4,6.6-5.9c4-3.4,4.7-8.1,5-12.8c0.3-3.9-0.4-7.9,0.1-11.8c0.8-6.3,5.5-9.7,11.9-8.2
c15.9,3.9,31.7,8.3,47.4,12.6c1.1,0.3,2.4,2.4,2.4,3.6c0.1,8,0.1,15.9-0.3,23.9c-0.2,4.4,1.1,6.8,5.5,8
c10.5,2.9,20.8,6.3,31.2,9.2c4.2,1.2,7.4,3.1,9.9,6.7c3.4,4.9,7.3,9.1,14.4,6.4c1.3-0.5,3.6,1.4,6.5,2.7c-5.7,3.3-5.4,7.3-4,11.2
c3.4,9.6,6.9,19.3,10.9,28.6c1.5,3.4,1.3,4.7-2.1,6.1c-22.3,9-44.5,18.1-66.7,27.1c-6.9,2.8-6.9,2.8-7,10.4
c-0.3,18.8-0.6,37.6-0.9,56.5c0,2,0.2,4,0.3,5.9c0.6,0,1.2,0,1.8,0c0.4-20.7,1-41.3,1.1-62c0-4.5,1.3-6.7,5.6-8.4
c22.5-8.9,44.8-18.1,67.2-27.3c2.7-1.1,4.6-1.1,7,0.9c3.4,2.8,7.1,5.3,11.1,7.3c4,2.1,8.2,3.5,13.1,1.9c3.2-1,7-0.2,10.5-0.2
c0.1,0.4,0.1,0.8,0.2,1.3c-1.5,0.5-2.9,1-4.4,1.5c-24.7,7.7-49.3,15.4-74,23c-1.7,0.5-3.5,0.9-5.3,1.2
c-6.6,1.1-16.3,12.8-15.7,19.4c0.4,3.9,1.3,7.9,2.6,11.6c2.6,7,6.5,7.4,11.1,1.5c6.4,2.5,9.7,0.2,9.8-6.8c0-1.4,0-2.8-0.1-4.1
c-0.7-6-0.8-6.1,5.4-7.4c26.4-5.7,52.9-11.4,79.3-17.1c2.9-0.6,4.5-1,6,3.4c5.3,16.2,0.4,32.4,1,48.5c0.1,4,0,7.9,0,11.9
c0.6,0,1.2,0,1.8,0c0.7-13.1,1.5-26.3,2.1-39.4c0.5-11,0.7-22,1-33c0-1.7-0.3-3.4-0.4-5.1c-0.4,0-0.8,0-1.2-0.1
c-0.3,1-0.9,2.1-0.9,3.1c0.1,4.6-1.9,6.5-6.6,7.5c-29.2,6-58.2,12.5-87.4,18.6c-4.2,0.9-5,2.9-4.8,6.7c0.1,2.6-0.8,5.3-1.7,7.8
c-0.1,0.4-3.4,0.4-3.6-0.2c-1.8-3.8-3.8-7.8-4.5-11.9c-1.4-8.1,0.7-10.1,8.5-12.5c12.3-3.7,24.3-8.3,36.6-12
c18.4-5.5,37-10.6,55.6-15.7c3.6-1,6-2.5,6.5-6.6c0.1-1,2.1-2.6,3.2-2.6c4,0,7.9,0.3,11.8,1.1c1.1,0.2,2.5,2.2,2.6,3.4
c0.4,4.8,2.8,7.8,6.8,10.6c33,22.1,65.9,44.5,98.8,66.9c1.8,1.2,3.5,2.5,5.4,3.4c4.6,1.9,7.5,5.1,8.8,9.9c0.6,0,1.2,0,1.8,0
c-1-2.3-1.4-5.2-3.1-6.7c-4.4-3.7-9.4-6.7-14.1-10c-19.4-13.6-38.9-27.2-58.3-40.8c-5.5-3.8-11.1-7.5-16.6-11.2
c0-0.4,0-0.8,0.1-1.3c6.3-0.9,10.3-9.2,18.4-4.7c0.8,0.5,2.6-0.5,3.8-0.9c1.1-0.4,2.2-1.2,3.3-1.2c4.5,0.1,6-2.6,7.2-6.3
c0.6-1.9,2.1-4,3.7-4.9c6.8-3.8,13.8-7.2,20.9-10.6c3.6-1.7,4.4-3.6,1.9-7c-3.9-5.4-7.5-11-11.3-16.8c6,0,11.4,0,16.9,0
c-2.5,6.5,3.1,10.3,6.4,15c2.5,3.6,6.1,5.4,10.4,3.5c4-1.8,6.1-5.3,6.1-9.9c0.1-7.8-0.3-15.3-2.4-23c-2.8-10.1-3.7-20.7-5.4-31.1
c-0.6-3.5-0.9-7-1.6-11.8c25.1,11.4,48.7,22.1,72.7,32.9c-7.9,6.9-7.9,10.3-1,17c1.2,1.2,2.4,2.3,3.6,3.5
c2.6,2.8,5.7,4.4,9.4,2.4c3.7-1.9,5.7-5,5.5-9.3c-0.1-2.7-0.5-5.5-0.2-8.2c0.7-6.1-2.1-9.8-7.2-12.6c-14.5-7.6-28.9-15.4-43.4-23
c-2.5-1.3-3.4-2.9-3.4-5.7c0-5.4-0.4-10.7-0.7-15.1c8.8-3.5,18.4-6.5,27.3-11c9.7-4.9,13.1-15.2,7.2-24.8
c-3.5-5.7-6.6-11.7-9.8-17.6c-3.1-5.7-4.3-11.7-3.8-18.2c0.5-6,3.3-7.8,9-5.4c0.8,0.4,1.6,0.8,2.4,1.3
c56.3,30.8,112.5,61.5,168.8,92.3c54.1,29.6,108.2,59.3,162.3,88.8c12.2,6.7,24.5,13.1,36.8,19.7c0-0.6,0-1.2,0-1.8
c-1.5-1-3-2-4.6-2.9c-54-29.5-108-59.1-162-88.6c-54.5-29.8-109-59.7-163.6-89.5c-12.6-6.9-25.4-13.6-37.8-20.9
c-3.3-2-8.5-4-7.1-9.7c5.3-20.7,10.8-41.4,16.2-62.1c0.8-3,1.8-5.1,5.6-4.3c1.5,0.3,3.2-0.8,4.8-1.2c-0.6-1.9-0.7-4.2-1.9-5.6
c-1-1.2-3.2-1.8-4.9-2.1c-17.1-2.4-33.5-7.1-49.5-13.4c-7.1-2.8-11.2-1.3-14.8,5.4c-1.4,2.5-2.3,5.3-3.4,8
c-4.9,12.5-9.7,25.1-14.6,37.7c-1.8,4.6-6,6.1-10.3,3.8c-5.1-2.7-10.2-5.6-15.3-8.4c-3.3-1.8-4.3-4-3.2-7.9
c3.9-13.4,7.4-26.8,10.9-40.3c0.6-2.4,1.4-4.2,4.5-4c1.1,0.1,2.8-1.3,3.3-2.4c0.3-0.8-0.7-2.7-1.7-3.3c-1.5-0.9-3.4-1.3-5.1-1.8
c-7.3-2-14.8-3.7-22-6.1c-6.7-2.2-9.8-1.3-12.8,5.1c-1.1,2.3-1.8,4.9-2.7,7.3c-1.5,4-3,7.9-4.6,11.9c-0.2-0.1-0.5-0.2-0.7-0.3
c0-20.8,0-41.6,0-62.4c0-49.3,0-98.6-0.1-148c0-3.9,1.1-6.5,4.4-8.8c14.1-9.8,27.9-19.9,41.8-29.9
c120.4-86.2,240.7-172.4,361.1-258.6c27.1-19.4,54.1-38.7,81.2-58.1 M479.5,336.9c-1.6-1.9-3.3-3.8-4.9-5.8
c0.4-0.4,0.8-0.7,1.3-1.1c1.7,1.9,3.4,3.8,5.1,5.7C480.5,336.1,480,336.5,479.5,336.9z M451.5,947.6c1,0.9,2.9,2.4,2.8,2.6
c-1.4,2.3-3.1,4.5-4.7,6.7c-0.7-0.9-1.5-1.8-2.9-3.6C448.4,951.2,450,949.4,451.5,947.6z M626.8,979.7c0.6,0.1,1.3,0.2,1.9,0.3
c-0.8,4.7-1.7,9.3-2.5,14c-0.6-0.1-1.1-0.2-1.7-0.3C625.3,989.1,626,984.4,626.8,979.7z M621.9,996.1c-0.6,0-1.3-0.1-1.9-0.1
c0.4-2.9,0.8-5.9,1.2-8.8c0.4,0,0.9,0.1,1.3,0.1C622.3,990.2,622.1,993.1,621.9,996.1z M705.7,1004.8c-0.9-4.7-1.8-9.4-2.7-14.1
c0.6-0.1,1.3-0.2,1.9-0.4c0.9,4.7,1.9,9.4,2.8,14.1C707.1,1004.6,706.4,1004.7,705.7,1004.8z M710.2,1007.8
c-0.4-4.4-0.7-7.7-1.2-12.1C711.2,999.8,713.3,1002.9,710.2,1007.8z M490.1,336.4c128.6-0.1,257.2-0.1,385.8-0.2
c2.3,0,4.6-0.2,6.9,0c0.9,0.1,1.8,1.1,2.6,1.8c-0.9,0.7-1.9,2-2.8,2c-4.6,0.2-9.2,0.2-13.8,0.2c-61.4,0-122.8,0-184.2,0
c0,0,0,0.1,0,0.1c-64.9,0-129.8,0-194.7-0.1c-2,0-5.3,1.8-5.8-2C484,337.9,488,336.4,490.1,336.4z M486.3,444.5
c0.2-0.7,0.3-1.3,0.5-2c12.2,0,24.4,0,36.6,0c16,0,32.1,0,48.1,0c1.2,0,2.6-0.3,3.6,0.1c1.3,0.5,2.4,1.6,3.6,2.4
c-1.2,0.6-2.4,1.8-3.6,1.8c-6.9,0.2-13.7,0.1-20.6,0.1c-19.9,0-39.7,0-59.6-0.2C492,446.8,489.2,445.3,486.3,444.5z M584.6,569.9
c0.6,0,1.7,1.5,1.7,2.3c0.1,13.6,0.1,27.1,0.1,41.3c-15.2,0-29,0.1-42.7-0.1c-4.2-0.1-4.9-3.6-5-7c-0.1-8.9-0.1-17.8-0.1-26.6
c0-41.2,0-82.4,0-123.6c0-6.6,0.2-6.6,6.6-6.6c9,0.1,18,0,27.1-0.2c6.5-0.2,6.8-0.1,6.8,6.3c0,35.2,0,70.4,0,105.6
C579.1,565.4,578.4,569.8,584.6,569.9z M806.3,513.1c0-19.4,0.1-38.9-0.1-58.3c0-4.2,1.2-5.8,5.4-5.5c4.3,0.3,8.6,0.2,12.8,0
c3.4-0.2,4.6,1.2,4.5,4.6c-0.1,12.9,0,25.7,0,38.6c0,37.2,0,74.4-0.1,111.6c0,3.1-1,6.1-1.6,9.2c-0.1,0.4-0.3,0.9-0.2,1
c3.9,3.5,1.2,5.6-1.3,8.2c-1.5,1.6-2.5,3.8-3.3,5.9c-2.5,6.4-4.7,12.9-7.4,19.2c-0.5,1.1-2.7,2.4-3.9,2.2
c-8-1.3-15.9-2.9-23.9-4.5c-3.9-0.8-5.6-3.1-5.5-7.2c0.2-6.1,0.1-12.2,0-18.4c-0.1-3.4,0.3-6.2,5.3-5.9c-4.7-0.1-5-2.8-5-6
c0.1-11.3,0.2-22.6,0-34c0-3.5,1.3-4.5,4.6-4.4c4.4,0.2,8.9,0.1,13.3,0.1c5.4,0,6.1-0.6,6.2-6C806.3,546.8,806.3,530,806.3,513.1
z M830.6,455.6c-0.1-4.5,1.4-6.3,6.1-6.2c12.4,0.2,24.8,0.2,37.2,0c3.4,0,4.5,1.1,4.5,4.5c-0.1,22.3-0.1,44.7-0.1,67
c0,3.5,0,7,0,10.6c0,0,0.1,0,0.1,0c0,24.6,0,49.3,0,73.9c0,8.2,0,8.2-8.4,8.2c-11,0-22,0-33.1,0c-4.4,0-6.3-2.1-6.3-6.5
c-0.1-19.4-0.4-38.9-0.4-58.3c0-19,0.3-37.9,0.4-56.9C830.8,479.7,830.8,467.6,830.6,455.6z M898.5,709.3
c-7.3-1.7-14.6-3.5-21.9-5.3c-0.1,0-0.1-0.5-0.2-1.2c7.3,1,14.5,2,21.7,3.2c0.7,0.1,1.3,1.3,2,2
C899.5,708.5,898.9,709.4,898.5,709.3z M919.8,718.2c-0.1,0.4-0.2,0.7-0.2,1.1c-9.3-1.6-18.5-3.2-27.8-4.8
c0.1-0.5,0.2-1.1,0.3-1.6C901.3,714.7,910.6,716.4,919.8,718.2z M892.9,702.5c-8.3-1.3-16.6-2.6-24.9-3.9
c0.1-0.4,0.1-0.8,0.2-1.1c8.3,1.5,16.6,2.9,24.8,4.4C892.9,702.1,892.9,702.3,892.9,702.5z M842.2,624.4c-2.7-0.9-5.8-1-8.3-2.3
c-1.5-0.8-2.7-3.2-2.8-5c-0.1-0.8,2.7-2.5,4.3-2.6c6.4-0.3,12.8-0.1,19.3-0.1c6.3,0,12.5,0.1,18.8,0c3.4-0.1,5.2,0.9,4.9,4.6
c-0.2,3.5-0.2,7,0,10.5c0.2,3.5-1.6,4.5-4.5,3.8c-3.7-0.9-7.4-2-10.9-3.3c-6.3-2.4-9.2-1.3-11.7,5.2c-3.3,8.5-6.7,17.1-9.6,25.8
c-1.4,4.2-4,3.3-6.8,2.7c-3.8-0.8-2.1-3.7-1.7-5.5c2.2-8.6,4.5-17.1,7-25.6c0.4-1.2,1.7-2.1,2.6-3.1c0.7-0.8,2.3-2.1,2.1-2.5
C844.4,625.9,843.3,624.8,842.2,624.4z M843.4,662.9c3.2-8.7,6.6-17.4,9.8-26.1c2.2-6,3.7-6.7,9.5-4.3c2.9,1.2,5.9,2.2,9.1,3.3
c-4.1,11.9-8.2,23.4-12,35c-1.2,3.5-2.9,4.5-6.4,3.6c-4.1-1.1-8.3-1.7-13-2.6C841.5,668.6,842.4,665.7,843.4,662.9z M864.8,689
c2.3,0.5,4.6,0.9,6.8,1.4c-0.3,0.9-0.6,2.6-1,2.7C868.2,693.4,865.4,693.9,864.8,689z M868.6,681.9c-1,0-2.3-1.8-2.7-3
c-0.4-1.2-0.1-2.7,0.3-4c2.8-10.6,5.8-21.1,8.7-31.7c0.3-1.2,0.9-2.3,1.4-3.4c0.6,0.1,1.1,0.2,1.7,0.3c0.2,1.7,0.6,3.4,0.6,5.2
c0,8.8,0.2,17.7-0.3,26.5c-0.2,3.2-1.5,6.5-2.8,9.5C873.8,685,870.8,682,868.6,681.9z M831.5,623.9c1.8,0.8,3.6,1.6,5.7,2.5
c-3.3,9.5-6.4,18.6-9.7,27.6c-0.5,1.3-2.2,3.1-3.2,3.1c-2.8-0.1-5.5-1.1-8.3-2c-0.2-0.1-0.2-1.7,0.1-2.5
c3.2-8.9,6.5-17.8,9.8-26.6C827,623.4,828.9,622.7,831.5,623.9z M803.8,561.1c0,6,0,6.1-6.3,6c-27.4-0.1-54.8-0.2-82.1-0.3
c-7.6,0-15.3,0-22.9,0c0,0.1,0,0.2,0,0.2c-35.5,0-71-0.1-106.5,0.1c-4.4,0-4.1-2.5-4.1-5.4c0-32.9,0.1-65.8,0.1-98.7
c0-4.7,0.2-9.5-0.2-14.2c-0.3-4.4,1.5-5.5,5.5-5.5c24.6,0.1,49.3,0.1,73.9,0c45.4-0.1,90.9-0.3,136.3-0.4c6.1,0,6.1,0,6.1,6.1
C803.8,486.4,803.8,523.8,803.8,561.1z M781.1,641.4c-3.5-2-5.7-3.4-8-4.4c-2.5-1.1-5.1-1.6-7.6-2.5c-1.4-0.5-3.3-1-4.1-2.1
c-3.3-4.5-8.3-8.3-13.7-9.6c1-9.3-6.3-5.7-11.2-6.2c0.1-0.4,0.1-0.8,0.2-1.2c1-0.3,2.1-0.8,3.1-0.8c12.1,0,24.2,0.1,36.2,0
c3.7,0,5.2,1.5,5.1,5.3C781,626.5,781.1,633.2,781.1,641.4z M666.2,620.5c-0.1-3.2-1.7-4.4-5-4.4c-11.9,0-23.8,0-35.6-0.4
c-9.2-0.3-16.6,4.3-19,13.3c-1,4-2.6,5.9-7.1,5.7c-2.8-0.1-5.7,1.6-9.5,2.7c0-6.9-0.2-13.5,0.2-20c0.1-1,2.7-2.6,4.2-2.7
c11.5-0.2,23-0.2,34.4-0.1c16.2,0,32.4,0.1,48.7,0.1c15.3,0,30.6-0.1,46-0.2c1.8,0,3.7,0.4,5.5,0.6c0,0.5,0,1-0.1,1.6
c-5.5,0-11,0.3-16.5-0.1c-7.2-0.5-7.6-0.4-7.8,6.9c-0.2,10.9-0.2,10.9-10.9,10.9c-7.7,0-15.3-0.1-23,0.1
c-3.3,0.1-4.3-1.2-4.2-4.3C666.5,627,666.4,623.7,666.2,620.5z M663.4,634.3c-12.9,0-25.3,0-38,0c-0.2-0.7-0.5-1.3-0.5-1.8
c0.3-13.2,0.3-13.2,13.5-13.1c7,0.1,14.1,0,21.1-0.2c2.7-0.1,4,0.8,3.9,3.6C663.3,626.5,663.4,630.1,663.4,634.3z M591.5,652.1
c-10.2,0.1-20.6-1.9-29.3,5.6c-0.2-0.4-0.3-0.8-0.5-1.2c1.9-1,3.7-2.1,5.6-3.1c8.6-4.7,17-9.6,25.7-14.1c2.3-1.2,5.2-1.4,7.8-1.8
c0.7-0.1,2.3,1.1,2.3,1.5c-0.2,1-1,2-1.7,2.8c-0.3,0.4-1.1,0.3-1.7,0.5C593.6,643.5,591.9,645.4,591.5,652.1z M597.5,657
c-2.4,1.2-4.8,2.4-7.7,3.8c-0.6-1.1-1.2-2.4-2.2-4.2c3.7-0.2,6.8-0.3,9.8-0.4C597.4,656.4,597.5,656.7,597.5,657z M511.7,613.5
c-6.8,0-13.7,0-20.5,0c0-0.5,0-1-0.1-1.4c4.3,0,8.7,0,13,0c0-0.4,0-0.8,0-1.2c-3,0-6-0.2-8.9,0c-4.2,0.3-5.5-1.4-5.5-5.6
c0.1-30.3,0.1-60.6,0.1-90.9c0-19.6,0-39.2,0-58.8c0-5.8,0.1-5.9,5.9-5.8c12.1,0.1,24.2,0.2,36.3,0c4.2-0.1,5.6,1.5,5.6,5.6
c-0.2,19.4-0.3,38.9-0.4,58.3c0,12.1,0.2,24.2,0.3,36.3c0,17.4,0,34.9,0,52.3c0,8.9-0.2,17.8-0.3,26.3c-5.5-8-5.5-8-15.9-5.3
c-1.9,0.5-4,0.4-5.8,1c-1.3,0.4-2.4,1.6-3.6,2.4c0.8,0.9,1.6,1.9,2.4,2.8c0.8,0.9,2,1.5,2.3,2.5c2.6,9.1,5,18.3,7.5,27.4
c0.2,0.8,0,1.8,0,2.6c-0.3,0.3-0.5,0.6-0.8,0.6c-8.6,2.6-8.7,2.7-11.9-5.5c-2.5-6.4-4.9-12.9-7.2-19.3c-3.3-9-4.8-9.9-13.8-8.2
c-0.2-0.6-0.4-0.8-0.4-1.1c-1.2-14.1-1.2-14.1,12.7-14.2c9.8,0,19.6-0.1,29.4-0.1c0.2,0,0.4-0.2,1.3-0.8
C525.7,613.5,518.7,613.5,511.7,613.5z M519.9,626.6c3-1.1,5.7-2.5,8.4-3c1.3-0.2,3.1,1,4.4,2c0.7,0.6,0.8,1.9,1.2,2.9
c3.2,8.7,6.4,17.4,9.8,26.5c-3.8,0.8-7,1.7-10.3,2c-1.2,0.1-3.3-1.2-3.7-2.3C526.3,645.5,523.2,636.2,519.9,626.6z M538.6,617.8
c0.2-2.9,2-3.5,4.4-3.5c6.9,0,13.8,0,20.7,0c0,0,0,0,0,0c6.7,0,13.5,0,20.2,0c3.7,0,5.7,1.2,5.3,5.4c-0.3,3.3-0.1,6.7-0.1,10.1
c0,8.7-3,12.9-11.5,14.7c-10,2.1-20.1,3.7-30.2,5.3c-1,0.2-2.9-0.9-3.4-1.8C538.9,638.6,537.8,628.4,538.6,617.8z M582.2,655.4
c-7.4,4.9-14.8,8.2-24.2,5.9C566,658.6,572.7,652.9,582.2,655.4z M779.2,606.1c0.1,4.6-1.5,5.7-5.8,5.6
c-11.6-0.2-23.3,0-34.9-0.1c-18-0.1-36,0-54.1,0.6c-14.2,0.5-28.4-0.4-42.6-0.5c-15.7-0.1-31.4-0.1-47.2,0c-3.9,0-5.4-1-5.3-5.2
c0.3-10.4,0.3-20.8,0-31.2c-0.1-4.4,1.2-5.8,5.6-5.7c29.8,0.2,59.7,0.1,89.5,0.1c29.5,0,59.1,0,88.6,0c5.9,0,6,0.1,6,6.1
C779.1,585.9,778.9,596,779.2,606.1z M610.8,623.9c0.4-1.2,2-2.3,3.2-2.8c3-1.1,6.1-1.9,10.5-3.1c-2,6.9-3.7,12.7-5.3,18.5
c-1,3.5-2,7-3.1,10.6c-2.4,8.4-7.2,12.9-16.9,15.6C603.2,649.6,606.9,636.7,610.8,623.9z M711.1,619.4c5.3-0.3,10.7-0.1,16,0.1
c1.3,0.1,3.3,0.9,3.6,1.9c1.5,3.9,2.5,8.1,4,13c-8.9,0-16.8,0-24.7,0c-0.5,0-1.3,0-1.3-0.2c-0.5-3.9-1.2-7.7-1.2-11.6
C707.6,621.5,709.8,619.5,711.1,619.4z M731.6,614.9c0.5-0.1,0.9-0.3,1.4-0.4c3,9.9,6,19.9,8.9,29.8c-0.5,0.1-0.9,0.3-1.4,0.4
C737.6,634.8,734.6,624.9,731.6,614.9z M741.2,632.6c-1.4-4.1-2.5-8.3-3.8-13c2.7-0.3,4.7-0.4,7.4-0.7c0.4,4.5,0.8,8.7,1,12.9
c0,0.8-1.1,2.4-1.8,2.4C743.1,634.3,741.5,633.4,741.2,632.6z M743.5,638.2c2.4,0,4.9,0,7.3,0c0,0.5,0,0.9-0.1,1.4
c-2.4,0-4.9,0-7.3,0C743.5,639.1,743.5,638.6,743.5,638.2z M750.2,626.1c5.7,2.5,8.8,5.8,10.3,11.2c4.2,15.3,8.9,30.5,13.4,45.7
c-0.4,0.3-0.9,0.5-1.3,0.8c-3.4-5.3-7.8-10.3-9.9-16.1C758,654.3,754.4,640.5,750.2,626.1z M763.6,639.7c0.1-0.8,0.2-1.6,0.3-2.4
c3.2,0.5,6.3,1,9.5,1.6c-0.1,0.5-0.2,1.1-0.3,1.6C770,640.3,766.8,640,763.6,639.7z M777.4,644.8c-5,3.6-9.3,2.8-11.2-2.2
C770,643.3,773.7,644.1,777.4,644.8z M482.7,643.8c-0.8-2.4-1.7-4.8-2.8-7.7c5.1-1.6,10.2-3.5,15.5-4.7c1.3-0.3,4.1,1.2,4.6,2.5
c4.8,12.1,9.3,24.4,14.1,37.3c-6.7,1.3-12.8,2.5-18.9,3.4c-0.9,0.1-2.7-1.8-3.1-3.1C488.9,662.3,485.8,653.1,482.7,643.8z
M505,685.3c-2.5,1.4-5,2.7-7.5,4.1c-0.3-0.5-0.6-0.9-0.9-1.4C497.6,683.6,501.8,685.5,505,685.3z M545.3,665.6
c2.6-1.4,4.8-2.9,7.9-0.5c1.3,1.1,3.8,1,5.7,1c11.6,0.1,23.3,0.3,34.9,0c3.6-0.1,7.5-1.3,10.6-3.1c4.8-2.7,10.7-4.3,13-10.3
c0.3-0.7,2.1-1.1,3.2-1.2c2.9-0.2,5.8,0,8.7-0.1c2.4-0.1,5.3,0.6,5.8-2.9c0.4-3-2.9-6.7-6.1-6.9c-2.6-0.2-5.1,0-8.1,0
c0.1-4.7,2.8-4.3,5.2-4.3c13.9,0,27.9,0,41.8,0c20.8,0,41.7,0.1,62.5,0c3.5,0,5.3,0.8,6.7,4.5c2.1,5.4,5.7,9.8,12.7,8.9
c1-0.1,2,0,3.1,0c0,0.4,0,0.8,0,1.2c-3.7,0-7.3-0.1-11,0c-4,0.1-6.3,3.1-6,8c0.2,3.3,2.1,4.7,5.5,4.7c4.6-0.1,9.2,0.4,13.8,0.4
c2.7,0,3.6,1.4,5,3.6c4.1,6.4,8.5,12.6,13.6,18.2c1.4,1.6,5.3,1.4,8.1,1.4c15.9,0.1,31.9,0.2,47.8,0c2.5,0,5-1.5,7.2-2.2
c0-1.3,0.1-1.8,0-1.9c-7.3-5.2-14.6-10.4-22-15.3c-1.2-0.8-3.3-0.5-5-0.5c-11.2,0-22.4,0-33.5-0.1c-1.6,0-3.2-0.7-4.8-1.1
c0.1-0.6,0.2-1.3,0.3-1.9c3.7,0,7.5,0,11.2,0c4.4-0.1,5-1,3-4.7c-0.1-0.1-0.2-0.2-0.2-0.4c-0.7-9.2-7.8-7.9-13.8-8.4
c-1-0.1-2.1,0-4.4,0c5.8-3,12.9,1.8,16.8-4.9c23.6,15.4,48,31.2,72.4,47c11.5,7.5,23.1,14.9,34.6,22.6c1.8,1.2,2.9,3.5,4.3,5.3
c-2.1,0.9-4.2,2.4-6.4,2.5c-13.7,0.6-27.5,1.1-41.3,1.1c-71.5,0.1-143,0-214.5,0c-35.8,0-71.7,0-107.5,0c-19.1,0-38.3,0.1-57.4,0
c-5.7,0-11.3-0.5-16.9-1c-1.1-0.1-2.9-1.1-3-1.9c-0.1-1.3,0.5-3.2,1.5-3.9c2.7-2,5.7-3.5,8.7-5.2
C487.7,697.5,516.5,681.6,545.3,665.6z M621.7,644.6c8.1-1.1,9.1-0.8,10.6,4.3C628.4,647.3,625.2,646,621.7,644.6z M740.7,655.2
c0.2-0.3,0.3-0.7,0.5-1c3.9,2,7.7,4,11.6,6c-0.1,0.3-0.1,0.6-0.2,0.9c-3.5,0.3-7,0.6-10.5,0.8c-2.9,0.2-3.8-1.3-2.8-4.3
c1.5,0.4,2.9,0.8,4.3,1.2c0.2-0.3,0.4-0.7,0.5-1C743.1,656.9,741.9,656.1,740.7,655.2z M780.2,673.5c0.3-0.4,0.7-0.7,1-1.1
c3,2.9,6.1,5.8,9.1,8.7c-0.3,0.4-0.6,0.7-0.9,1.1C786.4,679.3,783.3,676.4,780.2,673.5z M806.6,681.4c-0.2,0.3-0.5,0.6-0.7,0.9
c-3.1-2.5-6.2-4.9-9.3-7.4c0.3-0.4,0.5-0.7,0.8-1.1C800.4,676.3,803.5,678.9,806.6,681.4z M798.6,671.1
c8.4,0.1,16.7-2.3,23.6,5.3c2.6,2.9,6.8,4.3,10.7,6.7C818.5,686.6,807.4,682.6,798.6,671.1z M772.1,660.9c2-0.4,4.1-0.9,6.1-1.3
c0.5-1.4,1-2.8,1.5-4.2c0.4-0.1,0.9-0.3,1.3-0.4c0.9,2.2,1.8,4.3,3.1,7.4c-4.5-0.4-8.2-0.7-11.9-1
C772.2,661.2,772.1,661,772.1,660.9z M770.5,729.2c8.8-2.2,10.2-1.5,12.6,6.1c2.8,9.2,5.4,18.5,8.6,27.6c2.1,6,0.1,11.2-2,18
C783,762.9,776.8,746.1,770.5,729.2z M788,788.8c-2.9,11.1-6,22.1-9.1,33.2c-0.1,0.4-0.5,0.7-1,1.5c-5.3-6.1-10.5-12.1-15.8-18
c-9.4-10.5-18.8-21-28.4-31.3c-4.4-4.7-9.1-9.2-16.7-7.7c-0.7,0.1-2.5-1.7-2.5-2.7c-0.2-10.7-0.2-21.4,0-32.1
c0-1.1,2.1-3.1,3.2-3.1c15.6-0.2,31.2-0.2,46.8,0c1.4,0,3.5,1.5,4,2.8c6.6,17.1,12.9,34.3,19.2,51.6
C788.4,784.7,788.5,787,788,788.8z M791.5,753.5c-0.8-5.1,0.3-6,6.6-5.9c-1.1,4.9-2.1,9.6-3.2,14.3c-0.3,0-0.7,0-1,0.1
C793.1,759.2,792,756.4,791.5,753.5z M789.9,741.3c-2,0.5-5.4-5.6-5.2-10.2c0-0.9,2.2-2.3,3.6-2.5c2.2-0.4,4.6-0.1,6.1-0.1
c1.9,3.8,3.4,6.6,5.1,9.9C796.4,739.2,793.2,740.4,789.9,741.3z M711.9,763.5c0,2.5-0.5,3.8-3.4,4.3c-5,0.9-7.7,4.3-7.7,9.4
c0,3.2-1.6,4.2-4.6,4.1c-15-0.1-30-0.1-45,0c-3.5,0-4.5-1.4-4.4-4.7c0.1-14.5,0.1-29.1,0-43.6c0-3.6,1.4-4.8,4.9-4.8
c9.3,0.1,18.7,0,28,0c9,0,18.1,0.1,27.1,0c3.7-0.1,5.2,0.9,5.1,4.9C711.7,743.3,711.8,753.4,711.9,763.5z M551.7,806.2
c7.1-23.5,14.6-46.9,21.9-70.4c2.6-8.3,3.7-8.9,13.3-6.6c-11.2,29.3-22.4,58.4-33.7,87.6c-0.7-0.1-1.4-0.2-2.1-0.3
C551.3,813,550.7,809.4,551.7,806.2z M556.7,835.1c6.1,1.2,8.5-3.6,11.7-6.7c2.4-2.3,4.8-3.4,8.1-3.2c7.3,0.4,14.7,0.3,22,0.7
c1.5,0.1,2.9,1.1,4.3,1.9c1.6,0.9,3.1,2,5,3.2c-17.2,18-34.5,36.1-51.8,54.2c-0.4-0.2-0.8-0.4-1.2-0.6
C557.6,868.3,559.8,852,556.7,835.1z M574.2,822.7c12.2-13.8,23.4-26.4,34.6-39.1c0.3,0.1,0.7,0.1,1,0.2c-1,7.4-2,14.8-3,22.2
c0,0.2-0.1,0.3-0.1,0.4c-1.1,4.2-0.9,10.4-3.6,12.2c-4.4,2.9-10.6,3.2-16.2,4C583.2,823.2,579.4,822.7,574.2,822.7z M606,838
c-7.6,7-15.3,14-22.9,21c-0.1-0.1-0.2-0.2-0.3-0.3c7.6-7.1,15.1-14.3,22.7-21.4C605.7,837.6,605.9,837.8,606,838z M565.4,891.6
c0.1,1.2-0.1,2.5-0.7,3.5c-0.5,0.9-1.8,1.9-2.6,1.8c-0.8-0.2-2-1.6-2-2.5c0-2.1,0.6-4.2,1.2-6.2c0.2-0.8,1.1-1.5,1.7-2.2
c3.5-4.1,7.1-8.2,10.6-12.3c0.8,3.4,1.8,6.5-2.3,8.4C567.5,883.9,565.1,887,565.4,891.6z M559.6,899.4c2.7,1.5,3.4,3.7,0.9,5.4
c-3.1,2.1-6.5,3.8-11.1,6.5c1.4-6.9,2.5-12.4,3.4-16.9C555.1,896.2,557.2,898.1,559.6,899.4z M558.4,910.4
c-3.2,2.6-6.4,5.1-9.6,7.7c-0.4-0.5-0.8-1.1-1.2-1.6c2-4.2,7-4.3,10-7.1C557.8,909.7,558.1,910,558.4,910.4z M549.7,890.7
c-1,4.3-1.4,8.7-2.1,13c-1,5.5-2.3,11-2.9,16.5c-0.2,1.8,1.3,4.7,2.8,5.3c1.6,0.7,4.1-0.8,6.2-1.3c-0.1-0.4-0.2-0.9-0.3-1.3
c-1.9,0.2-3.8,0.3-6.8,0.6c1.1-1.6,1.4-2.4,1.9-2.7c9.6-5.2,14.8-13.8,18.1-23.9c0.9-2.6,1.9-5.2,2.6-7.8
c1.1-4.5,3.7-5.1,8.4-3.2c-2.8,8.3-5.7,16.5-8.5,24.7c0.4,0.2,0.8,0.4,1.2,0.5c2.4-5.4,4.9-10.8,7.4-16.3c0.4,0.4,0.9,0.7,0.9,1
c-3,13-7.2,25.5-17.8,34.3c-5.3,4.4-11.5,8.3-19.3,5.7c-0.9-0.3-2.1-0.1-3.2,0.1c-6.1,0.9-7.4,0-8.3-6.3c-1.4-10.2,1.2-20,2.8-30
c2.1-12.8,4.1-25.6,5.5-38.5c1.3-12.4-2.7-24.2-5.3-36.1c-5.9-27-11.8-54-17.4-81.1c-0.4-1.8,1.9-4.3,3.3-6.3
c0.8-1.1,2.3-1.8,3.4-2.6c-0.2-0.4-0.3-0.7-0.5-1.1c-1.4,0.2-2.8,0.3-4.2,0.5c-0.1-0.4-0.2-0.8-0.3-1.2c1.8-0.5,4.1-1.8,5.4-1.2
c1.5,0.8,3.8,3,1.1,5.4c-0.4,0.3-0.2,1.4,0,2.2c2.6,12.4,5.2,24.8,7.9,37.2c0.2,0.9,0.7,1.8,1.1,2.7c0.4-0.1,0.7-0.2,1.1-0.3
c-1.5-7-2.9-14.1-4.4-21.1c0.2-0.1,0.5-0.1,0.7-0.2c1.5,5.7,3,11.5,4.5,17.2c3.8,14.3,7.7,28.6,11.4,43c1.7,6.7-0.4,14.4,5,20.2
C553.2,855.8,553.7,873.3,549.7,890.7z M576.6,879.7c1.1-0.7,2.4-2,3.4-1.8c3.5,0.6,1.8,3,1.4,4.8c-0.5,0.4-1.1,0.8-1.7,1.1
C578.7,882.4,577.6,881.1,576.6,879.7z M413.5,825.4c-1.7-10.6-4.5-20.9-6.5-31.4c-3.7-19.5-7-39.1-10.5-58.6
c0-0.3,0.2-0.6,0.6-1.8c2.6,12.6,4.7,24.3,7.3,35.9c3.2,14.3,6.6,28.6,10.2,42.8c3.8,14.8,2.8,29.4-1,44
c-1.5,5.9-3.5,11.7-4.7,17.7c-1.1,5.3-3.6,9.3-8.9,12.3c2.8-8.5,5.4-16.5,8.1-24.5C411.9,850,415.6,838,413.5,825.4z M410,878.7
c3-10.8,5.8-21.5,8.3-32.4c3.3-14.4,0.2-28.5-3.1-42.6c-5.1-22.2-9.7-44.5-14.5-66.7c-0.1-0.6-0.1-1.2-0.2-2.4
c10.9,1.6,21.2,3.5,31.7,4.6c24.8,2.7,49.8,3.1,74.7,1.8c3.5-0.2,5.2,0.2,6,4.1c7.1,33,14.5,66,21.5,99c2.7,12.8,1,25.6-1.2,38.3
c-1,5.7-2.2,11.4-3,17.2c-0.4,3.3-1.8,4.4-5.1,4.2c-11.3-0.8-22.6-1.1-33.9-2.1c-21.8-1.9-43.4-5.3-64.2-12.4
c-4.9-1.7-9.7-3.6-14.7-5.3C409.6,882.9,409.3,881.5,410,878.7z M566.8,746.1c-0.7,1-0.9,1.5-1,1.5c-9.4-2.2-18.8-4.4-28.1-6.9
c-2.6-0.7-6.6,0.1-7-5.4C543,739,554.8,742.5,566.8,746.1z M536.9,728.2c3.9,0,7.9-0.3,11.7,0.2c0.8,0.1,1.2,2.9,1.6,3.8
c-4.5-1.1-8.9-2.1-13.3-3.1C537,728.8,537,728.5,536.9,728.2z M560.4,728.3c4.2,0,8.1,0,12.8,0c-1.5,5.1-2.9,9.6-4.4,14.7
c-5.2-1.6-9.9-3.1-15.2-4.8C558.1,736,562,734,560.4,728.3z M529.5,732.9c-0.9-1.7-1.4-2.7-2.4-4.4c2.3-0.2,4-0.4,7.1-0.6
C532.2,730.1,531.2,731.2,529.5,732.9z M531.8,742.3c10.2,2,19.1,3.8,28,5.6c0.7,0.1,1.7,0.8,1.7,1.2c-0.1,4.4,3.2,8.2,1.4,13.2
c-4.6,12.9-8.4,26.1-12.5,39.2c-0.3,0.9-0.7,1.8-1.6,4C543,784,537.5,763.7,531.8,742.3z M473.8,701.6c0.1,0.6,0.2,1.3,0.3,1.9
c-10,1.6-20,3.2-30,4.8c-0.1-0.7-0.2-1.4-0.3-2.1C453.8,704.6,463.8,703.1,473.8,701.6z M449.6,701.8c11.5-2,22.9-4,34.4-6
c0.1,0.4,0.1,0.9,0.2,1.3c-11.4,1.8-22.9,3.5-34.3,5.3C449.7,702.2,449.7,702,449.6,701.8z M479,688.5c2-0.6,4.1-0.7,6.2-1
c0.1,0.2,0.2,0.4,0.3,0.6c-1.8,1-3.6,2.1-5.5,2.8c-0.8,0.3-2-0.2-3-0.3C477.6,689.9,478.2,688.7,479,688.5z M434.9,699.8
c-1.9-6.1-3.8-12.1-5.7-18.2c0.2-0.1,0.4-0.1,0.7-0.2c2,6,4,12,6,18.1C435.6,699.6,435.3,699.7,434.9,699.8z M428,659.8
c-1.2-3.5-2.5-6.8-3.9-10.7c4.2-1,8.8-2,13.2-3.3c3.5-1,7-2.2,10.4-3.5c5.3-1.9,7.6-1,9.7,4.3c2,5.1,3.8,10.3,5.7,15.5
c3.4,8.8,6.9,17.6,10.3,26.5c0.5,1.2,0.8,2.6,1.4,4.5c-3.7,0.7-7.1,1.3-10.5,1.9c-6.4,1.2-12.9,2.3-19.3,3.7
c-2.9,0.6-4.1-0.2-5-2.9C436.1,683.9,432.1,671.9,428,659.8z M456.7,710.8c0.1,0.6,0.2,1.2,0.3,1.8c-14.5,2.4-29,4.9-43.6,7.3
c0-0.3,0-0.7,0-1C427.9,716.2,442.3,713.5,456.7,710.8z M433.9,721.6c-2.2,0.2-4.4,0.5-6.7,0.7c-0.1-0.5-0.2-1-0.3-1.5
c2.1-0.5,4.3-1,6.4-1.6C433.6,720.1,433.8,720.9,433.9,721.6z M443.3,726.3c19.7,1.9,39.7,1.3,59.5,1.8c4.3,0.1,8.5,0,13.1,0
c-0.6,1.7-1.6,3.1-1.5,4.5c0.5,4.9-1.9,5.8-6.2,5.7c-19.1-0.2-38.2,0.6-57.3-0.3c-24.2-1.1-47.9-5.4-71.4-11.3
c-1.2-0.3-3.1-1.7-3.1-2.5c0-1.8,0.6-4.6,1.9-5.2c2.6-1.3,5.8-2.3,8.5-1.9C405.6,720.1,424.3,724.5,443.3,726.3z M395.8,809.3
c1.3-2.1,2.7-4.2,4.3-6.8c1.1,1.5,1.5,1.9,1.7,2.5c0.5,1.6,0.8,3.2,1.5,6.3C400.2,810.5,398,809.9,395.8,809.3z M398.9,826.5
c-1-3.6-2.4-7.3,2.3-10.5C401.2,820.2,403.1,824,398.9,826.5z M366.4,804.1c-0.1-0.6-0.1-1.2-0.2-1.8c10.9-2.4,22.2-1.2,33.2-2.8
c0.1,0.8,0.1,1.6,0.2,2.4C388.6,802.5,377.5,803.3,366.4,804.1z M343.8,817.6c-4.2-2-9-3.1-13.3-5.1c-3.8-1.7-4-3.7-1.3-6.8
c1.6-1.8,3.2-4,5.3-5c1.7-0.8,5.3-0.8,5.9,0.1c2.8,4.2,6.6,4.3,10.9,4.1c2.3-0.1,4.5,0,6.4,0c1.2,3.2,2.1,5.6,3.1,8.3
C356.2,817.7,351.2,821.2,343.8,817.6z M355,823.3c-11.4,1.2-29.9-6.2-30.7-12.6C333,818.8,344.1,820.3,355,823.3z M389,796.8
c0.1,0,0.2,0.3,0.8,1.2c-5.7,0-10.9-0.1-16,0c-2.1,0.1-4.6,0.1-6.2,1.1c-6.9,4.5-14.5,2.3-21.9,2.6c-0.9,0-1.9-1-2.8-1.5
c0.1-0.6,0.2-1.1,0.2-1.7C358.4,798,373.7,797.4,389,796.8z M370.9,793.7c8.6,0,17.3,0,25.9,0c0,0.2,0,0.3,0,0.5
c-8.6,0-17.3,0-25.9,0C370.9,794,370.9,793.8,370.9,793.7z M366,817.5c-2.6,0.9-5.1,1.8-7.7,2.7c-0.1-0.4-0.3-0.8-0.4-1.2
C360.6,818.4,362,813.9,366,817.5z M361,807.1c11.5-0.8,22.1-1.5,33.1-2.3C391.4,809.1,366.3,811.1,361,807.1z M367.7,789.6
c-9.4,0.4-18.7,2.2-28.1,3.4c-0.2-0.4-0.5-0.8-0.7-1.2c17.2-9.8,34.4-19.6,52.6-30c2.1,10.1,4.1,19.2,6.2,29
C386.9,790.4,377.3,789.3,367.7,789.6z M387.5,761.8c-14.7,8.5-29.5,16.9-44.2,25.3c-2.4,1.4-4.6,3-7.9,5.1
c5.5-11.4,8.5-22.3,4.5-35c16.7-2.4,32.6-4.7,48.9-7.1c0.7,2.9,1.7,5.4,1.7,7.9C390.5,759.3,388.9,761,387.5,761.8z M333.8,755.3
c-0.1-0.5-0.1-0.9-0.2-1.4c18.1-3.1,36.1-6.9,54.3-9.2c0.1,0.9,0.2,1.8,0.3,2.7C370.1,750,352,752.6,333.8,755.3z M347.5,667.2
c6.4-1.6,12.5-3.9,18.8-5.8c5-1.5,8.7-0.4,10.6,4.4c6.6,16.3,12.9,32.7,19.2,49.1c0.1,0.2-0.1,0.6-0.4,1.4
c-2.7-0.6-5.5-1.2-8.3-1.7c-6.8-1.3-12.5,2.2-13.9,8.1c-0.8,3.5,0.3,5.6,3.8,6.5c1.8,0.4,3.5,1.1,5.3,1.3
c3.6,0.4,3.7,2.9,3.9,5.6c0.3,3.1-1.9,3.5-4,3.8c-13.7,2.5-27.4,4.9-41,7.5c-3.1,0.6-4.7-0.1-5.7-3.3
c-5.9-18.8-11.8-37.6-18-56.4c-1.4-4.3-3.5-8.3-5.3-12.3C324.2,672.7,335.9,670.2,347.5,667.2z M313.7,691.8
c5.8,19.2,11.6,38.4,17.7,58.4C327.4,747.6,315.7,707.2,313.7,691.8z M373.4,821.8c-3.8,6.9-10.7,9.3-17.7,10
c-12.9,1.2-24.3-4-34.8-10.8c-5.4-3.5-6.4-12.8-3-18.8c3.6-6.4,7.3-12.7,10.8-19.2c3.7-7,5-14.4,3.1-22.2
c-0.2-0.7-0.1-1.4-0.1-2.1c0.5-0.2,1-0.4,1.5-0.5c0.7,1.8,1.7,3.5,1.9,5.3c1.8,12.1-2,22.9-7.6,33.4c-1.9,3.5-3.5,7.1-5.2,10.7
c-1.9,3.9-1.2,7.5,2.4,9.6c9.4,5.7,19.5,10,30.7,8.6c4.2-0.5,8.2-3.7,12.9-6c0.5,0.4,1.6,1.2,3.7,2.8c-0.9-2.4-1.4-3.7-2.3-5.9
c1.9,0.3,3.8,0.3,4,0.8C374,818.9,374,820.6,373.4,821.8z M386,817.4c-4.3,0.1-4.4-2.6-5.7-5.9c6.2,0.4,12-2.6,16.7,2.5
C395.8,817.4,395.8,817.1,386,817.4z M365.8,836.7c7.7-0.8,15.5-0.8,23.2-1.1c0.3,0,0.7,0.5,2,1.6c-6.3,2.9-11.1,7.4-18.1,5.7
c-1.9-0.5-3.9-1-5.8-1.1c-1.8,0-3.6,0.6-5.8,1C360,839.5,362.3,837.1,365.8,836.7z M304.7,907.7c-3.3,0-5.6-1.8-5.5-5.3
c0.1-3.2,2-5,5.1-4.8c3.5,0,5.3,1.5,5.4,4.9C309.7,906,307.8,907.7,304.7,907.7z M312.4,900.7c-1.7-2-3.5-3.9-5.2-5.9
c0.3-0.3,0.6-0.6,0.9-0.9c1.8,2,3.7,3.9,5.5,5.9C313.3,900.1,312.8,900.4,312.4,900.7z M382.9,927.6c-3.6,0-5.9-1.5-5.9-5.4
c0-3.5,1.6-5.5,4.5-5.5c4.4-0.1,6.8,1.6,6.8,5.3C388.3,925.4,386.6,927.6,382.9,927.6z M385.4,906.8c-0.3,2.4-4.6,4.4-7.1,6.6
c-0.7-0.4-1.4-0.8-2.2-1.2c1.1-4.1,2.2-8.2,3.3-12.3c2-7.4,4-14.7,6.1-22.1c2.8-9.8,5.7-19.7,8.5-29.5c0.5-1.7,0.9-3.4,1.3-5.1
c-0.5-0.2-0.9-0.5-1.4-0.7c-0.6,1.2-1.7,2.3-1.8,3.6c-0.6,4.1-3,6.2-6.7,7.8c-23,9.7-45.9,19.5-68.7,29.6
c-5.7,2.5-10.7,6.7-16,10.1c-2.2-5.6-1.4-8.3,3.2-10.6c23.5-11.8,47.1-23.5,70.6-35.2c3-1.5,6.1-2.9,9.2-4.1
c5.5-2.1,10.7-4.4,9.6-11.6c4.3-0.9,8.2-1.6,12.5-2.5c-0.3,4.7,1.6,9.6-3.1,13.2c-0.4,0.3-0.4,1.1-0.6,1.7
c-2.7,10-5.1,20.1-8.4,29.8C390.2,884.9,386.8,895.5,385.4,906.8z M393.1,907c-0.8-2.1-2.2-4.3-2.1-6.4c0.2-5.4,0.5-11,2-16.2
c2.8-9.2,6.3-18.2,9.9-27.1c6.5-16.2,7-32.3,2.5-49.3c-6.1-23.5-10.7-47.3-15.7-71.1c-0.3-1.3,0.8-2.9,1.2-4.4
c1,1.2,2.8,2.2,3,3.6c5.5,28.5,10.5,57.1,16.2,85.5c2.4,11.9,0.4,23.1-3.1,34.2c-4.1,12.9-8.6,25.8-12.6,38.7
c-0.8,2.5-0.2,5.4-0.1,8.2c0,1.3,0.4,2.6,0.6,3.9C394.3,906.6,393.7,906.8,393.1,907z M421.8,908c-5.9,1-11.8,2.3-17.7,3
c-3.1,0.3-5.6-1.4-6-4.9c-0.4-3.6-0.6-7.3-0.9-10.9c0.5-0.2,1.1-0.4,1.6-0.6c1.8,1.7,3.6,3.5,5.5,5.1c1,0.8,2.2,1.6,3.4,2
c4.7,1.4,9.5,2.7,14.2,4.1C421.9,906.4,421.9,907.2,421.8,908z M404.4,895.2c-2.5-1.4-4.8-2.8-3.1-5.9c1.6-2.8,3.6-5.4,7.7-4
c9.2,3.3,18.2,7.4,27.7,9.5c17.9,3.8,35.9,6.9,54,9.4c11.3,1.5,22.9,1.4,34.3,2.1c1,0.1,2,0.5,3.3,0.8c-0.9,9.5-0.9,9.7-9.5,9.5
c-16-0.4-32.1-0.3-48.1-1.9C447.5,912.3,425,906.9,404.4,895.2z M449,930.3c0.5-1.3,0.6-1.8,0.9-2.2c4-6.5,4-6.5,10.2-2.3
c2.7,1.8,5.3,3.5,8,5.3c0.1,0.1,0.1,0.3,0.2,0.8C461.9,931.4,455.7,930.9,449,930.3z M494.2,934.5c-8.2,0.8-16.5-0.4-23.8-4.9
c-8.2-5-16.1-10.4-25.3-16.3c9,1.5,16.5,2.8,24.2,4c3,0.5,6.1,0.5,9.1,0.7c0.6,0,1.4-0.2,1.8,0.1c6.2,3.8,12.6,0.3,18.9,0.8
c6.5,0.5,13.1,0.1,19.7,0.2c2.4,0,4.8,0.3,7.6,0.5c0,2.3-0.1,3.8,0,5.3c0.4,3.6-1.4,4.8-4.7,5.3
C512.6,931.6,503.5,933.6,494.2,934.5z M518.5,940.6c-1.6-1.5-1.1-6.4,1.1-7c3.3-0.9,6.9-2.8,9.3,1.9c0.7,1.4,2.8,2.1,4.2,3.1
C529.6,942.6,521.3,943.2,518.5,940.6z M599.8,876.5c4.2,1.4,8.4,3,12.6,4.3c2.5,0.8,3.6,2.2,3,4.7c-3.6,14.5-7.1,29.1-10.8,43.6
c-0.4,1.4-2.2,2.9-3.7,3.4c-14.4,5.1-28.9,10.1-43.3,14.9c-1.9,0.6-4.2,0.7-6.2,0.3c-6.1-1.1-12.2-2.6-18.8-4.1
c3.1-4.1,6.1-4.5,10.4-4.4c4.7,0.2,9.5-2.3,14.1-4c2.6-1,4.7-3.4,8-1.4c0.7,0.4,3-0.4,3.5-1.3c2-3.3,3.9-6.8,5.2-10.4
c1.6-4.4,2.4-9,3.7-13.5c0.9-3.1,2-6.1,3-9.1c1.4-4.2,1.7-8.7,6.5-11.3c2.1-1.2,3.2-4.7,4.2-7.3
C592.9,876.4,595.2,875,599.8,876.5z M624,778c0.2,19.9-4.5,39-8.3,58.4c-1.2,6.4-2.6,11.9-6.2,17.1c-3.6,5.1-7.3,10.2-11.1,15.2
c-6.3,8.2-9.3,9.2-19.1,6.4c-3.1-0.9-3.5-3.5-0.9-6.4c5.1-5.5,10.3-10.9,15.5-16.3c4.1-4.3,8.4-8.4,12.5-12.8
c1.3-1.4,2.5-3.1,3.2-4.9c2.1-5.9,1.9-6.2-4-8.2c1.8-10.4,3.6-20.4,5.3-30.5c0.6-3.8,1.4-7.6,1.3-11.4c-0.2-6.2,3.3-9.1,8.3-11
c0.9-0.3,1.6-1,2.4-1.5c-0.1-0.4-0.3-0.8-0.4-1.3c-1.4,0.3-3.1,0.2-4.1,1c-3.1,2.5-6.1,5.1-8.8,8c-12.1,13.4-24,27-36,40.4
c-2.5,2.8-5.3,5.5-8,8.1c-4.1,3.8-10.2,4.9-15,2.4c-3-1.5-1.8-3.8-0.2-5.6c9.8-11.7,19.5-23.5,29.6-34.9
c6.2-7.1,12.9-13.8,19.5-20.7c5-5.3,11.1-5.8,17.8-3.8c1.4,0.4,3.1,0.3,4.4,0.9c1.5,0.7,3.3,1.6,3.9,2.9c0.7,1.3,2.5,3.5-0.7,4.8
C624.1,774.6,624,776.7,624,778z M700.8,863.9c-4.3-1.4-10.1-1.9-12.4-5c-2.2-2.9-0.7-8.5-0.7-12.9c0-4.9-0.1-9.8,0-14.7
c0.1-3.2-1-5.1-4.3-6c-15.7-4.1-31.3-8.5-47-12.3c-3.3-0.8-7.1,0.4-10.9,0.6c0.9-7.4,2.1-14.6,2.7-21.8
c0.5-6.4,0.8-12.8,0.6-19.2c-0.1-6-3.6-8.3-9.4-9.8c-11.3-2.9-19.1,1.7-26.1,9.8c-10.4,11.9-21.2,23.4-31.8,35
c-0.8,0.8-1.6,1.7-2.4,2.5c-0.2-0.1-0.3-0.2-0.5-0.3c7.3-19.1,14.6-38.2,22-57.3c2.6-6.7,5.2-13.4,7.7-20.2c1-2.9,2.7-4,5.8-4
c15.2,0.1,30.3,0.1,45.5,0c3.7,0,4.7,1.5,4.6,5c-0.1,14.4,0,28.8-0.1,43.2c0,6.9,0.5,7.4,7.2,7.5c13.9,0,27.9,0,41.8,0
c7.2,0,6.9,0.1,7.8,7.1c2.1,15.3,4.3,30.5,6.9,45.7c1.8,10.2,6,19.6,12.5,27.7c1.4,1.7,2.5,3.6,4.6,6.6
C715.9,868.4,708.4,866.3,700.8,863.9z M743.7,883.4c-3.8,1.3-6.7,0.4-9.1-3c-5.7-8.1-11.8-16-17.4-24.2
c-3.2-4.8-3.7-10.3-4.2-16.1c-1.2-13-4.6-25.8-6.6-38.8c-0.9-6.3-0.6-12.7-0.9-19.1c-0.1-1.1-0.1-2.4-0.8-3.2
c-2.2-2.8-1.3-6.7,2.1-7.6c1-0.3,2.2,0.1,3.2-0.3c11.1-4.8,18.9,0,26,8.2c12.8,14.8,25.9,29.4,38.7,44.2c2,2.3,3.7,4.9,5.3,7.4
c2.5,3.9,1.7,4.8-2.7,6.4c-6.5,2.4-11,0.4-15.5-4.7c-14.9-17.2-30.2-34.1-45.4-51.1c-1.5-1.7-3.2-3.3-5.2-4.5
c-1.3-0.8-3-0.7-4.6-0.9c0,0.3-0.1,0.7-0.1,1c2.7,1.8,5.7,3.3,8.1,5.4c1.3,1.2,2.3,3.2,2.6,5c2.2,13.1,4.2,26.2,6.1,39.4
c0.4,2.5-0.7,5.2-0.3,7.7c0.5,3.2,1,6.9,2.9,9.2c7.9,9.7,16.5,18.9,24.5,28.5c1.6,1.9,2.4,5,2.1,7.4c-0.1,1.2-3.5,2.1-5.4,2.9
C746.1,882.9,744.8,883,743.7,883.4z M768.3,908.1c-0.1-0.4-0.3-0.8-0.4-1.2c5.7-1.5,10.6-3.6,7.6-11.2c0.5,0.1,1,0.2,1.6,0.3
c1.1,5.2,2.1,10.4,3.3,16C775.8,910.6,772.1,909.3,768.3,908.1z M782.1,924.7c-5.7-2.2-8.9-6.4-11.5-11.5
C777.5,911,782.9,916.5,782.1,924.7z M727.3,838.8c-0.9-0.9-1.7-3-1.3-3.8c1-1.8,2.6-4.2,4.3-4.4c7.7-0.9,15.5-1.3,23.3-1.6
c1.3-0.1,2.9,0.9,3.9,1.8c2.1,1.8,3.9,3.9,5.9,5.8c2.8,2.6,5,6.6,9.1,4.4c0,7.8-0.3,15.4,0.1,23c0.4,7.6,1.7,15.1,2.7,24
c-5.3-5.3-9.7-9.8-14.2-14.3C749.9,862.2,738.6,850.5,727.3,838.8z M753.7,866.8c-0.1,0.1-0.3,0.3-0.4,0.4
c-8.6-7.9-17.3-15.8-25.9-23.8c0.3-0.3,0.6-0.6,0.9-0.9C736.7,850.7,745.2,858.7,753.7,866.8z M725.9,825.2
c-2.1-11.5-4-23-6-34.6c0.6-0.2,1.3-0.4,1.9-0.6c10.3,11.8,20.6,23.7,31.9,36.7c-9.3,0.2-17.3,0.5-25.3,0.6
C727.5,827.3,726,826,725.9,825.2z M750.7,886.5c2.4-2.8,4-4.9,6-7.2c4.2,4.9,8.4,9.9,12.5,14.9c0.5,0.6,0.8,1.4,0.8,2.1
c0,2.2-0.1,4.4-0.4,6.5c0,0.3-2.3,0.7-2.3,0.6c-0.8-2-1.8-4-2-6.1c-0.4-5.5-3.5-8.5-8.9-8.6C754.7,888.7,752.9,887.4,750.7,886.5
z M800.3,938.7c-0.5,4.1-2.6,5.6-7,5.1c-3.2-0.4-6.6,1.2-9.7,0.7c-8.3-1.4-15.1-5.7-19.9-12.8c-7.1-10.6-11-22.3-12.7-35
c2.9,7.1,5.9,14.3,8.8,21.4c0.4-0.2,0.8-0.3,1.2-0.5c-2.7-8.2-5.4-16.3-8.1-24.4c5.6-2.8,6.6-2.4,8.4,2.8
c1.8,5.3,3.6,10.7,5.8,15.9c2.8,6.4,7.4,11.5,13.5,15.3c1.1,0.7,1.9,1.6,2.5,3.6c-1.8,0.2-3.6,0.4-5.4,0.6
c-0.1,0.3-0.2,0.7-0.3,1c1.9,0.4,4.2,1.6,5.7,1c1.3-0.5,2.5-2.9,2.6-4.6c0.2-2.5-0.2-5.2-0.8-7.7c-3.9-15.7-6.5-31.6-6.6-47.8
c-0.1-9.7-0.4-19.7,1.5-29.1c1.2-5.9,2.8-11.7,4.1-17.7c4.3-20.2,9.9-40,15-60c0.2-0.7,0.5-1.4,1.4-1.9c-1,5-1.9,10-2.9,15
c0.5,0.1,1,0.2,1.5,0.3c2.9-13.7,5.7-27.4,8.6-41.1c7.2,3.2,8,4.7,6.5,12c-6.9,32.9-13.9,65.8-20.8,98.7
c-2.9,13.8-0.6,27.4,1.5,41c2.1,13.7,4.1,27.5,6,41.2C801.3,933.8,800.6,936.3,800.3,938.7z M919.1,859.5
c2.2,7.3,4.7,14.6,7,21.8c0.3,1,0.5,1.9,0.8,2.9c-0.5,0.3-1,0.6-1.5,0.8c-1.9-3-4.7-5.9-5.7-9.2c-4.6-16.2-10.3-32.3-8.5-49.4
c1.1-10.9,4-21.6,6.3-32.3c4-19.3,8.1-38.6,12.2-57.8c0.1-0.4,0.4-0.8,0.6-1.2c0.5,0.1,0.9,0.2,1.4,0.2
c-3.2,17.6-6.4,35.1-9.6,52.7c-2.6,14.3-5.7,28.4-7.8,42.8C912.7,840.7,916.3,850.1,919.1,859.5z M923.4,894.4
c-18,12.1-38,19.1-59.1,22.9c-12.8,2.3-25.8,3.3-38.7,4.7c-5.6,0.6-11.3,0.4-16.9,1.1c-4.2,0.5-5.9-1.2-6.1-5.1
c-0.1-1.5-0.5-2.9-0.8-4.9c6.7-0.8,13-1.6,19.3-2.2c33.3-3.3,65.5-10.1,95.7-25.3c2.3-1.2,4.5-2.4,7.1-0.1
C927.8,888.8,927.7,891.5,923.4,894.4z M923.8,754.6c-4.7,21.5-9.8,42.9-14.3,64.5c-2.7,12.5-0.7,25,2.3,37.2
c1.9,7.4,3.8,14.8,6,22.1c0.8,2.6,0.1,3.8-2.3,4.9c-25.4,12.6-52.4,19.4-80.3,23c-10,1.3-20,2.3-30,3.6c-2.7,0.3-4.2-0.2-4.7-3.3
c-3-16.9-7.1-33.7-5.1-50.9c1.2-10.7,4.1-21.3,6.3-31.9c5.2-25,10.4-50,15.4-75c0.8-3.9,2.1-5.2,6.3-5.1
c32.8,0.5,65.4-0.9,97.6-7.9c1.6-0.3,3.3-0.5,6.3-1C926.1,742.1,925.1,748.4,923.8,754.6z M814.1,944.1
c-1.6,2.8-9.9,2.8-12.9,0.2c0.5-0.9,0.8-1.5,1.2-2.2c2.1-4.4,7-6.1,11-3.3C814.4,939.5,814.8,942.8,814.1,944.1z M831.9,937.6
c-7-1.3-14.2-1.7-21.4-2.6c-6.9-0.8-6.9-0.9-6.2-8.9c25.5-1.9,51.3-2.1,76.1-10.2c0.2,0.3,0.4,0.7,0.6,1
c-7.8,5.6-15,12.2-23.4,16.6C849.9,937.7,841,939.3,831.9,937.6z M861.8,962.6c-2.6,0.6-6-2.4-9.1-3.8c0-0.5,0-1,0-1.4
c6.8-2.7,13.6-5.3,20.9-8.2c1.1,2.3,2,4.1,3.1,6.4C871.6,958.1,867,961.4,861.8,962.6z M881.7,955.9c-3.5-1-4.7-3.9-4.8-7.1
c0-0.6,2.4-1.3,3.7-1.9c1,2.7,2,5.5,3,8.2C883,955.3,882.4,955.6,881.7,955.9z M893.1,951.8c-0.7,0.2-1.5,0.3-2.2,0.5
c-1.6-2.3-3.1-4.6-5.1-7.5c1.9-0.7,3.5-1.4,5.2-2c-0.6-0.7-1.1-1.4-1.7-2.1c-1.8,0.6-3.6,1.1-5.4,1.8c-8.7,3.4-17.6,6.3-26,10.3
c-6.6,3.2-11.8,2.5-17.5-1.9c-2.8-2.2-3.7-4.3-2.9-7.4c0.2-0.9,1-2.1,1.7-2.3c9.3-2.3,18.6-4.6,27.9-6.6c5.9-1.3,12-2.2,18-3.2
c4.1-0.7,7.7,2,7.8,6.2C893.2,942.3,893.1,947.1,893.1,951.8z M923.3,932.1c-8.4,4.2-16.4,8.3-24.4,12.3c-2.8,1.4-3.2-0.6-3-2.7
c0.3-3.9,0.1-7.7-3.3-10.4c-2.8-2.1-5.5-3.1-9.3-2.2c-5.6,1.4-11.4,1.9-17.1,2.7c10.8-8.8,21-18.3,34.4-22.5
c3.5-1.1,6.6-0.7,8.7,2.1C914,918.1,918.4,924.9,923.3,932.1z M928.4,907c-0.3,1.3-2.8,3-4.2,2.9c-5.5-0.3-10.9-1.3-16.3-2
c0-0.5,0-1,0-1.5c7-3.9,14.1-7.7,22.2-12.2C929.5,898.4,929.3,902.8,928.4,907z M933.8,905.4c-0.6-0.1-1.1-0.2-1.7-0.3
c4.4-9.2-1.4-16.5-3.5-24.5c-3.7-13.9-7.8-27.6-11.4-41.5c-2.4-9.2,0.8-18.2,2.4-27.2c4.4-24.8,9.1-49.5,13.6-74.3
c0.1-0.6,0.1-1.3,0.4-1.8c0.9-1.1,2-2.2,3-3.2c0.3,1.3,1.2,2.8,0.9,4c-3.6,18-7.3,35.9-11.2,53.8c-2.3,10.6-5.2,21.1-7.3,31.7
c-2.2,11,1.2,21.5,4.6,31.8c3.4,10.1,7.6,20,10.6,30.3c1.5,5,1.3,10.5,1.5,15.8C936,901.8,934.6,903.6,933.8,905.4z M991.3,787.9
c-15.6-9.6-31.7-19.4-47.7-29.5c-2.2-1.4-3.4-4.3-5-6.4c0.3-0.4,0.6-0.9,0.8-1.3c4.7,0.7,9.5,1.3,14.2,2
c10.6,1.5,21.1,3,31.7,4.7c1.1,0.2,3.1,1.8,2.9,2.3C985.7,769.8,987.4,779.5,991.3,787.9z M992.6,793.7
c-11-1.3-21.6-3.1-32.2-3.6c-9.9-0.4-19.9,0.6-31.1,1c2.3-10.7,4.5-21.2,6.8-31.7C944.3,760,984.2,784.3,992.6,793.7z
M999.5,812.8c-6.5,2.6-13.1,5.1-19.9,6.9c-4.5,1.2-12-7.9-10.5-12.4c0.3-0.9,1.8-1.9,2.8-2.1c2.1-0.3,4.3-0.1,6.4-0.1
c4.6,0.1,9.3,0.8,12-4.4c0.4-0.7,3.4-1,4.1-0.4c2.8,2.7,5.3,5.7,7.6,8.8C1002.3,809.6,1000.7,812.3,999.5,812.8z M1005,811.8
c-2.4,6.4-20.4,13-30.5,11.9C984.9,821.1,995.6,819.1,1005,811.8z M976.4,843.5c-2.5-0.6-4.4-1.4-6.4-1.4c-2.3,0-4.5,0.7-6.8,1.1
c-7,1.4-13.9-0.7-20.1-6.2c1.1-0.4,2-0.9,2.9-0.9c8.6,0.3,17.1,0.5,25.7,1C976,837.5,977.4,840.2,976.4,843.5z M977,852.4
c-0.4,0.5-0.8,0.9-1.2,1.4c-2.2-1.1-4.4-2.1-6.5-3.2c0-0.5,0-1,0.1-1.4c1.5-0.2,3.3-0.9,4.5-0.3
C975.1,849.5,975.9,851.2,977,852.4z M946.1,833.1c-0.3,0-0.8,0.1-0.9-0.1c-2.2-3.5-4.3-7.1-6.4-10.7c-0.1-0.2,0.7-1.3,1.3-1.6
c2.6-1.3,10,0.4,12.3,2.5c4.2,3.7,8.5,7.2,11.6,9.9C959.2,833.1,952.7,833.1,946.1,833.1z M931.1,811.9c5.7,0,11.3,0,17.3,0
c-0.5,3.5-1.2,5.7-4.7,5.6C932.3,817.3,932.8,817.8,931.1,811.9z M937.1,823.6c-1.2,1.5-1.9,2.6-2.7,3.6
c-0.7-1.1-1.9-2.3-1.9-3.5c-0.1-1.1,1-2.3,1.6-3.4C934.9,821.3,935.8,822.2,937.1,823.6z M923.8,810.8c1.1-3.6,1.7-5.7,2.7-9.3
c1.8,2.8,3,4.6,4.2,6.4C928.9,808.7,926.9,809.5,923.8,810.8z M927.6,824.6c-0.4,1.3-1,2.5-1.7,3.6c-0.7,1-1.6,1.8-2.4,2.7
c-0.8-1.1-2.2-2.3-2.1-3.4c0.2-3.9,1-7.8,1.7-12.7c2.7,1.1,6,1.7,6.3,2.8C929.7,819.8,928.3,822.3,927.6,824.6z M928.2,800.6
c11.5,0.6,23.2-0.3,34.4,3.1C951,803.3,939.4,804.2,928.2,800.6z M954.3,794.4c-7.9,0-15.8,0-23.7,0c0-0.1,0-0.2,0-0.3
c8,0,16,0,23.9,0C954.4,794.2,954.3,794.3,954.3,794.4z M963.5,797.8c7.8,0.3,15.5,1.1,23.2,1.7c0.2,0.4,0.3,0.8,0.5,1.2
c-1.2,0.6-2.4,1.6-3.6,1.7c-5.3,0.2-10.7,0.1-16,0.1c-0.6,0-1.4,0-1.8-0.3c-8-5.8-17.5-2.5-25.1-4.5
C947.7,797.7,955.6,797.5,963.5,797.8z M937.1,808.2c-1.3-0.1-2.5-1.2-3.8-1.8c0.2-0.4,0.3-0.8,0.5-1.3c10.8,0.7,21.6,1.4,32.4,2
c0.1,0.5,0.1,1,0.2,1.6c-1,0.4-2,1.1-2.9,1C954.7,809.4,945.9,808.9,937.1,808.2z M972.6,820.8c-2.6-1.4-5.2-2.8-8.4-4.4
C968,815.1,968.9,815.6,972.6,820.8z M943.3,928.3c-3.3-0.2-5.5-1.8-5.6-5.3c-0.1-3.6,1.9-5.6,5.4-5.9c3.7,0.2,5.9,1.8,5.9,5.6
C949.1,926.1,946.8,928.5,943.3,928.3z M1025,908.3c-3.4,0.1-5.3-1.7-5.4-4.9c-0.1-3.5,2.1-5.2,5.4-5.5c3.1,0.3,5.1,1.8,5,5.2
C1030,906.5,1028.4,908.2,1025,908.3z M1026.3,883.6c4,2,4.6,4.4,2.9,11.7c-3.1-2.7-5.7-5.2-8.5-7.5c-1.3-1-2.8-1.8-4.4-2.5
c-23-10.4-46-20.9-69-31.2c-3.7-1.7-6.9-3.3-6.3-8.2c0.1-0.7-0.9-1.6-1.3-2.4c-0.6,0.1-1.1,0.3-1.7,0.4c1.9,11.7,4.2,23.3,5.6,35
c1.4,11.6,5.8,22.8,6.1,35.1c-6.8-2.5-8.7-6-8.7-12.7c0-8.9-2.9-17.7-4.4-26.6c-1.7-10.1-3.2-20.2-4.9-30.3
c-0.1-0.7-0.5-1.3-1.8-2.1c-0.3,1.4-0.5,3-1,4.3c-0.5,1.1-1.4,2-2.1,3c-0.8-0.9-2-1.7-2.4-2.8c-1.3-3.6-3.3-7.6,3.4-9.9
c-2.8-0.9-4.3-1.4-5.9-1.9c0.1-0.4,0.2-0.8,0.4-1.3c1.7,0.2,3.4,0.4,5.3,0.6c0.5-1.5,1-2.9,1.4-4.3c3.3,0.5,6.5,0.7,9.6,1.5
c1,0.2,2.1,2.1,2.1,3.2c0.1,3.6,1.9,5.4,4.9,7C972.5,855.8,999.4,869.7,1026.3,883.6z M1005.9,793.8c1.7,2.9,3.5,5.7,5.2,8.7
c4.4,8,2,17.2-6.3,20.9c-8,3.6-16.4,6.5-24.9,8.8c-7.8,2.2-20.7-3.4-24.2-9.7c-0.7-1.3-0.7-3.1-0.6-4.7c0-0.4,2.1-0.5,4.1-0.9
c-1,2.3-1.6,3.6-2.7,6c2.1-1.5,3.2-2.4,4.7-3.4c1.2,1,2.4,2.1,3.7,3.1c5.8,4.4,12.3,5.3,19.1,3.2c5.7-1.7,11.4-3.6,16.8-6
c7.1-3.1,8.2-6.5,5.1-13.6c-3.7-8.4-8.1-16.5-10.8-25.2c-1.7-5.6-1-12.1-1.1-18.1c0-1.3,1.2-2.7,2-4.5c0.8,1.1,1.4,1.5,1.3,1.7
C994.4,772.9,999.7,783.5,1005.9,793.8z M938.7,747.2c0.1-0.8,0.3-1.7,0.4-2.5c21.2,3.2,42.3,6.9,63.2,11.7
C981.1,753.6,959.8,751.1,938.7,747.2z M1000.1,750.1c-0.7-0.2-1.4-0.4-2.1-0.6c5.6-18.2,11.3-36.5,16.9-54.7
C1011.1,713.4,1006.3,731.9,1000.1,750.1z M948.1,699.5c4-10.4,7.8-20.9,11.9-31.3c2.9-7.4,6-8.5,13.6-6
c14.5,4.8,29,9.2,42.6,13.5c-7.2,21.7-14.7,44-22.1,66.4c-2.1,6.4-2,6.4-8.5,5.2c-13.4-2.4-26.8-4.8-40.1-7.3
c-2.1-0.4-4.9,0-4.9-3.5c0-3.2,0.5-5.8,4.3-6.5c1.2-0.2,2.5-0.4,3.5-1c2-1.1,5.4-2.4,5.5-3.8c0.1-2.7-1.1-6-2.8-8.1
c-1.7-2.1-4.8-3-8-4.7C944.6,708.2,946.4,703.9,948.1,699.5z M938,717.5c2.8-0.5,5.8-0.8,8.6-0.5c3.4,0.3,5,3.2,4.8,6.2
c-0.1,1.3-2.6,2.9-4.3,3.4c-26.4,7.5-53.2,12.5-80.7,13.6c-9.9,0.4-19.9,0.7-29.8,0.9c-8.6,0.1-17.4,1.2-25.4-3.5
c-0.7-0.4-2.2,0.6-3.3,1.1c0,0,0,0,0,0c-0.7,0.3-1.3,0.6-2.8,1.3c1.5-3.3,1.4-6.8,6-4.7c1.3,0.6,3,0.4,4.5,0.6
c-0.2-1.5-0.3-3-0.6-5.2c1.1,0,2.5,0.1,4,0c20.8-0.8,41.7-0.7,62.3-2.9C900.3,725.6,919,720.9,938,717.5z M913.3,707.9
c3.7,1.6,7.2,3.8,10.7,5.7c-0.1,0.2-0.2,0.5-0.3,0.7c-4-0.8-8-1.4-11.9-2.5c-1-0.3-1.6-1.9-2.5-2.9
C910.7,708.6,912.3,707.5,913.3,707.9z M909.2,699.7c-0.3-0.1-0.6-0.2-1-0.3c2.1-6.2,4.1-12.4,6.2-18.7c0.2,0,0.5,0.1,0.7,0.1
C913.1,687.1,911.2,693.4,909.2,699.7z M888.3,654.7c1.2-3.1,2.2-6.4,3.5-9.4c1.2-2.8,3.4-4.5,6.6-3.5c7.2,2.4,14.4,5,21.5,7.5
c-5.3,15.5-10.6,30.6-15.7,45.9c-1.1,3.3-2.2,4.7-6.1,3.7c-6.8-1.7-13.8-2.9-20.7-3.7c-4.3-0.5-3.6-2.5-2.6-5.3
C879.4,678.1,883.9,666.4,888.3,654.7z M874.5,446.8c-21.4,0.2-42.8,0.2-64.2,0.1c-1.3,0-2.6-1.3-3.9-2c1.3-0.9,2.5-2.6,3.8-2.6
c23.4-0.2,46.8-0.1,70.2-0.1c0.6,0,1.1,0.2,1.7,0.3c0.2,0.6,0.4,1.1,0.5,1.7C879.9,445,877.2,446.7,874.5,446.8z M879.4,439.6
c-65.2,0-130.5,0-195.7,0c0,0,0-0.1,0-0.1c-33.7,0-67.4,0-101.1,0c-30.6,0-61.3,0.2-91.9,0.3c-8.4,0-8.4,0-8.4-8.6
c0-27.1,0-54.2,0-81.3c0-6.2,0-6.3,6.4-6.3c47.3-0.1,94.6-0.3,141.9-0.3c82.8,0,165.7,0,248.5,0c6.7,0,6.8,0,6.8,6.5
c0,27.7,0,55.4,0,83.1C886,439.6,886,439.6,879.4,439.6z"/>
</g>
<g class="st3">
<line x1="1378.5" y1="91.3" x2="1507.7" y2="0.6"/>
<polygon points="1378.5,92.5 1378.5,90.6 1507.3,0 1508.1,1.2 			"/>
</g>
<polygon class="st4" points="1378.5,960 1636.1,1082.4 1636.2,1090.1 1378.5,961.8 		"/>
</g>
</g>
</svg>
