<?xml version="1.0" encoding="utf-8"?>
<!-- Generator: Adobe Illustrator 22.1.0, SVG Export Plug-In . SVG Version: 6.00 Build 0)  -->
<svg version="1.1" id="レイヤー_1" xmlns="http://www.w3.org/2000/svg" xmlns:xlink="http://www.w3.org/1999/xlink" x="0px"
	 y="0px" viewBox="0 0 164 291" style="enable-background:new 0 0 164 291;" xml:space="preserve">
<style type="text/css">
	.st0{opacity:6.000000e-02;}
	.st1{fill:#060404;}
	.st2{fill:#231815;}
</style>
<g class="st0">
	<path class="st1" d="M160.8,230.5c-2.9,4.3-9.2,26.1-15.5,29.4c-0.4,0.2-1.2,0.4-2.2,0.6l3.1,29.7H16.5c0.2-1.7,2-17.8,2-21.3
		v-14.1l-2.2-0.2c0,0-5.3-4.6-8.9-7.9c-3.6-3.3-6.6-41.8-7.2-43.1c-0.7-1.3,2.6-12.5,3.6-15.2c1-2.6,2.9-33.9,3.3-37.9
		c0.3-4,3.9-8.6,6.9-8.3c2.9,0.4,21.1-1.3,22.4-2.9c1.3-1.7,3.6,0.7,6.2-0.4c1.6-0.6,5.6-3.3,8.9-5.8c-3.5-3.7-7.3-16.2-7.3-16.2
		s-3.6-5-5-7.6c-1.4-2.5-0.2-4-0.2-4s-4.6-0.7-7.4-9c-2-6.1,2.5-20.5,7.6-26.3c5-5.8,9.7-12.6,13.3-13.6c3.6-1.1,7.6,0.7,7.6,0.7
		c3.9-3.3,10.8-3.3,14.4-2.5c3.6,0.7,9.2,6.8,16.3,11.2c9.5,5.9,8.2,17.2,8.6,20.1c0.4,2.9-0.4,9.1-2.5,12.6
		c2.5,0.4,0.7,6.1-0.4,9.7c-1,3.4-1.4,5.9-3.9,5.8c1.4,3.3,4.3,10.2,4.5,11.4c0.3,1.7,16.2,10.5,16.2,10.5s29.3,5.9,32.9,6.2
		c3.6,0.4,5.3,4.6,5.6,8.3c0.3,3.6,4.6,24,4.9,25.7c0.4,1.7,3.3,18.1,3.3,18.1s2.6,6.2,3,8.6C163.2,205.1,163.8,226.2,160.8,230.5z"
		/>
	<g>
		<path class="st2" d="M145.4,12C145.3,12,145.3,12.1,145.4,12C145.4,12,145.4,12,145.4,12z"/>
		<path class="st2" d="M147.6,18.8c0-0.7-0.1-1.4-0.3-2c-0.1-1-0.4-2.1-0.9-2.8c-0.5-0.7-1-1-1.6-1.3c0.2-0.4,0.4-0.8,0.4-0.8
			c0.3-0.8,0.2-1.7,0.1-2.5c-0.4-2.4-2.2-3.9-4.5-4.4c-0.3-0.1-0.6-0.1-0.9-0.1c-0.7-0.7-1.6-1.2-2.7-1.7c-1.2-0.5-2.3-1-3.5-1.4
			c-0.1-0.1-0.2-0.2-0.3-0.3c-1.1-1-4-1.9-5.7-1.1c-0.9-0.1-1.8-0.1-2.7,0c-1.2-0.5-2.5-0.7-4-0.6c-1.2,0.1-2.5,0.3-3.9,0.7
			c-1,0.2-2,0.4-2.9,1c-0.2,0.1-0.5,0.3-0.7,0.4c-3.8,1.9-7.2,4.9-7.4,8.7c-0.1,2.2,0.3,4.2,1,6.2c-2.8,1.8-5.2,4.2-4.2,7.8
			c0.7,2.3,3.4,3.3,5.3,4.4c0.5,0.3,0.9,0.5,1.4,0.8c-0.6,0.5-1,1.2-1.1,2.2c-0.1,1.2,0,2.3,0.4,3.4c-1.1,0-2.3,0.1-3.4,0.1
			c-0.2,0-0.3,0.1-0.3,0.3c-0.5,1.1-0.2,2.4,0.5,3.7c-0.4,0.8-0.7,1.7-0.7,2.6c0,1.1,1.5,3.9,1.6,1.6c0-0.5,0.5-1.2,1-1.7
			c1.7,1.5,3.6,2.3,4.1,0.8c0.5-1.3,0-2.9-1-4c0.1,0,0.3,0,0.4,0c0.7,0.6,1.6,1.2,2.6,1.5c2,0.6,3.4-0.4,3.6-1.8
			c0.6,0.6,1.2,1.1,1.9,1.6c3,2.3,6,0.2,8.4-1.9c0.7-0.6,0.1-1.9,0.4-2.6c0-0.1,0.3-0.3,0.6-0.5c0.5,0,1-0.1,1.5-0.1
			c1.3-0.1,2.4-0.5,3.4-1c1.9-0.5,3.6-1.6,4.6-3.3c0.4-0.6,0.6-1.2,0.8-1.8c0.3-0.4,0.6-0.7,0.9-1.1c1.9,0.6,3.8,0.8,5.4-0.3
			C147.5,25.7,147.7,21.4,147.6,18.8z M115,29.1c0-0.3,0-0.5,0-0.8c0.1,0,0.1,0,0.2,0c0.2,0.5,0.5,0.9,0.8,1.2
			C115.7,29.4,115.4,29.3,115,29.1z M140.7,11.9c-0.3,0-0.6-0.1-0.9-0.1c-1.4-1.1-3.2-1.8-4.9-2.2c0.2-0.3,0.4-0.6,0.5-0.8
			c0,0,0,0,0,0c1.3-0.1,2.5-0.1,3-0.1c0.6,0,1.1,0,1.7,0C140.6,9.4,140.9,10.5,140.7,11.9z M109.1,10.7c0.4,1.4,1.1,2.4,2.3,3.1
			c-0.1,0.3-0.1,0.5-0.2,0.8c-0.2,0.1-0.3,0.2-0.5,0.2c-0.1,0.1-0.3,0.1-0.4,0.2C107.8,13.6,107.9,12.1,109.1,10.7z M119.3,21.9
			c0,0.1,0,0.1,0,0.2c-0.6-0.2-1.2-0.3-1.8-0.4c0,0,0,0,0,0c0,0,0,0,0-0.1C118,21.8,118.6,21.9,119.3,21.9z M129,19.2
			c-1.2-0.3-2.4-0.4-3.7-0.5c0.3-0.5,0.6-1,0.9-1.6c1.3-0.4,2.6-0.5,4-0.6c-0.3,0.9-0.6,1.8-0.7,2.8C129.3,19.3,129.2,19.2,129,19.2
			z M127.4,7.2c0.1,0.7,0,1.4-0.1,2.1c-0.9,0.1-1.9,0.2-2.8,0.4c-0.1-0.1-0.1-0.1-0.2-0.2c-1.6-1.1-3.1-1.5-4.4-1.5
			c0.2-0.4,0.4-0.7,0.6-1.1c1.6-2.7,2.7-2,5.3-1.4c0.4,0.1,0.9,0.2,1.3,0.4C127.3,6.3,127.4,6.7,127.4,7.2z M117.6,8
			c-0.1,0.3-0.1,0.5-0.2,0.8c-0.4,0.3-0.9,0.6-1.2,1C116.6,9.2,117.1,8.6,117.6,8z M121.8,21.9c-0.1,0.3-0.1,0.6-0.2,0.8
			c-0.3-0.1-0.7-0.2-1-0.3c0-0.2-0.1-0.4-0.1-0.6C120.9,21.9,121.3,21.9,121.8,21.9z M120.6,25.8C120.6,25.9,120.6,25.9,120.6,25.8
			c-0.7-0.2-1.4-0.5-2.2-0.6C119.1,25.3,119.9,25.6,120.6,25.8z M125.9,27.9c-0.2,0.1-0.4,0.2-0.6,0.2c-0.4-0.2-0.8-0.4-1.2-0.6
			c0.3-0.1,0.6-0.4,1-0.7c0.6-0.7,0.4-2.7-0.4-3.3c-0.4-0.3-0.8-0.5-1.3-0.6c0.1-0.4,0.2-0.7,0.3-1.1c1.3,0.7,2.8,1.2,4.3,1.4
			c0.8,0.1,1.7,0.1,2.6,0.1c0.3,0.3,0.5,0.5,0.9,0.7C130.1,25.8,128,27,125.9,27.9z M131.8,19.8c-0.1,0-0.2-0.1-0.3-0.1
			c0.3-1.2,0.7-2.1,1.2-3.1c1.4,0.4,1.7,1.5,1.4,2.8C133.3,19.6,132.6,19.7,131.8,19.8z M129,7c0-0.1,0-0.2,0-0.3
			c0.1,0,0.1,0.1,0.2,0.1C129.1,6.9,129.1,6.9,129,7z M114.4,7.7c-0.7,1.1-1.4,2.2-2,3.4c-0.9-0.4-1.5-0.9-1.5-1.7
			C112,8.7,113.2,8.1,114.4,7.7z M120.8,15.8c-0.1,0.1-0.3,0.3-0.4,0.4c-0.1-0.1-0.2-0.2-0.3-0.4C120.4,15.8,120.6,15.8,120.8,15.8z
			 M129.4,30.6c-0.1,0.1-0.2,0.1-0.2,0.2c-0.1-0.1-0.2-0.2-0.3-0.3c2.2-1.2,4-3,5.3-5.1c0.2,0.1,0.3,0.1,0.5,0.2c0,0,0,0,0,0
			c0,0.1-0.1,0.2-0.1,0.3C133.3,27.8,131.2,29.1,129.4,30.6z M135.7,18.9c0-0.5-0.1-1.1-0.1-1.6c-0.1-0.8-0.4-1.5-0.7-2.1
			c1.2,0,2.5,0,3.7,0.1c0.4,0,0.7,0,1.1,0.1c-0.2,0.6-0.5,1.2-0.7,1.8C137.9,17.9,136.6,18.5,135.7,18.9z M131.7,5.6
			c-0.4-0.4-0.8-0.7-1.2-1c0.9,0.2,1.8,0.4,2.6,0.7C132.7,5.3,132.2,5.4,131.7,5.6z M114.7,17.3c0.1-0.3,0.1-0.5,0.2-0.8
			c0.1-0.1,0.3-0.1,0.4-0.2c0.9-0.2,1.9-0.4,2.8-0.4c0.3,0.8,0.8,1.6,1.3,2.4c0,0.1,0,0.1-0.1,0.2c-1.2-0.1-2.3-0.3-3.4-0.6
			c-0.3-0.1-0.7-0.2-1-0.3C114.9,17.4,114.8,17.4,114.7,17.3z M136.9,26.6C136.9,26.6,137,26.6,136.9,26.6c0,0.2-0.1,0.3-0.2,0.4
			C136.8,26.9,136.9,26.7,136.9,26.6z M115.1,20.9c0.2,0.3,0.2,0.7-0.2,1.3c0,0,0,0.1-0.1,0.1c-0.1-0.5-0.1-1-0.2-1.5
			C114.8,20.8,114.9,20.8,115.1,20.9z M138.5,23.7C138.5,23.7,138.5,23.7,138.5,23.7c0.1-0.3,0.3-0.6,0.4-0.9c0.1,0.5,0.3,1,0.5,1.2
			C139,23.9,138.8,23.8,138.5,23.7z M140,20.8c1-0.8,1.7-1.8,2-3c0.2-0.7,0.2-1.4,0.1-2.1c1.5,0.3,2.8,1,3.5,2.3
			c0,0.1-0.1,0.2-0.1,0.4C144.3,20.7,142.2,20.8,140,20.8z M142.4,11.8c0-1,0-1.9-0.2-2.8c0.2,0.1,0.5,0.1,0.7,0.2
			C144.1,9.6,142.8,11,142.4,11.8z M106.9,25c-3.4-2-0.5-3.5,1.6-4.8c0,0,0.1,0,0.1-0.1c0.8,1.3,2.1,2.7,3.1,1.6
			c0.4-0.4,0.7-1.2,1-2.1c0.1,0,0.1,0.1,0.2,0.1c0,0,0.1,0.1,0.1,0.1c0.1,1.6,0.3,3.2,0.8,4.7c0,0.1-0.1,0.3-0.1,0.4
			c-0.3,0.1-0.6,0.1-0.9,0.2c-1.3,0.4-1.9,1-2.2,1.8C109.3,26.4,108.1,25.7,106.9,25z M112.1,32.8c0.3-0.1,0.5-0.1,0.8,0
			c0.4,0.4,0.8,0.7,1.2,1c0.2,0.6,0.4,1.1,0.7,1.6c-0.7-0.1-1.3,0-1.9,0c-0.6,0-1.2,0-1.8,0.1C110.3,34.4,110.7,33.1,112.1,32.8z
			 M123.9,36.8c-2.5,2-5,0.1-6.9-1.8c-0.4-0.4-0.7-0.8-1-1.3c0-0.2,0-0.4,0-0.7c1.3,0.5,2.6,1,4,1.4c1.9,0.6,4,0.8,6.1,0.9
			C125.7,35.9,124.5,36.4,123.9,36.8z M141.2,24.5c0-0.1,0-0.1,0-0.2c1.3,0,2.3-0.1,3.3-0.7C143.7,24.4,142.6,24.7,141.2,24.5z"/>
	</g>
</g>
</svg>
