<?xml version="1.0" encoding="utf-8"?>
<!-- Generator: Adobe Illustrator 22.1.0, SVG Export Plug-In . SVG Version: 6.00 Build 0)  -->
<svg version="1.1" id="レイヤー_1" xmlns="http://www.w3.org/2000/svg" xmlns:xlink="http://www.w3.org/1999/xlink" x="0px"
	 y="0px" viewBox="0 0 169 303" style="enable-background:new 0 0 169 303;" xml:space="preserve">
<style type="text/css">
	.st0{opacity:6.000000e-02;}
</style>
<g class="st0">
	<path d="M142.9,235.9c0-2.1,21-54.5,21.6-56.6c0.5-2,0.5-12.3-1.6-18.5c-2.1-6.2-9.5-13.9-12.1-15.5c-2.6-1.6-31.6-14.4-31.6-14.4
		s-3.2-3.1-4.7-5.6c-1.6-2.6-4.2-3.1-4.2-3.1l-0.5-8.2c0,0,13.2-11.8,14.2-14.4c1.1-2.6,3.7-23.1,0.5-29.8c-3.2-6.7-8.9-7.2-8.9-7.2
		c-3.7-3.1-3.7-10.3-11.6-12.8c-7.9-2.6-14.2-1-22.1-1.6c-7.9-0.5-11.5-2.6-11.5-2.6l1,6.2l-4.7-1c0,0-1.1,6.7,0.5,8.8
		c-1.6,0-1.1,7.7-1.1,7.7L64,79.5c0,0-3.2,12.8-2.6,18.5c0.1,1.4,0.5,3.6,0.9,5.9l-5.2,2.3c0,0-2.3,2.2-2.6,4.1
		c-0.5,3.4-2.5,7-2.5,7s-6,13.8-7.1,14.8c-1.1,0.9-1.9,3.5-1.9,3.5l-6.1,9.2c-1,0-1.9,0.3-2.9,1.1c-3.2,2.6-8.4,6.7-11.1,15.4
		c-4.2,5.7-3.2,8.8-3.2,10.3c0,1.6-9.5,23.7-13.1,28.8c-3.7,5.1-7.9,26.2-6.3,29.3c1.6,3.1,7.3,10.3,12.1,10.3c4.7,0,9-1,9-1
		s0,3.6,0.5,4.6c0,1.6,1.1,4.1,1.1,5.2c-0.5,1-0.5,4.1,2.6,6.7c1.6,2.6,6.8,2,6.8,2l-5.8,35c0,0-0.8,4-1.8,9.8h120.9
		c-4.6-21.8-9.7-46.3-9.7-46.3s2.6-7.7,4.8-9.2C142.9,245.1,142.9,237.9,142.9,235.9z M59,109.6l4-2.3c0.7,3.4,1.6,6.9,2.3,9.4
		c-1.8-2-3.3-2.9-3.3-2.9l-4,0L59,109.6z M74.5,132c0,0-10,6.5-19.2,10.6c0.8-2.8,1.9-5.6,3.1-6.1c6.5-2.9,3.4-5.6,9-7.3
		c1.2-0.8,1.5-5.3,1-7.8c2.8,0.9,6.7-0.2,6.7-0.2L74.5,132z"/>
	<path d="M167.9,29.5c-0.1-1-1.1-1.2-0.5-2.4c0.6-1.2,0.5-2,0.3-3.4c-0.2-1.4-1-2.2-2-3c1.1-1.5,1.7-2.6,1.6-5.1
		c-0.1-1.8-0.9-3.7-2.2-5c-0.3-1.9-2.4-2.8-4.7-3.3c0,0,0,0,0,0c-0.2-1.1-0.4-1.9-1.1-2.8c-1.6-2.2-5.4-3.1-7.9-3.6
		c-2.9-0.6-5.4-1.4-8.4-0.4c-1.3,0.4-2.8,1.8-3,3.3c-0.4,0.2-0.8,0.5-1.2,0.7c-0.3,0.2-0.6,0.4-0.9,0.7c-1.9,1-3.6,2.4-4.2,4
		c-4.1,0.7-6.5,3.4-5.4,7.8c0.2,0.9,0.5,1.7,1,2.4c-0.2,0.2-0.4,0.4-0.6,0.6c-2.2,2.6-1.3,4.7,0.6,6.4c-0.7,0.8-1.1,1.8-1.1,3
		c-0.1,2.2,1,3.4,2.6,4.1c-0.1,0.7,0,1.4,0.6,2c-0.9,1.4-1.5,2.9-1.4,4.3c0.2,2,1.1,2.5,2.4,2.7c-0.2,0.2-0.4,0.3-0.6,0.5
		c-0.3,0.2-0.6,0.3-0.9,0.6c-0.4,0.3-0.4,0.9-0.3,1.4c-0.1,0.6-0.1,1.2,0.1,1.9c0.6,2.3,3.8,1.7,5.3,1.1c0.8-0.3,1.2-0.7,1.4-1.2
		c0.5-0.2,0.9-0.4,1.3-0.7c0.5-0.3,0.7-0.8,0.7-1.4c0-0.2,0-0.4-0.1-0.6c1.7-0.2,3.6-0.2,4.4-1.9c0,0,0,0,0,0
		c0.9,0.2,1.9,0.2,2.9,0.2c2.1,0,4.9-1.4,6.4-2.7c1-0.8,1.1-1.6,0.9-2.4c0.4-0.3,0.6-0.6,0.9-0.9c1.7-0.4,3.5-0.9,4-2.1
		c0.6-0.3,1.1-0.6,1.6-1c0.1-0.1,0.3-0.2,0.4-0.3C164,32.8,168.3,33,167.9,29.5z M163.9,26.6c-0.1-0.3-0.2-0.5-0.3-0.7
		c0.2-0.1,0.4-0.1,0.5-0.2C164.1,26,164,26.3,163.9,26.6z M131.5,21.9c0.1,0,0.1,0.1,0.2,0.1c1.3,1,0.1-0.3-0.5,1
		c-0.1,0.2-0.2,0.4-0.3,0.7C130.6,23.1,130.8,22.5,131.5,21.9z M133.7,30.9c-0.1,0-0.1,0-0.1,0c-0.2,0-0.4,0-0.6-0.1
		c-0.6-0.5-0.6-1.4-0.4-2.3c0.3,0.1,0.6,0.3,0.8,0.4c0.8,0.4,1.5,0.7,2.3,1c0.3,0.3,0.7,0.5,1.2,0.8c-0.6,0.1-1.1,0.4-1.2,1
		c-0.3-0.5-0.8-0.8-1.5-0.8C134,30.9,133.9,30.9,133.7,30.9C133.7,30.9,133.7,30.9,133.7,30.9z M160.3,23.6
		c-0.1-0.2-0.2-0.5-0.4-0.7c0.1-0.4,0.2-0.9,0.2-1.4c0.2-0.1,0.4-0.1,0.6-0.2c0.3,0.1,0.8,0.2,1.2,0.4c0.2,0.3,0.4,0.5,0.7,0.7
		c0.1,0.1,0.2,0.1,0.3,0.2c0,0.2-0.3,0.4-0.9,0.6C161.4,23.3,160.8,23.4,160.3,23.6z M140,35c-0.2-0.5-0.3-1-0.5-1.4
		c0.5-0.6,1.1-0.9,1.5-0.4c0.3,0.4,0.6,0.6,1,0.7c-0.3,0.3-0.5,0.7-0.4,1.2c0,0,0,0,0,0C141.1,35.1,140.6,35.1,140,35z M134.4,26.1
		c0.7-0.6,1.5-1.2,2.1-1.9c0.3-0.3,0.4-0.8,0.3-1.2c0.2,0.2,0.5,0.4,0.7,0.6c1,0.7,2.5,0.7,3.7,0.8c-2.1,0.6-4.7,0.7-5.9,2.2
		C135.1,26.4,134.8,26.3,134.4,26.1z M155.2,12.5c0.2-0.1,0.4-0.1,0.6-0.1c1.4,0,3.2,0.2,4.1,1.2c-0.8,0.8-1.8,1.4-2.7,2.1
		c-1.2-1-2.8-1.6-4.3-1.4c-0.2-0.1-0.4-0.1-0.6-0.2C153.3,13.6,154.3,13.1,155.2,12.5z M148.8,27.1c0,0.1,0,0.2,0.1,0.3
		c-0.5,0-0.9-0.1-1.2,0c-3.1,0.2-0.7-2.2,0-3.5c0.4,0,0.7,0,1.1,0C149.2,23.9,148.7,26.6,148.8,27.1z M142.9,27.1
		c0,0.1,0,0.3,0.1,0.4c-0.4,0.3-0.9,0.5-1.7,0.4c-0.3,0-0.5-0.1-0.8-0.1C141.3,27.6,142.1,27.4,142.9,27.1z M146.5,33.5
		c-0.3-0.1-0.6-0.1-0.9,0c-0.6-0.2-1.1-0.4-1.7-0.3c0.3-0.4,0.3-1-0.1-1.6c-0.1-0.2-0.3-0.3-0.4-0.5c0.3,0,0.6-0.1,0.9-0.3
		c1.3-0.7,2.1-0.2,3.5,0.4c0.5,0.2,1.1,0.4,1.6,0.4c-0.2,0.9,0.1,1.7,0.6,2.4C148.6,34,146.8,33.6,146.5,33.5z M154.2,27.1
		c-0.6-0.6-1.3-1-2.1-1.3c0.2-1.5,0.8-2.9-0.6-4.1c-1.8-1.6-5.3-0.8-7.6-1.1c-0.1,0-0.2,0-0.3,0c1.9-1,3.4-1.5,5.8-0.5
		c1.5,0.6,2.9,0.7,4.2,0.5c0.3,0.4,0.8,0.7,1.7,0.8c0.4,0.1,0.8,0.1,1.3,0.1c0,0,0,0,0,0c-0.5,0.1-0.3,0.3-0.4,1
		c-0.1,0.1-0.2,0.2-0.3,0.3c-0.4,0.6-0.3,1.5,0.2,2.1c0,0.1,0,0.1,0.1,0.2c0,0,0,0,0,0.1c-0.3,0.4-0.7,0.7-1.1,1
		C154.9,26.5,154.5,26.8,154.2,27.1z M143.7,15.9C143.8,15.9,143.8,15.9,143.7,15.9c0.6,0,0.8,0.3,1,0.6c-0.9,0.2-1.8,0.6-2.7,1.1
		c-0.2,0.1-0.4,0.2-0.7,0.3C142.1,17.2,143,16.6,143.7,15.9z M142.7,21.2C142.7,21.2,142.7,21.2,142.7,21.2
		C142.7,21.2,142.7,21.2,142.7,21.2C142.7,21.2,142.7,21.2,142.7,21.2C142.7,21.2,142.7,21.2,142.7,21.2z M153.8,31.1
		c1.4-0.5,2.7-1.4,3.8-2.4c-0.1,0.2-0.3,0.5-0.6,0.7c-0.5,0.6-1.7,1.5-2.7,2.2C154.2,31.4,154,31.3,153.8,31.1z M150.9,10.3
		c0.3-0.4,0.7-0.5,1.2-0.6C151.6,9.9,151.2,10.1,150.9,10.3z M147.2,12c0.1,0.5,0.2,1.1,0.4,1.5c0.3,0.5,0.5,1,0.8,1.5
		c-0.6,0-1.1-0.2-1.5-0.7c-0.3-0.5-0.8-0.8-1.3-1C146.1,12.8,146.7,12.4,147.2,12z M139.1,9.6c0.1-0.2,0.2-0.4,0.3-0.7
		c0.7-0.1,1.5-0.2,1.9-0.3c0.7-0.1,1.4-0.1,2.1-0.1c0.4,0.3,0.9,0.6,1.2,0.9c-0.5,0.2-1,0.4-1.3,0.8c-0.7,0.8-1,1.7-1.6,2.5
		c-0.4,0-0.8,0.1-1.2,0.1c-1.1,0.1-2.2-0.3-2.9-0.9C138.5,11.5,138.8,10.5,139.1,9.6z M135.8,21.6c-0.5-0.4-0.9-0.8-1.2-1.3
		c0.4-0.1,0.7-0.1,1.1-0.1C135.6,20.7,135.6,21.1,135.8,21.6z M134.6,37.4c-0.5,0.3-0.9,0.7-1.2,1.1c0.2-0.4,0.4-0.9,0.6-1.3
		C134.2,37.3,134.4,37.3,134.6,37.4z M164,15.7c0.1,1.3-0.3,2.1-0.9,3c0.5-1.1,0.5-2.4,0.3-3.7c0.1-0.2,0.3-0.3,0.4-0.5
		C163.9,14.9,164,15.3,164,15.7z M151.4,6.5c-1.1,0.1-2.1,0.3-2.7,0.9c-0.3,0.3-0.6,0.8-0.8,1.2c-0.3-0.4-0.6-0.8-0.9-1.2
		c0-0.1,0.1-0.1,0.1-0.2C147.2,5.9,149.8,6.2,151.4,6.5z M134.4,15.8c0.3-0.6,0.7-1.1,1-1.6c1,0.9,2.1,1.4,3.5,1.7
		c-0.5,0.5-1,1-1.4,1.5c-0.8-0.3-1.6-0.6-2.5-0.6c-0.3,0-0.7,0-1,0.1C134,16.5,134.2,16.2,134.4,15.8z M136.5,41.3
		c0-0.1,0-0.2-0.1-0.3c0.1,0.1,0.3,0.1,0.4,0.2C136.7,41.3,136.6,41.3,136.5,41.3z M147.7,3.2c-0.8,0.2-1.5,0.4-2.1,0.6
		c-0.1-0.2-0.3-0.4-0.5-0.5C145.9,3,146.8,3,147.7,3.2z M132,13.2c-0.3,0.4-0.5,0.7-0.7,1.1C131.4,13.9,131.6,13.5,132,13.2z
		 M163.6,29.4c0.1-0.3,0.2-0.7,0.3-1.1c0.1,0.5,0.4,0.9,0.7,1.4C164.4,29.5,164,29.4,163.6,29.4z"/>
</g>
</svg>
