<?xml version="1.0" encoding="utf-8"?>
<!-- Generator: Adobe Illustrator 22.1.0, SVG Export Plug-In . SVG Version: 6.00 Build 0)  -->
<svg version="1.1" id="レイヤー_1" xmlns="http://www.w3.org/2000/svg" xmlns:xlink="http://www.w3.org/1999/xlink" x="0px"
	 y="0px" viewBox="0 0 157 291" style="enable-background:new 0 0 157 291;" xml:space="preserve">
<style type="text/css">
	.st0{fill:#FFFFFF;}
</style>
<g>
	<path class="st0" d="M130.1,189.6c-2.7-5.3,0.5-23.2-4.2-35.4c-4.8-12.1-23.8-13.2-30.1-14.2c-6.3-1.1-12.7-3.7-14.8-9
		c0,0-2.1-1.6-1-4.2c10-7.4,10.5-19.5,12.7-21.1c2.1-1.6,8.4-5.3,10.6-17.4c2.1-12.1-6.9-39.1-28-38C53.5,45.5,43.5,65,39.8,74.6
		c-6.3-1.1-4.9,14.8-4.8,16.3c1.1,13.8,4.2,5.3,3.7,15.9c-0.1,3.2,2.1,9,2.1,9s-7.4,6.9-7.9,9.5c-0.6,2.7,0,14.8,0,14.8
		s0,2.1-7.9,3.2c-7.9,1-23.2,13.7-21.1,24.8c2.1,11.1,5.8,29.5,6.3,31.1c0.5,1.6-1.1,19-1.1,19c-3.7-0.6-7.9,4.7-6.3,5.8
		c-2.7,1.1-3.7,7.4-2.1,10c-0.5,2.7,0,3.2,2.1,5.8c-2.7,2.1-1.6,3.7,3.2,5.3c4.7,1.6,15.3-1.6,20.1-1.6c0,0-0.8,7.4-0.8,14.8
		c0,4.3-7.2,13.8-10.9,31.7h105.8c-1.5-10.2-4.6-21.1-9.7-32.8c13.6-0.1,22.4-3.2,22.7-8.9C133.8,238.7,132.7,194.9,130.1,189.6z"/>
	<g>
		<path class="st0" d="M153.1,12.3C153.1,12.3,153.1,12.3,153.1,12.3C153.1,12.3,153.1,12.3,153.1,12.3z"/>
		<path class="st0" d="M155.4,19.3c0-0.7-0.1-1.4-0.3-2c-0.1-1-0.4-2.1-0.9-2.9c-0.5-0.7-1-1-1.6-1.3c0.2-0.4,0.4-0.8,0.4-0.8
			c0.3-0.8,0.2-1.8,0.1-2.6c-0.4-2.5-2.3-4-4.6-4.5c-0.3-0.1-0.6-0.1-1-0.2c-0.7-0.7-1.6-1.3-2.8-1.7c-1.2-0.5-2.4-1-3.6-1.4
			c-0.1-0.1-0.2-0.2-0.3-0.3c-1.2-1-4.1-2-5.9-1.1c-0.9-0.1-1.8-0.1-2.7,0c-1.2-0.5-2.6-0.7-4.1-0.6c-1.2,0.1-2.6,0.3-4,0.7
			c-1.1,0.2-2.1,0.5-3,1c-0.2,0.1-0.5,0.3-0.7,0.4c-3.9,1.9-7.4,5-7.5,8.9c-0.1,2.3,0.3,4.3,1,6.3c-2.9,1.9-5.4,4.3-4.3,8
			c0.7,2.3,3.5,3.4,5.4,4.5c0.5,0.3,1,0.6,1.5,0.8c-0.6,0.5-1,1.2-1.2,2.2c-0.1,1.2,0,2.4,0.4,3.5c-1.2,0-2.3,0.1-3.5,0.1
			c-0.2,0-0.3,0.2-0.3,0.3c-0.5,1.1-0.2,2.5,0.6,3.8c-0.4,0.8-0.7,1.8-0.7,2.6c0,1.1,1.5,4,1.6,1.6c0-0.5,0.5-1.2,1.1-1.8
			c1.7,1.6,3.7,2.3,4.2,0.8c0.5-1.3,0-3-1-4c0.1,0,0.3,0,0.4,0c0.8,0.7,1.6,1.2,2.7,1.5c2,0.6,3.4-0.4,3.6-1.9
			c0.6,0.6,1.3,1.2,2,1.7c3.1,2.3,6.1,0.2,8.6-2c0.7-0.6,0.1-1.9,0.4-2.7c0-0.1,0.3-0.3,0.6-0.5c0.5,0,1-0.1,1.5-0.1
			c1.3-0.1,2.5-0.5,3.5-1.1c1.9-0.5,3.7-1.6,4.8-3.4c0.4-0.6,0.7-1.2,0.9-1.8c0.3-0.4,0.6-0.8,0.9-1.2c2,0.6,3.9,0.8,5.5-0.3
			C155.3,26.3,155.5,21.9,155.4,19.3z M122,29.8c0-0.3,0-0.5,0-0.8c0.1,0,0.1,0,0.2,0c0.3,0.5,0.5,0.9,0.8,1.2
			C122.7,30.1,122.4,30,122,29.8z M148.3,12.2c-0.3-0.1-0.6-0.1-0.9-0.1c-1.4-1.1-3.2-1.9-5.1-2.3c0.3-0.3,0.4-0.6,0.5-0.9
			c0,0,0,0,0,0c1.3-0.1,2.5-0.1,3-0.1c0.6,0,1.1,0,1.7,0C148.3,9.6,148.5,10.7,148.3,12.2z M116,11c0.4,1.4,1.2,2.5,2.3,3.2
			c-0.1,0.3-0.1,0.5-0.2,0.8c-0.2,0.1-0.3,0.2-0.5,0.3c-0.1,0.1-0.3,0.1-0.4,0.2C114.6,13.9,114.7,12.3,116,11z M126.4,22.4
			c0,0.1,0,0.1,0,0.2c-0.6-0.2-1.2-0.3-1.9-0.4c0,0,0,0-0.1,0c0,0,0,0,0-0.1C125.1,22.3,125.7,22.4,126.4,22.4z M136.3,19.6
			c-1.2-0.3-2.5-0.4-3.8-0.5c0.3-0.5,0.6-1.1,0.9-1.6c1.3-0.4,2.7-0.6,4.1-0.6c-0.3,0.9-0.6,1.9-0.7,2.8
			C136.7,19.7,136.5,19.7,136.3,19.6z M134.7,7.3c0.1,0.8,0,1.5-0.1,2.2c-1,0.1-1.9,0.2-2.9,0.4c-0.1-0.1-0.1-0.1-0.2-0.2
			c-1.6-1.1-3.2-1.6-4.5-1.5c0.2-0.4,0.4-0.8,0.6-1.1c1.7-2.8,2.8-2,5.4-1.4c0.5,0.1,0.9,0.2,1.3,0.4C134.5,6.4,134.7,6.9,134.7,7.3
			z M124.6,8.2c-0.1,0.3-0.1,0.5-0.2,0.8c-0.5,0.3-0.9,0.6-1.3,1C123.6,9.4,124.1,8.8,124.6,8.2z M128.9,22.4
			c-0.1,0.3-0.1,0.6-0.2,0.9c-0.4-0.1-0.7-0.2-1-0.3c0-0.2-0.1-0.4-0.1-0.6C128.1,22.4,128.5,22.4,128.9,22.4z M127.7,26.5
			C127.7,26.5,127.7,26.5,127.7,26.5c-0.7-0.2-1.5-0.5-2.2-0.7C126.2,25.9,127.1,26.2,127.7,26.5z M133.2,28.6
			c-0.2,0.1-0.4,0.2-0.6,0.2c-0.4-0.2-0.8-0.4-1.2-0.6c0.3-0.1,0.7-0.4,1-0.8c0.6-0.7,0.4-2.8-0.4-3.3c-0.4-0.3-0.9-0.5-1.3-0.6
			c0.1-0.4,0.2-0.7,0.4-1.1c1.4,0.7,2.9,1.2,4.4,1.4c0.8,0.1,1.7,0.1,2.7,0.1c0.3,0.3,0.6,0.5,0.9,0.7
			C137.4,26.4,135.3,27.6,133.2,28.6z M139.1,20.3c-0.1,0-0.2-0.1-0.3-0.1c0.3-1.2,0.7-2.2,1.3-3.2c1.4,0.4,1.7,1.5,1.5,2.9
			C140.8,20.1,140,20.2,139.1,20.3z M136.3,7.1c0-0.1,0-0.2,0-0.3c0.1,0,0.1,0.1,0.2,0.1C136.4,7,136.4,7.1,136.3,7.1z M121.4,7.8
			c-0.7,1.1-1.4,2.3-2,3.5c-0.9-0.4-1.6-0.9-1.6-1.7C118.9,8.9,120.2,8.3,121.4,7.8z M128,16.1c-0.1,0.1-0.3,0.3-0.4,0.4
			c-0.1-0.1-0.2-0.2-0.3-0.4C127.5,16.2,127.7,16.2,128,16.1z M136.7,31.3c-0.1,0.1-0.2,0.1-0.3,0.2c-0.1-0.1-0.2-0.2-0.3-0.3
			c2.3-1.2,4.1-3,5.4-5.2c0.2,0.1,0.3,0.1,0.5,0.2c0,0,0,0,0,0c-0.1,0.1-0.1,0.2-0.2,0.3C140.7,28.5,138.6,29.8,136.7,31.3z
			 M143.2,19.3c0-0.5-0.1-1.1-0.1-1.6c-0.1-0.8-0.4-1.5-0.7-2.1c1.3,0,2.5,0,3.8,0.1c0.4,0,0.8,0,1.1,0.1c-0.2,0.6-0.5,1.2-0.8,1.8
			C145.5,18.3,144.1,19,143.2,19.3z M139.1,5.7c-0.4-0.4-0.8-0.7-1.2-1c0.9,0.2,1.8,0.4,2.7,0.7C140.1,5.4,139.6,5.5,139.1,5.7z
			 M121.7,17.7c0.1-0.3,0.1-0.5,0.2-0.8c0.1-0.1,0.3-0.1,0.4-0.2c0.9-0.2,1.9-0.4,2.9-0.4c0.4,0.9,0.8,1.7,1.4,2.4
			c0,0.1,0,0.1-0.1,0.2c-1.2-0.1-2.4-0.3-3.5-0.7c-0.3-0.1-0.7-0.2-1-0.3C121.9,17.9,121.8,17.8,121.7,17.7z M144.4,27.3
			C144.5,27.3,144.5,27.3,144.4,27.3c0,0.2-0.1,0.3-0.2,0.4C144.3,27.5,144.4,27.4,144.4,27.3z M122,21.4c0.2,0.3,0.2,0.7-0.2,1.3
			c0,0,0,0.1-0.1,0.1c-0.1-0.5-0.1-1-0.2-1.6C121.7,21.3,121.9,21.3,122,21.4z M146,24.3C146,24.2,146,24.2,146,24.3
			c0.1-0.3,0.3-0.6,0.4-0.9c0.1,0.5,0.3,1,0.5,1.2C146.6,24.5,146.3,24.4,146,24.3z M147.6,21.3c1-0.8,1.7-1.8,2-3.1
			c0.2-0.8,0.2-1.5,0.1-2.1c1.6,0.3,2.9,1,3.5,2.3c0,0.1-0.1,0.2-0.1,0.4C152,21.2,149.8,21.3,147.6,21.3z M150,12c0-1,0-2-0.2-2.9
			c0.2,0.1,0.5,0.1,0.7,0.2C151.8,9.8,150.4,11.2,150,12z M113.7,25.6c-3.5-2-0.5-3.6,1.6-5c0,0,0.1-0.1,0.1-0.1
			c0.8,1.4,2.1,2.8,3.2,1.6c0.4-0.4,0.7-1.3,1-2.1c0.1,0,0.1,0.1,0.2,0.1c0,0,0.1,0.1,0.1,0.1c0.1,1.7,0.3,3.3,0.8,4.8
			c0,0.1-0.1,0.3-0.1,0.5c-0.3,0.1-0.6,0.1-0.9,0.2c-1.3,0.4-2,1-2.3,1.9C116.2,27,114.9,26.4,113.7,25.6z M119,33.6
			c0.3-0.1,0.5-0.1,0.8,0c0.4,0.4,0.8,0.7,1.3,1c0.2,0.6,0.4,1.1,0.7,1.6c-0.7-0.1-1.4,0-2,0c-0.6,0-1.2,0-1.8,0.1
			C117.2,35.3,117.6,33.9,119,33.6z M131.1,37.7c-2.6,2-5.1,0.1-7-1.9c-0.4-0.4-0.7-0.9-1-1.4c0-0.2,0-0.4,0-0.7
			c1.3,0.5,2.7,1,4.1,1.4c2,0.6,4.1,0.8,6.2,0.9C132.9,36.8,131.7,37.3,131.1,37.7z M148.8,25.1c0-0.1,0-0.1,0-0.2
			c1.4,0,2.4-0.1,3.4-0.8C151.4,25,150.2,25.3,148.8,25.1z"/>
	</g>
</g>
</svg>
