<!-- Generator: Adobe Illustrator 22.1.0, SVG Export Plug-In  -->
<svg version="1.1"
xmlns="http://www.w3.org/2000/svg" xmlns:xlink="http://www.w3.org/1999/xlink" xmlns:a="http://ns.adobe.com/AdobeSVGViewerExtensions/3.0/"
x="0px" y="0px" width="160.8px" height="115.6px" viewBox="0 0 160.8 115.6" style="enable-background:new 0 0 160.8 115.6;"
xml:space="preserve">
<style type="text/css">
.st0{opacity:0.75;}
.st1{fill:#3D3D3D;}
.st2{fill:#276120;}
.st3{fill:#FF5400;}
.st4{fill:#FEBD00;}
</style>
<defs>
</defs>
<g>
<g class="st0">
<path class="st1" d="M1.4,103.7c0.8-0.8,1.8-1.2,3.1-1.2c1.7,0,2.9,0.6,3.7,1.7c0.4,0.6,0.7,1.2,0.7,1.9H6.7
c-0.1-0.5-0.3-0.8-0.5-1.1c-0.4-0.4-0.9-0.7-1.7-0.7c-0.7,0-1.3,0.3-1.8,0.9s-0.6,1.5-0.6,2.6c0,1.1,0.2,2,0.7,2.5
c0.5,0.6,1,0.8,1.7,0.8c0.7,0,1.3-0.2,1.6-0.7c0.2-0.3,0.4-0.6,0.5-1.2h2.1c-0.2,1.1-0.6,2-1.4,2.7c-0.7,0.7-1.7,1-2.8,1
c-1.4,0-2.5-0.5-3.4-1.4c-0.8-0.9-1.2-2.2-1.2-3.8C0,106,0.5,104.6,1.4,103.7z"/>
<path class="st1" d="M11.8,102.6l1.3,5.7l0.3,1.6l0.3-1.6l1.1-5.8h2.2l1.2,5.7l0.3,1.6l0.3-1.5l1.3-5.8h2.1l-2.8,10h-2l-1.2-5.9
l-0.4-1.9l-0.4,1.9l-1.2,5.9h-1.9l-2.8-10H11.8z"/>
<path class="st1" d="M27.5,102.6h7.1v1.8h-5.1v2.3H34v1.7h-4.4v4.2h-2.1V102.6z"/>
<path class="st1" d="M38.8,108.1c0.4,0,0.6-0.1,0.8-0.2c0.3-0.1,0.4-0.3,0.4-0.6c0-0.3-0.1-0.5-0.3-0.6c-0.2-0.1-0.5-0.2-0.9-0.2
c-0.5,0-0.8,0.1-1,0.3c-0.1,0.2-0.2,0.4-0.3,0.7h-1.9c0-0.6,0.2-1.2,0.5-1.6c0.5-0.7,1.4-1,2.6-1c0.8,0,1.5,0.2,2.2,0.5
c0.6,0.3,0.9,0.9,0.9,1.8v3.4c0,0.2,0,0.5,0,0.9c0,0.3,0.1,0.4,0.1,0.5c0.1,0.1,0.2,0.2,0.3,0.2v0.3h-2.1
c-0.1-0.1-0.1-0.3-0.1-0.4c0-0.1,0-0.3-0.1-0.4c-0.3,0.3-0.6,0.5-0.9,0.7c-0.4,0.2-0.9,0.4-1.4,0.4c-0.7,0-1.2-0.2-1.7-0.6
c-0.4-0.4-0.7-0.9-0.7-1.6c0-0.9,0.4-1.6,1.1-2c0.4-0.2,1-0.4,1.7-0.5L38.8,108.1z M39.9,109c-0.1,0.1-0.2,0.1-0.4,0.2
c-0.1,0-0.3,0.1-0.5,0.1l-0.4,0.1c-0.4,0.1-0.7,0.2-0.9,0.3c-0.3,0.2-0.5,0.5-0.5,0.8c0,0.3,0.1,0.6,0.3,0.7
c0.2,0.1,0.4,0.2,0.7,0.2c0.4,0,0.8-0.1,1.2-0.4c0.4-0.2,0.5-0.7,0.6-1.3V109z"/>
<path class="st1" d="M48,107.9c0-0.3-0.1-0.5-0.3-0.7c-0.2-0.3-0.6-0.4-1-0.4c-0.7,0-1.1,0.3-1.3,1c-0.1,0.3-0.2,0.8-0.2,1.4
c0,0.5,0.1,1,0.2,1.3c0.2,0.6,0.7,0.9,1.3,0.9c0.5,0,0.8-0.1,1-0.4c0.2-0.2,0.3-0.6,0.3-1h2c0,0.6-0.3,1.1-0.6,1.7
c-0.6,0.8-1.5,1.3-2.7,1.3c-1.2,0-2.1-0.4-2.6-1.1c-0.6-0.7-0.8-1.6-0.8-2.7c0-1.3,0.3-2.3,0.9-3c0.6-0.7,1.5-1.1,2.6-1.1
c0.9,0,1.7,0.2,2.3,0.6c0.6,0.4,0.9,1.2,1.1,2.2H48z"/>
<path class="st1" d="M53.3,104.4h-2v-1.8h2V104.4z M51.3,105.2h2v7.4h-2V105.2z"/>
<path class="st1" d="M57.1,112.6h-1.9v-10h1.9V112.6z"/>
<path class="st1" d="M61,104.4h-2v-1.8h2V104.4z M59.1,105.2h2v7.4h-2V105.2z"/>
<path class="st1" d="M62.1,106.7v-1.4h1v-2.1h1.9v2.1h1.2v1.4h-1.2v3.9c0,0.3,0,0.5,0.1,0.6c0.1,0.1,0.3,0.1,0.7,0.1
c0.1,0,0.1,0,0.2,0c0.1,0,0.1,0,0.2,0v1.4l-0.9,0c-0.9,0-1.5-0.1-1.9-0.5c-0.2-0.2-0.3-0.6-0.3-1v-4.6H62.1z"/>
<path class="st1" d="M67.8,114.1l0.2,0c0.2,0,0.4,0,0.5,0c0.2,0,0.3-0.1,0.4-0.2c0.1-0.1,0.2-0.2,0.3-0.5c0.1-0.2,0.1-0.4,0.1-0.4
l-2.7-7.7h2.2l1.6,5.5l1.5-5.5h2.1l-2.5,7.3c-0.5,1.4-0.9,2.3-1.2,2.6c-0.3,0.3-0.9,0.5-1.7,0.5c-0.2,0-0.3,0-0.4,0
c-0.1,0-0.3,0-0.5,0V114.1z"/>
<path class="st1" d="M80.8,109.6c0.1,0.5,0.2,0.8,0.4,1c0.3,0.4,0.9,0.6,1.8,0.6c0.5,0,0.9-0.1,1.2-0.2c0.6-0.2,0.9-0.6,0.9-1.2
c0-0.3-0.1-0.6-0.4-0.8c-0.3-0.2-0.8-0.3-1.4-0.5l-1.1-0.2c-1.1-0.2-1.8-0.5-2.2-0.8c-0.7-0.5-1-1.2-1-2.2c0-0.9,0.3-1.6,1-2.2
c0.7-0.6,1.6-0.9,2.9-0.9c1.1,0,2,0.3,2.7,0.8c0.8,0.6,1.1,1.4,1.2,2.4h-2c0-0.6-0.3-1-0.8-1.3c-0.3-0.2-0.7-0.3-1.2-0.3
c-0.6,0-1,0.1-1.3,0.3c-0.3,0.2-0.5,0.5-0.5,0.9c0,0.4,0.2,0.6,0.5,0.8c0.2,0.1,0.7,0.3,1.3,0.4l1.8,0.4c0.8,0.2,1.3,0.4,1.7,0.7
c0.6,0.5,0.9,1.2,0.9,2c0,0.9-0.4,1.7-1.1,2.3c-0.7,0.6-1.7,0.9-3,0.9c-1.3,0-2.4-0.3-3.1-0.9c-0.8-0.6-1.1-1.4-1.1-2.5H80.8z"/>
<path class="st1" d="M94.6,111.7c-0.6,0.8-1.6,1.2-2.8,1.2c-1.3,0-2.2-0.4-2.8-1.2C88.3,111,88,110,88,109c0-1.1,0.3-2,0.9-2.8
c0.6-0.8,1.6-1.2,2.8-1.2c1.3,0,2.2,0.4,2.8,1.2c0.6,0.8,0.9,1.7,0.9,2.8C95.5,110,95.2,111,94.6,111.7z M93.1,110.7
c0.3-0.4,0.5-1,0.5-1.7c0-0.7-0.2-1.3-0.5-1.7c-0.3-0.4-0.7-0.6-1.3-0.6c-0.6,0-1,0.2-1.3,0.6c-0.3,0.4-0.5,1-0.5,1.7
c0,0.7,0.2,1.3,0.5,1.7s0.7,0.6,1.3,0.6C92.3,111.3,92.7,111.1,93.1,110.7z"/>
<path class="st1" d="M98.9,112.6H97v-10h1.9V112.6z"/>
<path class="st1" d="M102.7,105.2v4.5c0,0.4,0,0.7,0.1,1c0.2,0.4,0.5,0.6,1,0.6c0.7,0,1.1-0.3,1.4-0.8c0.1-0.3,0.2-0.7,0.2-1.1v-4
h2v7.4h-1.9v-1c0,0-0.1,0.1-0.1,0.2c-0.1,0.1-0.2,0.2-0.3,0.3c-0.3,0.3-0.6,0.5-0.9,0.6c-0.3,0.1-0.6,0.1-1,0.1
c-1.1,0-1.8-0.4-2.2-1.2c-0.2-0.4-0.3-1.1-0.3-1.9v-4.5H102.7z"/>
<path class="st1" d="M108.5,106.7v-1.4h1v-2.1h1.9v2.1h1.2v1.4h-1.2v3.9c0,0.3,0,0.5,0.1,0.6c0.1,0.1,0.3,0.1,0.7,0.1
c0.1,0,0.1,0,0.2,0c0.1,0,0.1,0,0.2,0v1.4l-0.9,0c-0.9,0-1.5-0.1-1.9-0.5c-0.2-0.2-0.3-0.6-0.3-1v-4.6H108.5z"/>
<path class="st1" d="M115.9,104.4h-2v-1.8h2V104.4z M114,105.2h2v7.4h-2V105.2z"/>
<path class="st1" d="M124,111.7c-0.6,0.8-1.6,1.2-2.8,1.2c-1.3,0-2.2-0.4-2.8-1.2c-0.6-0.8-0.9-1.7-0.9-2.8c0-1.1,0.3-2,0.9-2.8
c0.6-0.8,1.6-1.2,2.8-1.2c1.3,0,2.2,0.4,2.8,1.2c0.6,0.8,0.9,1.7,0.9,2.8C124.9,110,124.6,111,124,111.7z M122.4,110.7
c0.3-0.4,0.5-1,0.5-1.7c0-0.7-0.2-1.3-0.5-1.7c-0.3-0.4-0.7-0.6-1.3-0.6c-0.6,0-1,0.2-1.3,0.6c-0.3,0.4-0.5,1-0.5,1.7
c0,0.7,0.2,1.3,0.5,1.7c0.3,0.4,0.7,0.6,1.3,0.6C121.7,111.3,122.1,111.1,122.4,110.7z"/>
<path class="st1" d="M132.3,105.7c0.5,0.4,0.7,1.1,0.7,2v5h-2v-4.5c0-0.4-0.1-0.7-0.2-0.9c-0.2-0.4-0.5-0.6-1.1-0.6
c-0.7,0-1.1,0.3-1.3,0.8c-0.1,0.3-0.2,0.7-0.2,1.1v4h-1.9v-7.4h1.9v1.1c0.2-0.4,0.5-0.7,0.7-0.8c0.4-0.3,0.9-0.4,1.5-0.4
C131.2,105.1,131.8,105.3,132.3,105.7z"/>
<path class="st1" d="M140.7,112.6h-2.1v-10h2.1V112.6z"/>
<path class="st1" d="M148.5,105.7c0.5,0.4,0.7,1.1,0.7,2v5h-2v-4.5c0-0.4-0.1-0.7-0.2-0.9c-0.2-0.4-0.5-0.6-1.1-0.6
c-0.7,0-1.1,0.3-1.3,0.8c-0.1,0.3-0.2,0.7-0.2,1.1v4h-1.9v-7.4h1.9v1.1c0.2-0.4,0.5-0.7,0.7-0.8c0.4-0.3,0.9-0.4,1.5-0.4
C147.4,105.1,148,105.3,148.5,105.7z"/>
<path class="st1" d="M155.5,107.9c0-0.3-0.1-0.5-0.3-0.7c-0.2-0.3-0.6-0.4-1-0.4c-0.7,0-1.1,0.3-1.3,1c-0.1,0.3-0.2,0.8-0.2,1.4
c0,0.5,0.1,1,0.2,1.3c0.2,0.6,0.7,0.9,1.3,0.9c0.5,0,0.8-0.1,1-0.4c0.2-0.2,0.3-0.6,0.3-1h2c0,0.6-0.3,1.1-0.6,1.7
c-0.6,0.8-1.5,1.3-2.7,1.3c-1.2,0-2.1-0.4-2.6-1.1c-0.6-0.7-0.8-1.6-0.8-2.7c0-1.3,0.3-2.3,0.9-3c0.6-0.7,1.5-1.1,2.6-1.1
c0.9,0,1.7,0.2,2.3,0.6c0.6,0.4,0.9,1.2,1.1,2.2H155.5z"/>
<path class="st1" d="M158.7,110.6h2.1v2h-2.1V110.6z"/>
</g>
<polygon class="st2" points="83.5,41.4 118.7,21.3 118.3,62.2 83.4,82.4 83.5,77.9 114,60.5 114,28.7 83.5,45.9 	"/>
<polygon class="st3" points="77.7,39.3 77.7,75.3 50.2,59.7 50.2,23.9 46.2,21.3 46.2,62.6 81.9,83 81.9,41.4 	"/>
<polygon class="st4" points="82.6,0 117.8,20.1 113.3,22.8 82.6,4.8 55.3,20.1 86.3,38.4 82.3,41 47.4,20.4 	"/>
</g>
</svg>
