<!-- Generator: Adobe Illustrator 22.1.0, SVG Export Plug-In  -->
<svg version="1.1"
	 xmlns="http://www.w3.org/2000/svg" xmlns:xlink="http://www.w3.org/1999/xlink" xmlns:a="http://ns.adobe.com/AdobeSVGViewerExtensions/3.0/"
	 x="0px" y="0px" width="276.9px" height="40.5px" viewBox="0 0 276.9 40.5" style="enable-background:new 0 0 276.9 40.5;"
	 xml:space="preserve">
<style type="text/css">
	.st0{fill:#2F2725;}
	.st1{fill:#20B941;}
	.st2{fill:#FF771E;}
	.st3{fill:#FFDE00;}
</style>
<defs>
</defs>
<g>
	<g>
		<path class="st0" d="M54.7,15.9c1.1-1.1,2.6-1.7,4.3-1.7c2.3,0,4,0.8,5.1,2.3c0.6,0.9,0.9,1.7,1,2.6h-2.9
			c-0.2-0.7-0.4-1.2-0.7-1.5c-0.5-0.6-1.3-0.9-2.3-0.9c-1,0-1.9,0.4-2.5,1.3s-0.9,2.1-0.9,3.6c0,1.6,0.3,2.7,0.9,3.5
			c0.6,0.8,1.4,1.2,2.4,1.2c1,0,1.8-0.3,2.3-1c0.3-0.4,0.5-0.9,0.7-1.6H65c-0.3,1.5-0.9,2.8-1.9,3.7c-1,1-2.3,1.4-3.9,1.4
			c-2,0-3.5-0.6-4.7-1.9c-1.1-1.3-1.7-3.1-1.7-5.3C52.7,19.1,53.4,17.2,54.7,15.9z"/>
		<path class="st0" d="M69.2,14.4l1.8,8l0.4,2.2l0.4-2.2l1.6-8h3.1l1.7,8l0.4,2.2l0.4-2.1l1.9-8.1h3l-3.9,14h-2.8l-1.7-8.2L75,17.5
			l-0.5,2.7l-1.7,8.2h-2.7l-4-14H69.2z"/>
		<path class="st0" d="M91,14.4h10v2.5h-7.1v3.2h6.2v2.4h-6.2v5.9H91V14.4z"/>
		<path class="st0" d="M106.8,22.1c0.5-0.1,0.9-0.1,1.1-0.2c0.4-0.2,0.6-0.4,0.6-0.8c0-0.4-0.1-0.7-0.4-0.9
			c-0.3-0.2-0.7-0.2-1.3-0.2c-0.6,0-1.1,0.2-1.4,0.5c-0.2,0.2-0.3,0.5-0.4,0.9h-2.6c0.1-0.9,0.3-1.6,0.8-2.2
			c0.7-0.9,1.9-1.4,3.7-1.4c1.1,0,2.1,0.2,3,0.7c0.9,0.4,1.3,1.3,1.3,2.5v4.7c0,0.3,0,0.7,0,1.2c0,0.4,0.1,0.6,0.2,0.7
			c0.1,0.1,0.2,0.2,0.4,0.3v0.4h-2.9c-0.1-0.2-0.1-0.4-0.2-0.6c0-0.2-0.1-0.4-0.1-0.6c-0.4,0.4-0.8,0.7-1.3,1
			c-0.6,0.3-1.2,0.5-2,0.5c-0.9,0-1.7-0.3-2.3-0.8s-0.9-1.3-0.9-2.3c0-1.3,0.5-2.2,1.5-2.8c0.5-0.3,1.3-0.5,2.4-0.7L106.8,22.1z
			 M108.4,23.3c-0.2,0.1-0.3,0.2-0.5,0.3c-0.2,0.1-0.4,0.1-0.7,0.2l-0.6,0.1c-0.6,0.1-1,0.2-1.2,0.4c-0.4,0.2-0.6,0.6-0.6,1.1
			c0,0.5,0.1,0.8,0.4,1c0.3,0.2,0.6,0.3,0.9,0.3c0.6,0,1.1-0.2,1.6-0.5c0.5-0.3,0.8-1,0.8-1.9V23.3z"/>
		<path class="st0" d="M119.6,21.7c-0.1-0.4-0.2-0.7-0.4-1c-0.3-0.4-0.8-0.6-1.4-0.6c-0.9,0-1.5,0.5-1.9,1.4
			c-0.2,0.5-0.3,1.1-0.3,1.9c0,0.8,0.1,1.4,0.3,1.8c0.3,0.9,0.9,1.3,1.8,1.3c0.6,0,1.1-0.2,1.3-0.5c0.3-0.3,0.4-0.8,0.5-1.3h2.8
			c-0.1,0.8-0.4,1.6-0.9,2.3c-0.8,1.2-2.1,1.8-3.8,1.8c-1.7,0-2.9-0.5-3.7-1.5c-0.8-1-1.2-2.3-1.2-3.8c0-1.8,0.4-3.1,1.3-4.1
			c0.9-1,2.1-1.5,3.6-1.5c1.3,0,2.4,0.3,3.2,0.9c0.8,0.6,1.3,1.6,1.5,3.1H119.6z"/>
		<path class="st0" d="M127,16.8h-2.7v-2.5h2.7V16.8z M124.3,18h2.7v10.3h-2.7V18z"/>
		<path class="st0" d="M132.4,28.4h-2.7v-14h2.7V28.4z"/>
		<path class="st0" d="M137.8,16.8h-2.7v-2.5h2.7V16.8z M135.1,18h2.7v10.3h-2.7V18z"/>
		<path class="st0" d="M139.4,20.1v-1.9h1.4v-2.9h2.7v2.9h1.7v1.9h-1.7v5.5c0,0.4,0.1,0.7,0.2,0.8c0.1,0.1,0.4,0.2,1,0.2
			c0.1,0,0.2,0,0.3,0c0.1,0,0.2,0,0.3,0v2l-1.3,0c-1.3,0-2.1-0.2-2.6-0.7c-0.3-0.3-0.5-0.8-0.5-1.4v-6.4H139.4z"/>
		<path class="st0" d="M147.3,30.3l0.3,0c0.3,0,0.5,0,0.8,0c0.2,0,0.4-0.1,0.6-0.2c0.2-0.1,0.3-0.3,0.4-0.7c0.1-0.3,0.2-0.5,0.2-0.6
			L145.8,18h3l2.3,7.6l2.1-7.6h2.9l-3.5,10.2c-0.7,2-1.2,3.2-1.6,3.6c-0.4,0.5-1.2,0.7-2.4,0.7c-0.2,0-0.4,0-0.6,0
			c-0.1,0-0.4,0-0.7,0V30.3z"/>
		<path class="st0" d="M165.4,24.1c0.1,0.6,0.3,1.1,0.5,1.4c0.5,0.6,1.3,0.9,2.5,0.9c0.7,0,1.3-0.1,1.7-0.2c0.8-0.3,1.2-0.8,1.2-1.6
			c0-0.5-0.2-0.8-0.6-1.1c-0.4-0.2-1.1-0.5-1.9-0.7l-1.5-0.3c-1.5-0.3-2.5-0.7-3.1-1.1c-0.9-0.6-1.4-1.7-1.4-3
			c0-1.3,0.5-2.3,1.4-3.1c0.9-0.8,2.3-1.2,4.1-1.2c1.5,0,2.8,0.4,3.8,1.2c1.1,0.8,1.6,1.9,1.7,3.4h-2.8c-0.1-0.8-0.4-1.4-1.1-1.8
			c-0.5-0.2-1-0.4-1.7-0.4c-0.8,0-1.4,0.2-1.8,0.5c-0.5,0.3-0.7,0.7-0.7,1.3c0,0.5,0.2,0.9,0.7,1.1c0.3,0.2,0.9,0.4,1.9,0.6l2.5,0.6
			c1.1,0.3,1.9,0.6,2.4,1c0.8,0.7,1.2,1.6,1.2,2.9c0,1.3-0.5,2.3-1.5,3.2s-2.4,1.3-4.2,1.3c-1.8,0-3.3-0.4-4.3-1.2
			c-1.1-0.8-1.6-2-1.6-3.4H165.4z"/>
		<path class="st0" d="M184.6,27.1c-0.9,1.1-2.2,1.6-4,1.6c-1.8,0-3.1-0.5-4-1.6c-0.9-1.1-1.3-2.4-1.3-3.9c0-1.5,0.4-2.8,1.3-3.9
			c0.9-1.1,2.2-1.6,4-1.6c1.8,0,3.1,0.5,4,1.6c0.9,1.1,1.3,2.4,1.3,3.9C185.9,24.7,185.5,26,184.6,27.1z M182.4,25.6
			c0.4-0.6,0.6-1.4,0.6-2.4c0-1-0.2-1.8-0.6-2.4c-0.4-0.6-1-0.8-1.8-0.8c-0.8,0-1.4,0.3-1.8,0.8c-0.4,0.6-0.6,1.4-0.6,2.4
			c0,1,0.2,1.8,0.6,2.4c0.4,0.6,1,0.8,1.8,0.8C181.4,26.5,182,26.2,182.4,25.6z"/>
		<path class="st0" d="M190.6,28.4h-2.7v-14h2.7V28.4z"/>
		<path class="st0" d="M195.9,18v6.2c0,0.6,0.1,1,0.2,1.3c0.2,0.5,0.7,0.8,1.4,0.8c0.9,0,1.5-0.4,1.9-1.1c0.2-0.4,0.3-0.9,0.3-1.6
			V18h2.7v10.3h-2.6v-1.5c0,0-0.1,0.1-0.2,0.3c-0.1,0.2-0.2,0.3-0.4,0.4c-0.4,0.4-0.8,0.6-1.2,0.8c-0.4,0.1-0.9,0.2-1.4,0.2
			c-1.5,0-2.5-0.5-3.1-1.6c-0.3-0.6-0.4-1.5-0.4-2.7V18H195.9z"/>
		<path class="st0" d="M204,20.1v-1.9h1.4v-2.9h2.7v2.9h1.7v1.9h-1.7v5.5c0,0.4,0.1,0.7,0.2,0.8c0.1,0.1,0.4,0.2,1,0.2
			c0.1,0,0.2,0,0.3,0c0.1,0,0.2,0,0.3,0v2l-1.3,0c-1.3,0-2.1-0.2-2.6-0.7c-0.3-0.3-0.5-0.8-0.5-1.4v-6.4H204z"/>
		<path class="st0" d="M214.3,16.8h-2.7v-2.5h2.7V16.8z M211.6,18h2.7v10.3h-2.7V18z"/>
		<path class="st0" d="M225.5,27.1c-0.9,1.1-2.2,1.6-4,1.6c-1.8,0-3.1-0.5-4-1.6c-0.9-1.1-1.3-2.4-1.3-3.9c0-1.5,0.4-2.8,1.3-3.9
			c0.9-1.1,2.2-1.6,4-1.6c1.8,0,3.1,0.5,4,1.6c0.9,1.1,1.3,2.4,1.3,3.9C226.8,24.7,226.4,26,225.5,27.1z M223.4,25.6
			c0.4-0.6,0.6-1.4,0.6-2.4c0-1-0.2-1.8-0.6-2.4c-0.4-0.6-1-0.8-1.8-0.8c-0.8,0-1.4,0.3-1.8,0.8c-0.4,0.6-0.6,1.4-0.6,2.4
			c0,1,0.2,1.8,0.6,2.4c0.4,0.6,1,0.8,1.8,0.8C222.4,26.5,223,26.2,223.4,25.6z"/>
		<path class="st0" d="M237.1,18.6c0.7,0.6,1,1.5,1,2.8v7h-2.8v-6.3c0-0.5-0.1-1-0.2-1.3c-0.3-0.5-0.8-0.8-1.5-0.8
			c-0.9,0-1.5,0.4-1.9,1.2c-0.2,0.4-0.3,0.9-0.3,1.6v5.6h-2.7V18.1h2.6v1.5c0.3-0.5,0.7-0.9,1-1.1c0.6-0.4,1.3-0.6,2.1-0.6
			C235.6,17.8,236.4,18.1,237.1,18.6z"/>
		<path class="st0" d="M248.9,28.4H246v-14h2.9V28.4z"/>
		<path class="st0" d="M259.7,18.6c0.7,0.6,1,1.5,1,2.8v7H258v-6.3c0-0.5-0.1-1-0.2-1.3c-0.3-0.5-0.8-0.8-1.5-0.8
			c-0.9,0-1.5,0.4-1.9,1.2c-0.2,0.4-0.3,0.9-0.3,1.6v5.6h-2.7V18.1h2.6v1.5c0.3-0.5,0.7-0.9,1-1.1c0.6-0.4,1.3-0.6,2.1-0.6
			C258.2,17.8,259.1,18.1,259.7,18.6z"/>
		<path class="st0" d="M269.4,21.7c-0.1-0.4-0.2-0.7-0.4-1c-0.3-0.4-0.8-0.6-1.4-0.6c-0.9,0-1.5,0.5-1.9,1.4
			c-0.2,0.5-0.3,1.1-0.3,1.9c0,0.8,0.1,1.4,0.3,1.8c0.3,0.9,0.9,1.3,1.8,1.3c0.6,0,1.1-0.2,1.3-0.5c0.3-0.3,0.4-0.8,0.5-1.3h2.8
			c-0.1,0.8-0.4,1.6-0.9,2.3c-0.8,1.2-2.1,1.8-3.8,1.8c-1.7,0-2.9-0.5-3.7-1.5c-0.8-1-1.2-2.3-1.2-3.8c0-1.8,0.4-3.1,1.3-4.1
			c0.9-1,2.1-1.5,3.6-1.5c1.3,0,2.4,0.3,3.2,0.9c0.8,0.6,1.3,1.6,1.5,3.1H269.4z"/>
		<path class="st0" d="M274,25.5h2.9v2.8H274V25.5z"/>
	</g>
	<polygon class="st1" points="18.2,20.2 35.4,10.4 35.2,30.4 18.2,40.2 18.2,38 33.1,29.5 33.1,14 18.2,22.4 	"/>
	<polygon class="st2" points="15.4,19.2 15.4,36.8 1.9,29.1 1.9,11.7 0,10.4 0,30.6 17.4,40.5 17.4,20.2 	"/>
	<polygon class="st3" points="17.8,0 34.9,9.8 32.7,11.1 17.8,2.3 4.5,9.8 19.6,18.7 17.6,20 0.6,9.9 	"/>
</g>
</svg>
