<!-- Generator: Adobe Illustrator 22.1.0, SVG Export Plug-In  -->
<svg version="1.1"
xmlns="http://www.w3.org/2000/svg" xmlns:xlink="http://www.w3.org/1999/xlink" xmlns:a="http://ns.adobe.com/AdobeSVGViewerExtensions/3.0/"
x="0px" y="0px" width="54.9px" height="41.2px" viewBox="0 0 54.9 41.2" style="enable-background:new 0 0 54.9 41.2;"
xml:space="preserve">
<style type="text/css">
.st0{fill:#F2F2F2;}
</style>
<defs>
</defs>
<g>
<g>
<path class="st0" d="M54.9,4.9c0,10.4,0,20.9,0,31.3c0,0.1-0.1,0.2-0.1,0.2c-0.5,2.2-1.8,3.7-3.9,4.4c-0.3,0.1-0.6,0.2-1,0.3
c-15,0-30,0-45,0c-0.1,0-0.2-0.1-0.3-0.1c-1.9-0.4-3.3-1.5-4.1-3.3c-0.2-0.5-0.3-1-0.5-1.5C0,25.8,0,15.4,0,4.9
c0-0.1,0.1-0.2,0.1-0.3C0.5,2.9,1.4,1.5,3,0.7C3.6,0.4,4.3,0.2,4.9,0c15,0,30,0,45,0c0.1,0,0.2,0.1,0.3,0.1
c1.9,0.4,3.3,1.6,4.1,3.4C54.6,3.9,54.7,4.4,54.9,4.9z M27.4,38.9c7.1,0,14.2,0,21.3,0c2.4,0,3.8-1.4,3.8-3.8c0-9.7,0-19.3,0-29
c0-2.4-1.4-3.8-3.8-3.8c-14.2,0-28.5,0-42.7,0c-0.4,0-0.9,0-1.3,0.1C3.2,2.8,2.3,4.2,2.3,6c0,4,0,8,0,12.1c0,5.7,0,11.3,0,17
c0,1.2,0.3,2.3,1.3,3.1c0.8,0.6,1.6,0.8,2.6,0.8C13.3,38.9,20.4,38.9,27.4,38.9z"/>
<path class="st0" d="M36,22.1c1.2,1.1,2.3,2.1,3.4,3.2c2.7,2.4,5.3,4.9,8,7.3c0.2,0.2,0.4,0.5,0.6,0.8c0.2,0.4,0,1-0.5,1.3
c-0.4,0.3-1,0.3-1.4-0.1c-0.7-0.6-1.4-1.3-2.1-1.9c-3.1-2.8-6.2-5.6-9.3-8.5c-0.1-0.1-0.2-0.2-0.3-0.3c-1.8,2.3-4,3.7-7,3.7
c-2.9,0-5.2-1.4-7-3.7c-1.4,1.3-2.8,2.5-4.2,3.8c-2.5,2.3-4.9,4.5-7.4,6.8c-0.6,0.6-1.3,0.6-1.8,0.1c-0.5-0.5-0.4-1.2,0.2-1.8
c3.7-3.4,7.4-6.8,11.1-10.1c0.1-0.1,0.3-0.2,0.4-0.4c-0.9-1-1.8-2-2.8-3c-3-3.2-5.9-6.5-8.9-9.7C6.7,8.8,6.7,8.1,7.2,7.6
C7.8,7.2,8.4,7.3,9,7.9c4.6,5,9.2,10,13.8,15.1c2.3,2.6,5.8,2.8,8.1,1.1c0.7-0.5,1.3-1.1,1.9-1.8c4.4-4.8,8.8-9.6,13.2-14.4
c0.6-0.7,1.4-0.7,1.9-0.2c0.4,0.5,0.4,1.1-0.2,1.7c-1.9,2.1-3.8,4.1-5.7,6.2c-1.9,2-3.7,4.1-5.6,6.1C36.2,21.9,36.1,22,36,22.1z"
/>
</g>
</g>
</svg>
