<!-- Generator: Adobe Illustrator 22.1.0, SVG Export Plug-In  -->
<svg version="1.1"
xmlns="http://www.w3.org/2000/svg" xmlns:xlink="http://www.w3.org/1999/xlink" xmlns:a="http://ns.adobe.com/AdobeSVGViewerExtensions/3.0/"
x="0px" y="0px" width="230.9px" height="230.9px" viewBox="0 0 230.9 230.9" style="enable-background:new 0 0 230.9 230.9;"
xml:space="preserve">
<style type="text/css">
.st0{fill:none;stroke:#A42629;stroke-width:2;stroke-miterlimit:10;}
.st1{fill:#A42629;}
</style>
<defs>
</defs>
<g>
<circle class="st0" cx="115.5" cy="115.5" r="114.5"/>
<g>
<g>
<g>
<path class="st1" d="M111.9,169.5c-2.2,0-4.3-0.9-5.8-2.4l-2-2l-0.1,0c-1.8-0.1-3.5-0.8-4.7-2.1c-1.3-1.3-2.1-3-2.1-4.8l0-0.1
l-0.8-0.8c0,0-0.1,0-0.1,0c-1.9,0-3.7-0.7-5.1-2.1c-1.4-1.4-2.1-3.2-2.1-5.1c0-0.1,0-0.4,0-0.4l-0.1-0.1l-0.2-0.1
c-0.2,0-0.4,0-0.7,0c-1.9,0-3.7-0.7-5.1-2.1c-1.4-1.4-2.1-3.2-2.1-5.1c0-0.3,0-0.6,0.1-0.9l0-0.2l-0.2,0c-1.9,0-3.6-0.8-4.9-2.1
c-2.6-2.6-2.8-6.9-0.5-9.7l0.1-0.1l0-0.1c-0.6-1.4-1-2.8-1.3-4.1l0-0.1l-10-11.2c-0.1-0.1-0.1-0.1-0.2-0.2
c-1.7-2.2-1.5-5.4,0.5-7.4l23.2-23.2c1.1-1.1,2.5-1.7,4-1.7c1.4,0,2.7,0.5,3.7,1.4l0.1,0.1l1.1,1.1l0.1,0
c0.6-0.2,1.3-0.3,1.9-0.3l29.9-4.1l0.7-0.4c1-0.7,2.1-1.1,3.3-1.1c1.5,0,2.9,0.6,4,1.7l23.2,23.2c1.8,1.8,2.2,4.7,0.9,6.9
l-0.7,1.7c-0.1,0.2-0.1,0.3-0.2,0.5c-1.2,5-4.3,10.5-10.2,18c-0.1,0.1-0.2,0.2-0.3,0.3l-0.2,0.2l3.3,3.3c1.7,1.7,2.5,4,2.4,6.3
c-0.1,2.3-1.3,4.5-3.1,6c-1,0.8-2.3,1.4-3.6,1.6l-0.4,0.1l0.3,0.3c1.4,1.6,2.2,3.8,2,5.9c-0.1,2.3-1.3,4.5-3.1,6
c-1.4,1.1-3.2,1.7-5.1,1.7c-2,0-4-0.7-5.5-2l-0.3-0.2l-0.1,0.4c-0.4,2-1.4,3.8-3,5c-1.4,1.1-3.2,1.7-5.1,1.7
c-2.2,0-4.4-0.9-6-2.5l-1.5-1.5l-0.1,0.4c-0.2,1.3-0.8,2.6-1.6,3.6C116.8,168.3,114.4,169.5,111.9,169.5z M113.3,156.5
c-0.1,1.7-0.9,3.3-2.1,4.6l-1.9,1.9c-0.3,0.3-0.7,0.6-1.1,0.9l-0.2,0.1l0.5,0.5c0.9,0.9,2.1,1.4,3.3,1.4c1.4,0,2.8-0.6,3.7-1.8
c1.5-1.9,1.3-4.6-0.5-6.3l-1.8-1.8L113.3,156.5z M94.2,128.7c1.9,0,3.7,0.7,5.1,2.1c1.4,1.4,2.2,3.2,2.2,5.1
c0,0.9-0.2,1.7-0.5,2.6l-0.1,0.3l0.3,0c1.6,0.2,3,0.9,4.1,2c1,1,1.7,2.2,2,3.5l0,0.1l16.9,16.9c0.9,0.9,2.2,1.4,3.5,1.4
c1,0,2-0.3,2.8-1c1-0.8,1.7-2.1,1.8-3.4c0.1-1.3-0.4-2.6-1.4-3.6l-16.3-16.3c-0.4-0.4-0.6-0.8-0.6-1.4c0-0.5,0.2-1,0.6-1.4
c0.4-0.4,0.9-0.6,1.4-0.6c0.5,0,1,0.2,1.4,0.6l20.7,20.7c0.9,0.9,2.2,1.4,3.5,1.4c1,0,2-0.3,2.8-1c1-0.8,1.7-2.1,1.8-3.4
c0.1-1.3-0.4-2.6-1.4-3.6l-20.8-20.8c-0.4-0.4-0.6-0.9-0.6-1.4s0.2-1,0.6-1.4c0.4-0.4,0.9-0.6,1.4-0.6c0.5,0,1,0.2,1.4,0.6
l16.2,16.2c0.9,0.9,2.2,1.4,3.5,1.4c1,0,2-0.3,2.8-1c1-0.8,1.7-2.1,1.8-3.4c0.1-1.3-0.4-2.6-1.4-3.6L113.5,100l-14.9-0.2
c-4.5,0-8.2-3.7-8.2-8.2c0-2.2,0.9-4.3,2.5-5.8l0.2-0.2l-0.3-0.3c-0.4-0.3-0.9-0.5-1.4-0.5c-0.6,0-1.1,0.2-1.5,0.6l-23.2,23.2
c-0.7,0.7-0.8,1.9-0.2,2.8L76.9,123c0.1,0.2,0.2,0.4,0.3,0.7c0.2,0.8,0.4,1.6,0.7,2.4l0.1,0.3l0.3-0.3c1.4-1.4,3.2-2.1,5.1-2.1
c1.9,0,3.7,0.7,5.1,2.1c1,1,1.6,2.1,1.9,3.4l0.1,0.3l0.2-0.1C91.8,129.1,93,128.7,94.2,128.7z M106.1,152.4
c-1,0-1.9,0.4-2.6,1.1l-1.9,1.9c-0.7,0.7-1.1,1.6-1.1,2.6s0.4,1.9,1.1,2.6c0.7,0.7,1.6,1.1,2.6,1.1c1,0,1.9-0.4,2.6-1.1l1.9-1.9
c1.4-1.4,1.4-3.7,0-5.1C108,152.7,107.1,152.4,106.1,152.4z M100.2,142.3c-1,0-1.9,0.4-2.6,1.1l-4.1,4.1c-1.4,1.4-1.4,3.7,0,5.1
c0.7,0.7,1.6,1.1,2.6,1.1c1,0,1.9-0.4,2.6-1.1l4.1-4.1c1.4-1.4,1.4-3.7,0-5.1C102.1,142.7,101.2,142.3,100.2,142.3z M94.2,132.3
c-1,0-1.9,0.4-2.6,1.1l-6.3,6.3c-0.7,0.7-1.1,1.6-1.1,2.6s0.4,1.9,1.1,2.6c0.7,0.7,1.6,1.1,2.6,1.1c1,0,1.9-0.4,2.6-1.1l6.3-6.3
c0.7-0.7,1.1-1.6,1.1-2.6c0-1-0.4-1.9-1.1-2.6C96.1,132.7,95.2,132.3,94.2,132.3z M83.3,127.6c-1,0-1.9,0.4-2.6,1.1l-2.7,2.7
c-1.4,1.4-1.4,3.7,0,5.1c0.7,0.7,1.6,1.1,2.6,1.1c1,0,1.9-0.4,2.6-1.1l2.7-2.7c0.7-0.7,1.1-1.6,1.1-2.6s-0.4-1.9-1.1-2.6
C85.2,128,84.3,127.6,83.3,127.6z M146.3,127.7l0.2-0.2c3.5-4.5,8.3-11.1,9.6-16.9c0.1-0.3,0.2-0.5,0.3-0.7l0.8-2.1
c0.6-0.8,0.5-2-0.2-2.7L133.8,82c-0.4-0.4-0.9-0.6-1.5-0.6c-0.5,0-1,0.2-1.4,0.5l-1.5,0.8c0,0-30.8,4.2-30.8,4.2
C96.1,87,94,89,94,91.6c0,2.6,2.1,4.6,4.6,4.6l16.4,0.2C116.4,97.8,146.3,127.7,146.3,127.7z"/>
</g>
</g>
</g>
</g>
</svg>