<!-- Generator: Adobe Illustrator 22.1.0, SVG Export Plug-In  -->
<svg version="1.1"
     xmlns="http://www.w3.org/2000/svg" xmlns:xlink="http://www.w3.org/1999/xlink" xmlns:a="http://ns.adobe.com/AdobeSVGViewerExtensions/3.0/"
     x="0px" y="0px" width="230.9px" height="230.9px" viewBox="0 0 230.9 230.9" style="enable-background:new 0 0 230.9 230.9;"
     xml:space="preserve">
  <style type="text/css">
    .st0{fill:none;stroke:#A42629;stroke-width:2;stroke-miterlimit:10;}
    .st1{fill:#A42629;}
  </style>
  <defs>
  </defs>
  <g>
    <circle class="st0" cx="115.5" cy="115.5" r="114.5"/>
    <g>
      <g>
        <path class="st1" d="M140.7,91.3c0,0,0-0.1,0-0.1c-0.1-0.2-0.2-0.3-0.3-0.4c0,0,0,0,0,0l-18.2-18.2l0,0c-0.1-0.1-0.3-0.2-0.4-0.3
                             c0,0-0.1,0-0.1,0c-0.1,0-0.3-0.1-0.4-0.1c0,0-0.1,0-0.1,0H70c-0.8,0-1.5,0.7-1.5,1.5v93.6c0,0.8,0.7,1.5,1.5,1.5h69.3
                             c0.8,0,1.5-0.7,1.5-1.5V91.8c0,0,0-0.1,0-0.1C140.8,91.6,140.8,91.5,140.7,91.3z M135.8,90.3h-13.2V77.1L135.8,90.3z
                             M137.9,165.7H71.5V75h48.2v16.8c0,0.8,0.7,1.5,1.5,1.5h16.8V165.7z"/>
      </g>
      <g>
        <path class="st1" d="M160,81.9v-5.8c0-2.2-1.8-4-4-4h-2.3c-2.2,0-4,1.8-4,4v5.8c0,0-0.1,0.1-0.2,0.1c-1.4,1.4-2.2,3.3-2.2,5.3
                             v59.1c0,2,1.8,13.3,6,15.6v5.1c0,0.8,0.7,1.5,1.5,1.5c0.8,0,1.5-0.7,1.5-1.5V162c4.2-2.3,6-13.6,6-15.6V87.3
                             C162.4,85.2,161.5,83.3,160,81.9z M150.4,146.4v-37.6h9.1v37.6c0,0.1,0,0.1,0,0.2h-9C150.4,146.6,150.4,146.5,150.4,146.4z
                             M150.4,87.3c0-1.2,0.5-2.3,1.3-3.2c0.9-0.9,2-1.3,3.2-1.3l0,0c2.5,0,4.5,2,4.5,4.5v18.6h-9.1V87.3z M152.7,76.1c0-0.6,0.5-1,1-1
                             h2.3c0.6,0,1,0.5,1,1v4.1c-0.7-0.2-1.4-0.4-2.2-0.4h0c-0.8,0-1.5,0.1-2.2,0.4V76.1z M154.9,159.5c-1.2,0-3.3-5.5-4.2-10h8.3
                             C158.2,154,156.1,159.5,154.9,159.5z"/>
      </g>
      <g>
        <path class="st1" d="M84.3,87.4h22.1c0.8,0,1.5-0.7,1.5-1.5c0-0.8-0.7-1.5-1.5-1.5H84.3c-0.8,0-1.5,0.7-1.5,1.5
                             C82.9,86.8,83.5,87.4,84.3,87.4z"/>
      </g>
      <g>
        <path class="st1" d="M98.9,99.1c0,0.8,0.7,1.5,1.5,1.5h25c0.8,0,1.5-0.7,1.5-1.5c0-0.8-0.7-1.5-1.5-1.5h-25
                             C99.6,97.7,98.9,98.3,98.9,99.1z"/>
      </g>
      <g>
        <path class="st1" d="M84.3,113.7h36.7c0.8,0,1.5-0.7,1.5-1.5c0-0.8-0.7-1.5-1.5-1.5H84.3c-0.8,0-1.5,0.7-1.5,1.5
                             C82.9,113.1,83.5,113.7,84.3,113.7z"/>
      </g>
      <g>
        <path class="st1" d="M125.5,124h-25c-0.8,0-1.5,0.7-1.5,1.5c0,0.8,0.7,1.5,1.5,1.5h25c0.8,0,1.5-0.7,1.5-1.5
                             C126.9,124.6,126.3,124,125.5,124z"/>
      </g>
      <g>
        <path class="st1" d="M84.3,140.1h29.4c0.8,0,1.5-0.7,1.5-1.5c0-0.8-0.7-1.5-1.5-1.5H84.3c-0.8,0-1.5,0.7-1.5,1.5
                             C82.9,139.4,83.5,140.1,84.3,140.1z"/>
      </g>
      <g>
        <path class="st1" d="M125.5,150.3h-25c-0.8,0-1.5,0.7-1.5,1.5c0,0.8,0.7,1.5,1.5,1.5h25c0.8,0,1.5-0.7,1.5-1.5
                             C126.9,151,126.3,150.3,125.5,150.3z"/>
      </g>
      <g>
        <path class="st1" d="M84.3,105h8.8c0.8,0,1.5-0.7,1.5-1.5v-8.8c0-0.8-0.7-1.5-1.5-1.5h-8.8c-0.8,0-1.5,0.7-1.5,1.5v8.8
                             C82.9,104.3,83.5,105,84.3,105z M85.8,96.2h5.8v5.9h-5.8V96.2z"/>
      </g>
      <g>
        <path class="st1" d="M84.3,131.3h8.8c0.8,0,1.5-0.7,1.5-1.5v-8.8c0-0.8-0.7-1.5-1.5-1.5h-8.8c-0.8,0-1.5,0.7-1.5,1.5v8.8
                             C82.9,130.6,83.5,131.3,84.3,131.3z M85.8,122.5h5.8v5.9h-5.8V122.5z"/>
      </g>
      <g>
        <path class="st1" d="M93.1,145.9h-8.8c-0.8,0-1.5,0.7-1.5,1.5v8.8c0,0.8,0.7,1.5,1.5,1.5h8.8c0.8,0,1.5-0.7,1.5-1.5v-8.8
                             C94.6,146.6,93.9,145.9,93.1,145.9z M91.6,154.7h-5.8v-5.9h5.8V154.7z"/>
      </g>
    </g>
  </g>
</svg>
