<?xml version="1.0" encoding="utf-8"?>
<!-- Generator: Adobe Illustrator 22.1.0, SVG Export Plug-In . SVG Version: 6.00 Build 0)  -->
<svg version="1.1" id="レイヤー_1" xmlns="http://www.w3.org/2000/svg" xmlns:xlink="http://www.w3.org/1999/xlink" x="0px"
	 y="0px" viewBox="0 0 1878.9 1334.2" style="enable-background:new 0 0 1878.9 1334.2;" xml:space="preserve">
<style type="text/css">
	.st0{fill:#E3E3E3;}
	.st1{fill:none;stroke:#E3E3E3;stroke-miterlimit:10;}
	.st2{fill:none;stroke:#E3E3E3;stroke-width:0.75;stroke-miterlimit:10;}
</style>
<path class="st0" d="M654.7,487.3h-13.4l-9.6-9.3l16.7,0.1L654.7,487.3z M641.6,486.5h11.7l-5.3-7.7l-14.4-0.1L641.6,486.5z"/>
<path class="st0" d="M1244.8,490.8h-17.5l7.7-11.3h21.3L1244.8,490.8z M1229,490h15.5l9.9-9.6h-18.8L1229,490z"/>
<path class="st0" d="M1371.2,323.4l13.9-20.8h25.3l-0.5,0.6c-12.8,13.4-19.7,20.2-20.5,20.2c0,0,0,0,0,0c-0.6-0.1-10.8-0.1-17.6,0
	L1371.2,323.4z M1384.3,322.6c2.5,0,4.6,0,5.1,0.1c1.2-0.6,12-11.7,19.4-19.4h-23.4l-13,19.4
	C1374.5,322.7,1380.1,322.6,1384.3,322.6"/>
<path class="st0" d="M470,321.8l-16.4-0.4l-18.3-17.7h22.2L470,321.8z M453.8,320.9l15.1,0.4l-11.7-17.1h-20.6L453.8,320.9z"/>
<path class="st0" d="M950.7,491.6c-3.5,0-7.1-0.9-7.1-2.7c0-3.6,14.2-3.6,14.2,0C957.8,490.7,954.2,491.6,950.7,491.6 M950.7,487.3
	c-3.9,0-5.9,1.1-5.9,1.6c0,0.5,2,1.6,5.9,1.6c3.9,0,5.9-1.1,5.9-1.6C956.6,488.4,954.6,487.3,950.7,487.3"/>
<path class="st0" d="M950.7,326.6c-8.4,0-17.4-2.1-17.4-6.1c0-4,9-6.1,17.4-6.1c8.4,0,17.4,2.1,17.4,6.1
	C968,324.4,959.1,326.6,950.7,326.6 M950.7,315.5c-9.5,0-16.2,2.6-16.2,4.9c0,2.3,6.7,4.9,16.2,4.9c9.5,0,16.2-2.6,16.2-4.9
	C966.8,318.1,960.2,315.5,950.7,315.5"/>
<path class="st0" d="M1126,491.6c-3.5,0-7.1-0.9-7.1-2.7c0-3.6,14.2-3.6,14.2,0C1133.1,490.7,1129.5,491.6,1126,491.6 M1126,487.3
	c-3.9,0-5.9,1.1-5.9,1.6c0,0.5,2,1.6,5.9,1.6c3.9,0,5.9-1.1,5.9-1.6C1131.9,488.4,1129.9,487.3,1126,487.3"/>
<path class="st0" d="M762.2,491.6c-3.5,0-7.1-0.9-7.1-2.7c0-3.6,14.2-3.6,14.2,0C769.4,490.7,765.8,491.6,762.2,491.6 M762.2,487.3
	c-3.9,0-5.9,1.1-5.9,1.6c0,0.5,2,1.6,5.9,1.6c3.9,0,5.9-1.1,5.9-1.6C768.2,488.4,766.2,487.3,762.2,487.3"/>
<rect x="800.9" y="414.6" class="st0" width="4.7" height="27.3"/>
<path class="st0" d="M802.6,484.8c-6.9,0-19.9-0.9-19.9-4.3h1.2c0,1,6.6,3.1,18.7,3.1c12.1,0,18.7-2,18.7-3.1h1.2
	C822.5,483.9,809.5,484.8,802.6,484.8"/>
<path class="st0" d="M822.5,480.6l-1.2-0.1l2.7-35c0-1-7.6-3-21.4-3s-21.4,2-21.4,3.1l2.7,34.9l-1.2,0.1l-2.7-35
	c0-3.4,14.8-4.3,22.6-4.3c7.8,0,22.6,0.9,22.6,4.3L822.5,480.6z"/>
<rect x="1143.2" y="262.6" class="st0" width="4.7" height="40.8"/>
<path class="st0" d="M1144.5,367.1c-14.6,0-29.4-2.1-29.4-6.1h1.2c0,2,10.7,4.9,28.2,4.9c17.5,0,28.2-2.8,28.2-4.9h1.2
	C1173.9,365,1159.1,367.1,1144.5,367.1"/>
<path class="st0" d="M1173.9,361.1l-1.2-0.1l4-52.2c0-2-12.3-4.8-32.2-4.8c-20,0-32.2,2.8-32.2,4.9l4,52.2l-1.2,0.1l-4-52.2
	c0-4.5,20-6.1,33.4-6.1s33.4,1.6,33.4,6.1L1173.9,361.1z"/>
<path class="st0" d="M1210.6,650.5c0.1,0.1,0.1,0.2,0.2,0.2c0.2,0.2,0.6,0.5,0.7,0.1c0-0.5-0.5-1.1-0.8-1.4l-0.2-0.2
	c-0.2-0.2-0.6-0.5-0.6-0.1C1209.8,649.6,1210.3,650.2,1210.6,650.5"/>
<path class="st0" d="M1210.6,648.9c0,0.3-0.3,0.3-0.2,0.6c0.1,0.2,1.6,1.7,1.7,1.6c0.2-0.2,0.3-0.5,0.6-0.7c0.1-0.1-1.5-1.8-1.7-1.6
	c-0.3,0.1-0.4,0.3-0.6,0.6c-0.2,0.3,1.7,1.7,1.7,1.6c0.2-0.2,0.3-0.4,0.6-0.6c-0.6-0.5-1.1-1.1-1.7-1.6c-0.2,0.2-0.4,0.4-0.6,0.7
	c0.6,0.5,1.1,1.1,1.7,1.6c-0.1-0.2,0.2-0.3,0.2-0.5c0-0.3-0.5-0.7-0.8-0.9c-0.2-0.2-0.4-0.4-0.6-0.6
	C1210.9,649,1210.6,648.9,1210.6,648.9"/>
<path class="st0" d="M1330.9,1230c-1.1-0.8-2.1-1.6-3.4-2.6c2.8-1.7,5.1-3.1,7.5-4.5c2.2-1.3,4.5-1.7,6.8-0.7
	c1.6,0.7,2.9,0.4,4.4-0.2c0.9-0.4,1.8-0.9,2.8-0.9c3.4-0.2,4.1-2.7,6.2-5c-0.8-1.9-0.8-4.9-0.8-6.8c0.1-0.3,0.2-0.6,0.3-1
	c-0.1-1-0.1-1.9-0.1-2.7c-0.1-7.2-4.3-10.7-11.4-9.5c-4,0.6-7.9,1.3-12.2,1.3c0.5-0.6,1-1.1,1.5-1.7c-0.4,0-0.8,0-1.1,0
	c1.2-0.6,2.4-1.3,3.6-2.1c2.9-2.4,5.8-4.7,8.8-6.8c5.1-4.1,10.1-7.7,14.7-7.3c0.2-0.1,19.6,2.5,23.3,2.5c3.1-0.6,6.1-11.7,4-18.5
	c-3.4-10.9-6.5-21.8-9.7-32.7c-1-2.6-1.9-5.1-2.3-7.8c-0.7-2.4-1.3-4.8-1.4-7.2c-0.2-4.3,0.2-8.6,0.9-12.8
	c4.1-22.6,8.3-45.1,12.5-67.7c0.4-2.3,0.2-5.1,3-6.5c1.6,1,1.1,2.4,0.8,3.7c-4.2,19.6-8.4,39.2-12.6,58.7c-0.8,3.9-1.8,7.8-2.7,11.8
	c-1,4.3-1.1,8.7-0.5,12.9c0.2-1,0.4-2,0.8-3c0.6-2.2,1.3-4.4,1.9-6.6c0.1-1.8,0.6-4.2,1.5-7.7c0.2,0.1,15.6-58.2,13.5-58.6
	c0.1-0.6,1.2-6.8,1-9.2c-0.2-2.5,1-4.3,3.3-5.1c2.1-0.8,4.1-1.6,6.2-2.5c1.9-0.8,2.2-2.3,1.7-4.2c-0.8-3.1-2.3-5.7-5.4-7
	c-1.1-0.5-46.7,8.8-51.1,9.3c-12.5,1.3-25.5,2-38,2c-7.6,0-18.7-0.2-28.4,1.7c0,0-5.7,2.7-8.1,9c-2.5,2.8-10.8,40.1-11.2,41.6
	c-2.4,9.3-5,18.5-7.6,27.8c-0.1,0.5-0.5,0.9-1,1.7c-1.3-1.4-2.4-2.6-3.5-3.8c-11.4-12.6-22.7-25.3-34.1-37.9c-1.7-1.8-3.6-3.5-5.6-5
	c-2.2-1.6-4.8-2.1-7.5-2c-2.6,0.1-6.2,0.4-10,1.7c-1.5,0.5-2.7,1.3-3.5,2.4c-0.2,0.3-0.4,0.6-0.6,0.9c-0.6,1-1,2.2-1.2,3.5
	c-0.6,3.6-0.7,8.7,0.2,14.4c1.8,11.8,3.6,23.7,5.3,35.5c1.4,9.6,4.9,18.2,11,25.8c0.9,1.1,1.6,2.3,2.4,3.4c0.2,0.3,5.5,6.8,8.2,10.9
	c2.6,3.8,5.9,6.1,11.1,4.7c1.4-0.4,3.3,0.8,5,1.3c-1.2,2.2-2.8,3.9-3,5.8c-0.2,2.1,0.5,4.4,1.3,6.4c2.7,7.3,5.5,14.6,8.3,21.9
	c1.6,4,4.3,7.1,7.6,9.9c2.7,2.3,6,4,9.2,5.7c3,1.6,6.3,1.7,9.8,1.1c2.6-0.5,5.4-0.4,8.1-0.5c0.1,0.3,0.1,0.6,0.2,0.9
	c-0.6,0.3-1.2,0.8-1.9,1c-21.8,6.8-43.5,13.9-65.4,20.2c-6.4,1.8-11.1,4.7-14.6,10.1c-2.1,3.1-3.2,6.5-2.2,10.3
	c0.8,2.9,1.4,6,2.6,8.8c1.6,3.8,4.1,4.4,7.2,1.8c1.5-1.2,2.7-1.4,4.5-1.2c3.4,0.3,5.2-1.1,5.6-4.6c0.3-2.2,0.1-4.5,0-6.7
	c-0.2-3.6-0.1-4,3.6-4.8c12.4-2.8,24.7-5.4,37.1-8.1c9.9-2.2,17.1-3.2,27-5.4c0.3-0.1,3.3-0.6,3.6-0.6c4.5-0.9,4.4-1,5.7,3.4
	c1.8,6.4,2.1,9.5,1.8,16.1c-0.5,9.6-0.5,18.3-1,27.9c0,0.7-0.9,3-1,3.7c0.8,0,2.1,0.3,2.9,0.3c0.4-9.3,1.6-16.5,2-25.8
	c0.4-11.4,0.8-22.8,1.1-34.2c0-1.3-0.3-2.7-0.4-4c-0.3-0.1-0.6-0.1-1-0.2c-0.3,0.9-0.8,1.7-1,2.6c-0.7,4.3-1.4,5.2-5.5,6.1
	c-12.8,2.8-25.6,5.5-38.4,8.2c-11.8,2.5-23.7,5-35.5,7.6c-4.4,0.9-4.8,1.6-5.2,6.1c-0.2,1.8-0.5,3.6-1.1,5.3
	c-0.6,1.7-2.6,1.9-3.5,0.3c-2.2-4.2-4.1-8.6-3.7-13.5c0.2-2,1.1-3.4,2.8-4.3c1.4-0.7,2.8-1.2,4.2-1.7c25.4-8.8,51.2-16.3,77.1-23.2
	c1.1-0.3,2.2-0.6,3.2-0.9c2.2-0.7,4-2,4.6-4.4c0.5-2.4,2-3.1,4.3-3c1.3,0.1,2.5,0,3.8,0.1c5.6,0.4,5.8,0.5,7.4,5.9
	c1,3.4,3.6,5.5,6.4,7.4c11.4,7.7,22.9,15.4,34.3,23.1 M1191.5,1260.5c-1.2-3.5-1.7-7.2-2.1-10.9c0.3-0.1,0.7-0.1,1-0.2
	c0.7,3.6,1.5,7.2,2.2,10.9L1191.5,1260.5z M1195.5,1256.3c0.2,1.7,0.3,3.3,0.5,5c-0.3,0-0.6,0.1-1,0.1c-0.2-1.7-0.4-3.4-0.6-5.1
	C1194.8,1256.4,1195.1,1256.4,1195.5,1256.3 M1338.3,1215c-0.6-2.2,0.8-2.6,2.8-2.9c0.8,2.3,1.5,4.2,2.2,6.2
	C1340.1,1218.4,1338.9,1217.5,1338.3,1215 M1382.1,1176c-0.5,2.6-1.9,3.7-4.8,3.4c-4.1-0.3-8.2-1-12.5-1.5
	c1.9-2.5,13.7-9.2,18.5-10.7C1382.9,1170.3,1382.6,1173.2,1382.1,1176 M1377.5,1166.4c-6.8,4.7-14.1,8.4-21.7,11.5
	c-13.3,5.3-27.1,8.4-41.3,9.9c-11.6,1.3-23.3,2.1-34.9,3.1c-3.5,0.3-4.8-0.7-5.3-4.3c-0.2-1.1-0.2-2.2-0.4-4
	c4.1-0.5,7.9-1.1,11.8-1.5c14.6-1.4,29-3.3,43.3-6.7c14.5-3.5,28.6-8.2,42-14.9c0.6-0.3,1.2-0.6,1.9-0.9c3.1-1.3,5.4-0.6,7,2.3
	C1381,1163,1380.5,1164.4,1377.5,1166.4 M1366.8,1130.2c1.7,7,3.6,14,5.5,21c1.1,4.2,1,4.5-2.9,6.4c-15.6,7.6-32,13-49.1,15.9
	c-13.9,2.4-27.8,3.9-41.8,5.9c-0.7,0.1-1.4,0.1-2.1,0.2c-2.8,0-3.3-0.2-3.9-3.1c-1.2-5.7-2.1-11.5-3.2-17.2
	c-3.1-15.5-0.8-30.7,2.6-45.9c5-22.6,9.5-45.2,14.2-67.9c1.6-7.9,1.6-8,9.8-7.9c16.9,0.1,33.8,0,50.5-2.1c9.4-1.1,18.7-2.9,28.1-4.4
	c1.9-0.3,3.8-0.6,6.6-1.1c-1.2,6.3-2.1,11.9-3.3,17.4c-3.9,17.7-7.8,35.3-11.8,53C1363.7,1110.4,1364.5,1120.3,1366.8,1130.2
	 M1383.8,1034.9c-4.3,23-8.4,46-12.9,68.9c-1.9,9.7-1.6,19,1.6,28.4c2.5,7.1,4.6,14.3,6.9,21.5c0.4,1.2,0.6,2.5,0.5,4
	c-2.3-1.9-4.3-4.1-5-6.8c-2.5-9.3-4.9-18.5-6.9-27.9c-1.8-8.2-0.7-16.4,1-24.5c4.6-21.8,9.2-43.5,13.9-65.3c0.2-0.8,0.4-1.5,0.5-2.2
	c0.2,0,0.5,0.1,0.7,0.1C1384,1032.3,1384,1033.7,1383.8,1034.9 M1229.3,1155.1c-2.5,0.8-5,1.7-7.6,2.2c-2.1,0.4-3.9-0.6-5.1-2.3
	c-5.4-7.5-10.9-14.8-15.9-22.5c-1.7-2.7-2.2-6.3-2.7-9.5c-1.7-9.6-3-19.2-4.8-28.8c-1.2-6.6-1.8-13.2-1.9-19.9
	c0-2.6-0.7-5.2-1.3-7.7c-0.8-3.1,0-4.9,3.1-5.6c1.5-0.4,3-0.6,4.4-1.1c5.1-1.5,9.7-0.6,13.8,2.6c2.1,1.6,4,3.5,5.8,5.4
	c10.8,12.2,21.6,24.4,32.3,36.8c2.6,3,4.8,6.4,7.3,9.8c-5.4,4.6-10.6,4.7-15,0.9c-1.5-1.3-2.7-2.8-4-4.3
	c-12.1-13.6-24.3-27.3-36.4-40.9c-1.2-1.3-2.5-2.6-3.9-3.7c-1.4-1.1-3-1.9-5.8-1c1.9,1.2,3.1,2.2,4.5,3c3.1,1.8,4.8,4.3,5.4,8
	c1.4,9.9,3.1,19.8,4.5,29.7c0.3,2,0.2,4.2,0.1,6.2c-0.1,4.7,0.8,9.1,4.1,12.8c6.2,7,12.3,14,18.3,21.2c1.3,1.5,2,3.6,2.7,5.5
	C1231.6,1153.3,1230.8,1154.6,1229.3,1155.1 M1244.7,1178c3.6-2.3,8.1-3.2,7.8-8.3c0.7,3.7,1.4,7.3,2.3,11.6
	C1251.1,1180.1,1248.2,1179.2,1244.7,1178 M1256.3,1191.4c-3.8-0.7-6.5-3.2-8.7-8.5C1253.4,1182.1,1256.2,1184.9,1256.3,1191.4
	 M1213.1,1112c6.2-0.7,12.5-1,18.7-1.1c1.4,0,3.1,1.1,4.3,2.1c2,1.7,3.7,3.8,5.7,5.5c1.7,1.5,3.8,2.6,6,4c0.6,11.7,1.3,24.1,2,36.9
	c-0.9-0.7-1.6-1.3-2.2-1.9c-12.1-12.4-24.1-24.7-36.2-37.1c-0.3-0.3-0.6-0.6-0.9-0.9C1207.7,1116.3,1208.7,1112.5,1213.1,1112
	 M1208.3,1105.8c-1.5-9-3.1-18-4.6-27.1c-0.1-0.3,0.2-0.7,0.3-1.1c2.6,1.3,22.9,24.1,27.3,30.7c-6.8,0.2-13,0.3-19.2,0.4
	C1210,1108.8,1208.6,1108,1208.3,1105.8 M1234.8,1153.9c3.6,4.4,7.2,8.4,10.4,12.6c1.6,2.1,0.9,4.7,0.2,7.6c-2.5-1.2-2.6-3-2.9-4.7
	C1241.3,1163.5,1233.1,1156,1234.8,1153.9 M1271.8,1205.5c-0.4,2.2-2,3.2-4.2,3.3c-2.5,0.1-5,0.4-7.5,0.6c-1,0.1-1.9-0.1-2.9-0.2
	c-6.3-1.2-11.4-4.3-15.2-9.5c-5-6.8-8.2-14.5-10.2-22.7c-0.2-0.6,0-1.3,0.6-2.2c1.7,4,3.4,8,5.1,12c0.4-0.1,0.7-0.3,1.1-0.4
	c-1.6-6.9-4.6-13.4-6.4-20.3c3.7-2.7,4.9-2.4,6.4,1.5c1.5,4,2.9,8.1,4.4,12.2c2.2,5.9,5.9,10.7,11.2,14.2c1.1,0.7,2,1.7,3.6,3
	c-2.1,0.6-3.3,0.9-4.8,1.4c1.1,1.7,2.8,1.8,4.3,1.6c1.9-0.3,2.6-2.1,2.7-3.8c0.1-1.9-0.1-3.9-0.4-5.8c-1.6-8.6-3.7-17.2-4.7-25.9
	c-2-17.1-2.2-34.1,2.4-51c4.1-15,7.5-30.3,11.2-45.4c0.3-1.3,3.7-16.1,4.5-17.4c0.1,1.3-2.6,16-2.4,18c0.7-1,1.1-1.4,1.2-1.9
	c2.3-10.6,4.5-21.2,6.7-31.9c0.1-0.4-0.3-0.9-0.4-1.4c0,0-0.1,0-0.1,0c0,0,0,0,0.1,0c-1.4-0.9-0.3-1.9,0.4-2.6c0.6-0.6,1.3-1,2.1-1
	c1.4,0.1,17-4.1,23-4.2c14.5-0.3,29-0.5,43.4-2.7c11.6-1.7,23-4.1,34.5-6.2c4-0.7,7.9-1.4,11.9-2.1c1.2-0.2,2.5-0.1,3.8-0.1
	c2.6,0.2,4.1,1.5,4.5,3.6c0.4,1.9-0.4,3.3-3.2,4.1c-4.8,1.5-9.6,2.8-14.5,3.9c-18.9,4.5-38,7.5-57.4,7.9c-9.8,0.2-19.5,0.5-29.3,0.8
	c-4.9,0.1-9.8-0.1-14.2-2.5c-2-1.1-3.4-0.1-4.9,1c0,0,0,0,0,0c0,0,0,0,0,0c5.9,1,7.4,3.4,6.1,9.6c-5.8,27.7-11.5,55.3-17.5,83
	c-2.1,9.9-1.6,19.7-0.2,29.5c2,13.9,4.2,27.8,6.1,41.8C1272.8,1199.9,1272.2,1202.8,1271.8,1205.5 M1280.7,1210.5
	c-2.5,0.3-5,0.4-7.1-1.2c1.5-4.4,3.7-6.2,7.1-5.7c2.2,0.3,3.4,1.5,3.5,3.5C1284.2,1209,1283.2,1210.2,1280.7,1210.5 M1300,1203.6
	c-6.2-0.7-12.4-1.5-18.6-2.3c-0.1,0-0.3,0-0.4,0c-5.5-0.6-6.1-1.5-4.7-7.3c11-0.9,21.8-1.7,32.7-2.6c10.7-0.9,21.1-2.9,31.6-5.5
	c-8,6.4-15.5,13.6-25.6,16.8C1310,1204.1,1305,1204.2,1300,1203.6 M1306.5,1214.6c-1.7-1.4-2.7-3.1-2.2-5.5c0.5-2.3,2.3-2.5,4.1-2.9
	c10.8-2.4,21.7-4.8,32.5-7.1c1.8-0.4,3.6-0.6,5.4-0.6c2.8,0,4.9,1.7,5.1,4.5c0.2,4,0,8-0.1,12c0,0.2-0.4,0.3-0.8,0.6
	c-2.4-0.9-2.8-3.5-4.6-5.4c1.3-0.8,2.4-1.5,3.6-2.3c-0.3-1.3-1.1-1.8-2.4-1.5c-1.3,0.4-2.6,0.8-3.9,1.4c-7.5,3-15,5.8-22.4,8.9
	C1315.5,1219,1310.8,1218.2,1306.5,1214.6"/>
<path class="st0" d="M1305.3,1235.9c-2.8,4.5-3.8,9-4.1,13.8c-0.1,1.9,0,3.9-0.5,5.8c-1.8,10.8-0.9,18.1-1.4,28.6
	c-0.6,0-1.4,0.3-2,0.3c-0.2-9-0.2-15.4,0.2-24.7c2-8.6,1.1-17.5,0.6-26.3c-0.1-2.2,0-4.3,0-7.5c1.3,1.5,1.9,2.2,2.4,3
	c2.7,3.8,6.5,6.4,10.6,8.7c5.7,3.2,11.4,6.5,17,9.9"/>
<path class="st0" d="M1299.4,1283.9l1.3,11.1c0,0,3.5,9.7-7.5,9.7c-11,0-11.2-6.2-10.7-6.8c0.5-0.7,1.3-13.9,1.3-13.9h3.1l-1.7,13.5
	c0,0,5.7,8.1,10.6,2.9c0,0,2.7,1.5,1.9-6l-0.4-10.4H1299.4z"/>
<path class="st0" d="M1281.4,1310.6c-0.7,0-1.4-0.3-1.8-0.8c-1.1-1.3-0.8-3.9-0.6-4.6c-0.7-6.1,1.3-16.5,1.4-17
	c0.4-1.6,1.1-2.5,2.1-2.7c1.7-0.3,3.2,1.9,3.4,2.3l0.2,0.3l-1.1,11.9C1284.8,1303.9,1284.3,1310.6,1281.4,1310.6 M1282.7,1287.3
	C1282.7,1287.3,1282.7,1287.3,1282.7,1287.3c-0.1,0-0.4,0.3-0.7,1.3c0,0.1-2.1,10.7-1.4,16.5l0,0.1l0,0.1c-0.2,1-0.2,2.6,0.2,3.2
	c0.1,0.1,0.2,0.2,0.4,0.2c0.7-0.2,1.7-4.1,1.8-8.8l1-11.4C1283.7,1287.9,1283,1287.3,1282.7,1287.3"/>
<path class="st0" d="M1299.7,1286.4c0,0,3.8,9.2,3,18.2c0,0,0.3,7.8-7.1,7.3c0,0-3.3-0.7-3.8-2.3c-0.5-1.5-1.3-0.1-2.2,0
	c-0.8,0.1-0.7,2.7-4.6,2.3c-3.9-0.4-6.5-1.2-5.3-6.8c1.2-5.5,0.9-13.9,0.9-13.9l0.5-2.9h3.9l-0.4,4.8l0.7,4.2c0,0-4.4,3.2-1.3,2.6
	c3.1-0.5,7.1,1.9,7.1,1.9l4.7-1.6l1.9-1c0,0,1.2-1.7,1.2-2.3C1299,1296.3,1299.7,1286.4,1299.7,1286.4"/>
<path class="st0" d="M1311.3,1199.8c3.5,0,3.6-5.5,0-5.5C1307.8,1194.3,1307.7,1199.8,1311.3,1199.8"/>
<rect x="831" y="1049.5" class="st0" width="442" height="1.7"/>
<path class="st0" d="M762.6,1026.6l-1.4-1c5.3-7.4,14.6-20.5,22.9-32.1c6.5-9.1,12.4-17.3,15-21c7.8-11,16.9-9.9,17.9-9.7h28v1.7
	l-28.3,0c-0.4-0.1-8.8-1.5-16.3,9c-2.6,3.7-8.4,11.9-15,21C777.2,1006,767.9,1019.1,762.6,1026.6"/>
<rect x="861" y="962.7" class="st0" width="325.9" height="1.7"/>
<path class="st0" d="M1352.2,1024.6c-37-20.7-96.8-55.5-97.4-55.9l-0.2-0.1c0,0-4.4-4.1-18.9-4.1h-25v-1.7h25
	c14.3,0,19.3,3.9,20,4.6c2.6,1.5,61,35.5,97.3,55.8L1352.2,1024.6z"/>
<polygon class="st0" points="845.4,1106.2 844.4,1105.7 868.6,1049.4 884.4,1049.4 869.3,1084.3 868.3,1083.9 882.7,1050.5 
	869.3,1050.5 "/>
<path class="st0" d="M1264,1076l-1.5-4.5c-4.9-14.9-5.1-15.5-6.4-17.8l-0.4-0.6l14.2-3.7l0.3,1.1l-12.8,3.3c1.1,2,1.7,3.7,6.1,17.4
	l1.5,4.5L1264,1076z"/>
<path class="st0" d="M1225.5,1050.4c0,0,27.5,0,29.8,1.7c2.3,1.7,2.1,3,2.3,3.4c0.2,0.4,3.9-4.4,3.9-4.4l-7-0.7H1225.5z"/>
<path class="st0" d="M1248.9,1050.4c0,0,7.8,2.6,8.8,5.1l1.1,2.8c0,0-0.3-6,2.8-7.2l-9.4-0.7L1248.9,1050.4z"/>
<path class="st0" d="M1265.5,1049.9c0,0,3.4-1.9,7.4-0.5l0.8,0.9l-8.2,0.5V1049.9z"/>
<path class="st0" d="M1273.7,1050.4c0,0-2.4,2-1.9,4.9l-1.8-5.3L1273.7,1050.4z"/>
<path class="st0" d="M881.2,1055.3c0,0,6.2-4.9,9.3-4.9l-9.3-0.4C881.2,1049.9,881.9,1053.7,881.2,1055.3"/>
<path class="st0" d="M861.3,1050.4c0,0,4.5,4.4,4.2,7.7c0,0,2.6-7,5.7-7l-4.3-1.2L861.3,1050.4z"/>
<path class="st0" d="M841.6,1095.8c0,0,5.2,5.5,6.2,3.2l-2.3,7.1l-4-4.4V1095.8z"/>
<polygon class="st0" points="847,1099.6 853.4,1100.4 854.5,1101 848.6,1106.9 846.3,1109.2 844.9,1106 844.7,1104 "/>
<path class="st0" d="M1244.5,1014c-0.1,0-0.2,0-0.3-0.1l-46.6-34c0,0-0.1-0.1-0.1-0.1l-31.9-44.4c-0.1-0.2-0.1-0.5,0-0.6
	c0.2-0.2,0.4-0.2,0.6-0.1l52.9,33.8c0.1,0,0.1,0.1,0.2,0.2l25.5,44.6c0.1,0.2,0.1,0.5-0.1,0.6C1244.7,1014,1244.6,1014,1244.5,1014
	 M1198.2,979.2l44.6,32.5l-24.3-42.4l-50.6-32.3L1198.2,979.2z"/>
<path class="st0" d="M1244.5,1014l-0.1-1l53.2-4.1c0.4-0.3,2.2-1.5,2.2-3.1c0-1.2-1-2.4-2.9-3.6l-54.8-32.4c-0.1,0-2.8-1.9-9-1.5
	l-14.1,1l-0.1-1l14.1-1c6.6-0.5,9.5,1.5,9.6,1.6l54.8,32.4c2.3,1.4,3.4,2.8,3.4,4.4c0,2.4-2.6,4-2.8,4c-0.1,0-0.1,0.1-0.2,0.1
	L1244.5,1014z"/>
<path class="st0" d="M1245.4,1011.2l51.8-3.7c0,0,2.5-1,2.3,0.4c0,0-0.4,1.8-7.9,1.9l-44.6,3.5
	C1247,1013.3,1243,1014.4,1245.4,1011.2"/>
<path class="st0" d="M1219.3,969.5c0,0,0.4-2.2,1.8,0l12.7,21.1l10.9,20.3l1.7,1.3l-1.6,1.3L1219.3,969.5z"/>
<polygon class="st0" points="1222.7,974.3 1226,973.4 1278.5,1006.9 1247.1,1009.8 1237.4,1001.1 "/>
<path class="st0" d="M1222.7,973.4c0,0,3.7-0.2,5.3,0c0,0,36.9,22.5,39.3,25.2c2.4,2.7,11.1,8.3,11.1,8.3h-8.8l-22.4-15.9
	l-16.4-12.6L1222.7,973.4z"/>
<path class="st0" d="M1230.4,973.4l49.1,32.5l7.6-0.8l-50.1-31.7C1237,973.4,1235.7,972.8,1230.4,973.4"/>
<path class="st0" d="M1166,935.1c0,0,7.3,13.9,14,22.4c0,0,12.2,18.6,16.5,21.8c0,0,14.5,11.4,20.8,16.3c0,0,25.1,18,27.4,17.8
	l-9.3-6.6c0,0-36.1-27.6-37.6-29.8C1197.9,977.1,1170.4,937.6,1166,935.1"/>
<path class="st0" d="M1070.4,1012.1c4.5-2.4,9.1-4.6,13.4-7.3c6.2-3.9,12.6-6.1,19.9-4.2c1.4,0.4,3,0,4.5,0.2c3,0.4,5-0.7,5.7-3.7
	c1.3-5.5,4.7-7.2,10.4-7c12.3,0.5,24.6,0.3,36.9,0.1c3.9-0.1,5.2,1.6,5.8,5.1c1.6,9.9-0.8,9.5,10.1,9.7c1.3,0,2.6,1,3.9,1.5
	c-0.7,1.2-1.2,2.6-2.1,3.4c-3.1,2.7-6.5,4.9-9.4,7.7c-3.2,3.1-6.7,3.5-10.8,3.2c-12.7-1.1-25.3-2.2-38-3.1
	c-14.4-1-28.8-1.7-43.3-2.6c-2.3-0.1-4.5-0.7-6.8-1.1C1070.5,1013.2,1070.4,1012.6,1070.4,1012.1 M1153.4,992.3
	c-2.7,0-5.4-0.1-8.1,0c-4.5,0.2-3.1,3.9-3.6,6.4c-0.5,2.8,1,3.4,3.5,3.6c5.9,0.4,11.8,1,17.7,1.3c0.8,0,2.4-1.5,2.4-2.4
	c0.1-8.1-0.8-9-8.8-9C1155.5,992.3,1154.4,992.3,1153.4,992.3 M1076,1011.4c10.1,3.2,19.5,0.7,29-1c0.8-0.1,2-1.8,2-2.8
	c0-1.5-0.7-4.4-1.3-4.4c-4.5-0.5-9.4-1.5-13.6-0.2C1086.4,1004.8,1081.4,1008.5,1076,1011.4 M1115.3,1000.6c2.1,0.3,4.2,0.7,6.3,0.8
	c3.2,0.2,6.5-0.1,9.7,0.4c7.1,1.1,7.2,1.1,8-6c0.3-2.4-0.3-3.6-2.9-3.5c-4.1,0.1-8.1,0-12.2,0
	C1117.4,992.3,1116.6,993,1115.3,1000.6 M1121.7,1014.5c0,0.2,0,0.5,0.1,0.7c12.5,0.9,25.1,1.5,37.6,2.7c8.7,0.9,12.1-6.4,17.9-10.1
	c-7-0.9-14-3-19.7,3.2c-1.2,1.4-2.9,2.6-4.6,3.3c-2.1,0.9-4.5,1.7-6.7,1.6C1138.1,1015.7,1129.9,1015,1121.7,1014.5 M1156.7,1006
	l-0.1-1.2c-6.9,0-13.8,0.3-20.7-0.1c-4.3-0.2-5.8,2.2-7.6,5.8c4.9,0.3,9.5-0.1,13.7,1C1148.6,1013.3,1152.5,1009.5,1156.7,1006
	 M1127.6,1003.9c-4.9-0.2-9.6-0.4-14.2-0.7c-2.2-0.2-4.1-0.6-4.2,2.6c-0.1,2.6,0.2,4.9,3.5,5.3
	C1118.9,1012,1124.5,1011.1,1127.6,1003.9"/>
<path class="st0" d="M863.4,1036.4c-11,0-23.2,1.7-34.2,1.5c-1.4,0-3.1-0.9-3.9-1.9c-0.4-0.5,0.6-2.5,1.4-3.5
	c3.6-4.7,7.1-9.5,11.1-13.8c1.4-1.5,4.2-2.5,6.3-2.6c13.6-0.6,27.2-0.9,40.7-1.3c3.4-0.1,6.8-0.2,10.2-0.5c7.9-0.7,7.3,2.3,8.3,8.2
	c0,0.1-0.1,0.3-0.1,0.5c-2.9,16.4-2,13.3-15.3,13.9c-8.6,0.3-13.9-0.3-22.5-0.3C865.4,1036.8,864.6,1036.8,863.4,1036.4
	 M836.3,1031.1c0-0.6,0-1.3,0-1.9c1.5-0.6,3.1-1.6,4.6-1.7c16.8-0.5,33.6-0.7,50.4-1.2c0.9,0,1.8-0.8,2.6-1.4
	c1.2-0.9,2.4-1.8,3.4-2.9c0.9-0.9,1.7-1.9,2.5-2.9c-1.1-0.7-2.3-2-3.3-1.9c-5.5,0.7-11.8-1.9-16.5,3.2c-0.5,0.6-1.8,0.6-2.8,0.7
	c-7.6,0.6-15.2,1.1-22.7,1.8c-3.2,0.3-6.1,0.4-5.6-4c-7.8,0.2-7.8,0.2-11.5,5.7c-0.8,1.2-2.1,2-3.1,3c-2.1,2.1-4.2,4.3-7.1,7.2
	c2.9,0.1,4.4,0.3,6,0.3c8.3-0.2,16.5-0.6,24.8-0.8c12.1-0.4,24.3-0.6,36.4-1c4.6-0.2,6.1-3.1,4.1-6.8c-1.5,1.1-3.1,3.2-4.7,3.3
	c-17.4,1.1-34.9,1.9-52.3,2.6C839.7,1032.6,838,1031.6,836.3,1031.1"/>
<path class="st0" d="M1450.8,1035.9c2.4-9.5,4.9-19,7.3-28.5c2-7.7,4-15.4,6-23c1-3.7,1.4-4,5.2-4.4c1.4-0.2,2.7-0.7,3.9-1.1
	c-1.1-5.8-1.8-6.6-7.2-7.3c-14.1-2-27.6-6-40.9-11c-1.6-0.6-3.3-1.1-4.9-1.5c-3.6-0.8-6.7,0.3-8.6,3.4c-1.5,2.4-2.8,5-3.9,7.7
	c-4.2,10.6-14.5,36.2-18.7,46.8c0.9,0.1,1.8,0.3,2.6,0.5c4.4-11.6,15.1-38,19.4-49.3c0.4-1.1,0.9-2.1,1.4-3.1c1.8-3.2,3.5-4,7.2-3.5
	c1,0.1,2,0.4,2.9,0.7c11.8,3.7,23.7,7.5,35.5,11.2c0.8,0.3,1.6,0.6,2.6,1.1c-2.1,6.4-4.2,12.7-6.3,19c-4.3,12.9-8.6,25.7-12.9,38.6
	c-0.3,0.8-0.5,1.6-0.8,2.5c-1.4,3.6-2,4-5.8,3.3c-6.7-1.2-13.4-2.4-20-3.6c-4-0.7-18.3-2.9-22.3-3.6c-0.9,1.2,0,3.3-0.6,4.4
	c-0.2,0.5,6.8,1.5,8,1.9c12.3,1.8,24.5,4,36.7,6.9c-12.5-1.3-32.4-5.1-44.8-7.3c-0.4,1-0.9,3-1.3,4c1.6,0.2,10.5,1.6,12,1.8
	c9.7,1.4,19.4,2.8,29.1,4.3c4.2,0.6,4.3,0.9,3.9,5.3c-0.7,6.1-0.4,12.1,1.7,17.9c0.3,0.8,0.4,1.6,0.9,3.3c-7.6-4.6-14.3-8.8-21-12.9
	c-6.4-3.9-12.7-7.9-19.1-11.9c-0.7-0.4-5.8-3.4-6.4-4c-0.4,1.2-0.6,0.9-1,2.1c15.2,6.9,33.4,19.5,46.4,29.9c0.6,0.5,1.1,1.2,1.7,1.8
	c-17.5-2.5-36.5-3.1-54.4-1.5c-1.2,3.8-5.4,8.7-3.1,12.6c0.9,1.2-2.7,2.8-1.9,4c-1.3,0.6,1.3,1.6-0.1,2.3c-0.5,1.8,2.3,1.8,1.8,3.6
	c1.4,0.5,1.2,0.4,2.7,0.9c-0.1,4.5-1.3,8.3-4.6,11.5c-1.2-1.5-3.4-4.6-3.3-6.8c-0.7,2.3-0.1,4.9-0.8,7.2c-0.3,1-0.8,0.2-0.9,3.3
	c0.3,2.5,2,10.8,2.6,12.3c2.7,6.9,4.5,10.3,6.9,17.3c2.7,5,5.1,10.1,6.3,15.3c0.8,4.2,0.6,8.1-0.1,11.9c-0.1,1.5-4.1,5.9-4.9,7
	c-1.4,5.1-2.2,0.7-3.1,5.7c0.1,0.2-1.3,0.6,3.2,6.8c1.8,2.6,3.7,5.2,5.8,7.5c2.7,2.9,6.1,3.2,9.4,1.1c2.6-1.7,4.2-4.1,4.2-7.2
	c-0.1-5,0.1-10.2-0.7-15.1c-1.7-11.3-4.1-22.4-5.9-33.7c-0.5-3.3-1.5-6.6-0.9-10.5c21.2,9.6,42.1,19.1,63.3,28.7
	c-1,1.2-1.7,1.9-2.3,2.6c-3.4,4-3.5,6.7,0,10.7c1.9,2.2,4,4.2,6.1,6.1c3,2.6,6.3,2.5,9.4-0.1c2-1.7,3-3.8,3-6.4c0-2.9-0.2-5.8,0-8.7
	c0.3-4.6-1.7-7.8-5.5-10c-1.7-1-3.5-1.9-5.3-2.9c-11-5.8-21.9-11.7-32.9-17.5c-1.8-1-3.9-1.9-4-4.1c-0.4-4.9-0.5-9.8-0.8-14.8
	c2.1-0.8,4-1.5,5.8-2.3c5.8-2.3,11.6-4.4,17.2-7c10.2-4.8,12.7-13.6,7.2-23.3c-2.9-5.1-5.8-10.3-8.6-15.6c-2.8-5.4-4-11.1-2.8-17.2
	 M1437.8,1086.2c1.6-2,2.8-1.9,4.7-0.2c1.1,1,2,2.1,2.9,3.2c1,1.2,1.9,2.5,2.7,3.6c-0.5,2.2-1.9,3.1-3.6,3.7
	c-4.6,1.6-9.3,3.2-13.8,4.9c-3.2,1.3-5.7,0.3-7.8-2c-1.2-1.4-2.4-2.9-3.1-4.6c-1.5-3.4-0.3-5.3,3.4-5.5c2.2-0.1,4.3,0,6.5,0
	C1432.9,1089.5,1435.7,1088.9,1437.8,1086.2 M1448.5,1098.2c-6.5,4.7-13.1,6.5-21.1,7.5C1434.8,1103.1,1441.2,1100.8,1448.5,1098.2
	 M1420.1,1101c-0.1,0.1-0.2,0.2-0.6,0.4c-0.9-0.6-2-1.2-3.4-2.1c2.2-0.7,3.1,0.2,4,1.3C1420.1,1100.8,1420.2,1101,1420.1,1101
	 M1434.5,1084.5c-1.7,2.2-1.7,2-11.9,2.3c-4.5,0.1-8.3-1.3-12.6-3.7C1418.6,1082.6,1426.4,1083.8,1434.5,1084.5 M1407.8,1086.5
	c-3.7,1.6-12.6,1.3-18.7-1C1395.3,1085.8,1401.5,1086.1,1407.8,1086.5 M1416.1,1091.3c0.1,0.4,0.1,0.7,0.1,1.1c-1,0.3-2,0.9-2.9,0.8
	c-8.3-0.8-16.8,0-24.9-2.8C1397.7,1089.8,1406.9,1090.7,1416.1,1091.3 M1414.1,1123c-6.7,0.9-12.4-0.7-16.9-5.4
	c1.1-0.2,2-0.6,2.9-0.6c6.9,0.2,13.9,0.5,20.8,0.8c3.7,0.2,4.4,1.1,4.6,4.3C1421.5,1122.5,1417.8,1122.5,1414.1,1123 M1425.9,1132.3
	c-2.4-1-4.2-1.7-6.1-2.5C1423.7,1127.8,1423.7,1127.8,1425.9,1132.3 M1412.8,1113.9c-4.3,0-8.6,0.1-12.8-0.1c-1-0.1-2.3-1.1-2.9-2
	c-1.6-2.2-2.8-4.6-4.5-7.4c0.9-0.5,1.6-1.3,2.4-1.4c3.2-0.4,6.4,0.2,9,2.1c3.2,2.4,6.1,5.1,9.1,7.7
	C1413,1113.2,1412.9,1113.6,1412.8,1113.9 M1400.1,1095.5c-0.2,3.7-0.6,4.3-3.6,4.5c-2.2,0.1-4.3-0.1-6.5-0.2
	c-2.4-0.1-3.6-1.4-3.9-4.3H1400.1z M1388.3,1107.9c-1.6-1.2-1.9-2.6-0.2-4.4C1390.4,1105.7,1390.4,1105.7,1388.3,1107.9
	 M1396.5,1198.6c-3,0-4.9-1.9-4.8-4.8c0-2.9,2-4.8,4.9-4.7c2.7,0.1,4.6,2,4.7,4.7C1401.4,1196.5,1399.3,1198.6,1396.5,1198.6
	 M1468.7,1180.8c-2.5-0.1-4.4-1.9-4.4-4.4c0-2.5,2.2-4.5,4.8-4.5c2.5,0,4.3,1.9,4.3,4.4C1473.3,1179,1471.4,1180.9,1468.7,1180.8
	 M1443.1,1145.3c8.5,4.4,17,8.7,25.4,13.1c5.1,2.6,5.6,4,3.8,10.3c-1.3-1.1-2.3-2.2-3.6-3c-3.1-2.1-6-4.5-9.4-6.1
	c-19.3-8.9-38.6-17.5-58-26.3c-1.1-0.5-2.1-1-3.1-1.5c-2.2-1.1-3.7-2.7-3.8-5.3c0-1.4-0.2-1.4-2.7-2.5c1.6,10.2,3.3,20.4,4.6,30.7
	c1.4,10.2,5.3,20,5.3,30.9c-4.3-1.4-6.9-3.9-7-7.8c-0.2-12-4.2-23.3-5.6-35c-0.6-5.2-1.6-10.3-2.5-15.4c-0.3-1.5-0.7-2.9-1.9-4.4
	c-0.9,1.8-1.8,3.6-2.7,5.5c-4.5-3.3-4.6-6.7-0.4-10.6c-1.3-0.7-2.4-1.3-4.4-2.3h4.8c0.6-1.1,1.1-2.1,1.6-3c0.4-0.1,0.7-0.3,0.9-0.3
	c1.9,0.2,3.7,0.4,5.6,0.7c1.9,0.3,3.3,1.3,3.5,3.3c0.3,3.5,2.6,5.2,5.5,6.7C1413.8,1130.2,1428.5,1137.7,1443.1,1145.3
	 M1447.3,1070.8c2.5,4.9,5.4,9.5,8,14.3c1.1,2.1,2.3,4.4,2.7,6.7c1.1,5.9-1.2,10.9-6.7,13.1c-7.6,3.1-15.3,6.3-23.2,8.2
	c-7.3,1.8-13.9-1.5-19.2-6.7c-1-0.9-1.6-2.4-2-3.8c-0.4-1.5,0.2-2.5,2.5-2.1c-0.3,1.3-0.6,2.4-1,3.9c1.5-0.8,2.6-1.4,3.8-2.1
	c1,0.8,1.8,1.5,2.7,2.2c4.9,3.9,10.4,5.1,16.3,3.4c5.7-1.6,11.3-3.6,16.7-5.9c5.7-2.4,6.8-5.4,4.5-11c-2.2-5.3-4.6-10.6-7.1-15.8
	c-3.4-7.1-4.4-14.6-3.8-22.3c0.1-1.4,0.8-2.8,1.3-4.2c0.3,0,0.6,0.1,0.9,0.1c0.1,0.7,0.3,1.5,0.1,2.2
	C1442.6,1058.1,1444.2,1064.6,1447.3,1070.8 M1446.1,1039.6c2.4-11.2,6-22,9.7-32.7C1453.6,1018.1,1450.5,1029.1,1446.1,1039.6"/>
<path class="st0" d="M1389.9,1014.8l-56.6-1.3l-5.4-3.7c0,0,63.1,2.2,64.7,1.7L1389.9,1014.8z"/>
<path class="st0" d="M1338.3,1015.7c0,0,24.2-0.7,28.8,0c4.6,0.7,17.1-0.3,17.1-0.3l4.9,1.5l-7.8,2.5c0,0-30.9-2.6-39.2-1.5
	L1338.3,1015.7z"/>
<path class="st0" d="M1248.9,1050.4c0,0,9.4,11.1,12.6,28c3.2,16.9,0,0,0,0l1.8-6.2l-8-20.1L1248.9,1050.4z"/>
<path class="st0" d="M649.3,1035.1c-2.4-9.5-4.9-19-7.3-28.5c-2-7.7-4-15.4-6-23c-1-3.7-1.4-4-5.2-4.4c-1.4-0.2-2.7-0.7-3.9-1.1
	c1.1-5.8,1.8-6.6,7.2-7.3c14.1-2,27.6-6,40.9-11c1.6-0.6,3.3-1.1,4.9-1.5c3.6-0.8,6.7,0.3,8.6,3.4c1.5,2.4,2.8,5,3.9,7.7
	c4.2,10.6,14.5,36.2,18.7,46.8c-0.9,0.1-1.8,0.3-2.6,0.5c-4.4-11.6-15.1-38-19.4-49.3c-0.4-1.1-0.9-2.1-1.4-3.1
	c-1.8-3.2-3.5-4-7.2-3.5c-1,0.1-2,0.4-2.9,0.7c-11.8,3.7-23.7,7.5-35.5,11.2c-0.8,0.3-1.6,0.6-2.6,1.1c2.1,6.4,4.2,12.7,6.3,19
	c4.3,12.9,8.6,25.7,12.9,38.6c0.3,0.8,0.5,1.6,0.8,2.5c1.4,3.6,2,4,5.8,3.3c6.7-1.2,13.4-2.4,20-3.6c4-0.7,18.3-2.9,22.3-3.6
	c0.9,1.2,0,3.3,0.6,4.4c0.2,0.5-6.8,1.5-8,1.9c-12.3,1.8-24.5,4-36.7,6.9c12.5-1.3,32.4-5.1,44.8-7.3c0.4,1,0.9,3,1.3,4
	c-1.6,0.2-10.5,1.6-12,1.8c-9.7,1.4-19.4,2.8-29.1,4.3c-4.2,0.6-4.3,0.9-3.9,5.3c0.7,6.1,0.4,12.1-1.7,17.9
	c-0.3,0.8-0.4,1.6-0.9,3.3c7.6-4.6,14.3-8.8,21-12.9c6.4-3.9,12.7-7.9,19.1-11.9c0.7-0.4,5.8-3.4,6.4-3.9c0.4,1.2,0.6,0.9,1,2.1
	c-15.2,6.9-33.4,19.5-46.4,29.9c-0.6,0.5-1.1,1.2-1.7,1.8c17.5-2.5,36.5-3.1,54.4-1.5c1.2,3.8,5.4,8.7,3.1,12.6
	c-0.9,1.2,2.7,2.9,1.9,4c1.3,0.6-1.3,1.6,0.1,2.3c0.5,1.8-2.3,1.8-1.8,3.6c-1.4,0.5-1.2,0.4-2.7,0.9c0.1,4.5,1.3,8.3,4.6,11.5
	c1.2-1.5,3.4-4.6,3.3-6.8c0.7,2.3-0.3,6.2,0.3,8.5c0.3,1,1.2,3.6,1.4,4.7c-0.3,2.5-2,8.1-2.6,9.6c-2.7,6.9-4.5,10.3-6.9,17.3
	c-2.7,5-5.1,10.1-6.3,15.3c-0.8,4.2-0.6,8.1,0.1,11.9c0.1,1.5,4.1,5.9,4.9,7c1.4,5.1,2.2,0.7,3,5.7c-0.1,0.2,1.3,0.6-3.2,6.8
	c-1.8,2.6-3.7,5.2-5.8,7.5c-2.7,2.9-6.1,3.2-9.4,1.1c-2.6-1.7-4.2-4.1-4.2-7.2c0.1-5-0.1-10.2,0.7-15.1c1.7-11.3,4.1-22.4,5.9-33.7
	c0.5-3.3,1.5-6.6,0.9-10.5c-21.2,9.6-42.1,19.1-63.3,28.7c1,1.2,1.7,1.9,2.3,2.6c3.4,4,3.5,6.7,0,10.7c-1.9,2.2-4,4.2-6.1,6.1
	c-3,2.6-6.3,2.5-9.4-0.1c-2-1.7-3-3.8-3-6.4c0-2.9,0.2-5.8,0-8.7c-0.2-4.6,1.7-7.8,5.5-10c1.7-1,3.5-1.9,5.3-2.9
	c11-5.8,21.9-11.7,32.9-17.5c1.8-1,3.9-1.9,4-4.1c0.4-4.9,0.5-9.8,0.8-14.8c-2.1-0.8-4-1.5-5.8-2.3c-5.8-2.3-11.6-4.4-17.2-7.1
	c-10.2-4.8-12.7-13.6-7.2-23.3c2.9-5.1,5.8-10.3,8.6-15.6c2.8-5.4,4-11.1,2.8-17.2 M662.2,1085.4c-1.6-2-2.8-1.9-4.7-0.2
	c-1.1,1-2,2.1-2.9,3.2c-1,1.2-1.9,2.5-2.7,3.6c0.5,2.2,1.9,3.1,3.6,3.7c4.6,1.6,9.3,3.2,13.8,4.9c3.2,1.3,5.7,0.3,7.8-2
	c1.2-1.4,2.4-2.9,3.1-4.6c1.5-3.4,0.3-5.3-3.4-5.5c-2.2-0.1-4.3,0-6.5,0C667.1,1088.7,664.4,1088.1,662.2,1085.4 M651.6,1097.4
	c6.5,4.7,13.1,6.5,21.1,7.5C665.3,1102.3,658.9,1100,651.6,1097.4 M680,1100.2c0.1,0.1,0.2,0.2,0.6,0.4c0.9-0.6,2-1.2,3.4-2.1
	c-2.2-0.7-3.1,0.2-4,1.3C679.9,1100,679.9,1100.2,680,1100.2 M665.6,1083.7c1.7,2.3,1.7,2,11.9,2.3c4.5,0.1,8.3-1.3,12.6-3.7
	C681.5,1081.8,673.7,1083,665.6,1083.7 M692.3,1085.7c3.7,1.6,12.6,1.3,18.7-1C704.8,1085,698.5,1085.3,692.3,1085.7 M684,1090.5
	c0,0.4-0.1,0.7-0.1,1.1c1,0.3,2,0.9,2.9,0.8c8.3-0.8,16.8,0,24.9-2.8C702.4,1089,693.2,1089.9,684,1090.5 M685.9,1122.3
	c6.7,0.9,12.4-0.7,16.9-5.4c-1.1-0.2-2-0.6-2.9-0.6c-6.9,0.2-13.9,0.5-20.8,0.8c-3.7,0.2-4.4,1.1-4.6,4.3
	C678.6,1121.7,682.3,1121.8,685.9,1122.3 M674.2,1131.5c2.4-1,4.3-1.7,6.1-2.5C676.4,1127,676.4,1127.1,674.2,1131.5 M687.3,1113.1
	c4.3,0,8.6,0.1,12.8-0.1c1-0.1,2.3-1.1,2.9-2c1.6-2.2,2.8-4.6,4.5-7.4c-0.9-0.5-1.6-1.3-2.4-1.4c-3.2-0.4-6.4,0.2-9,2.1
	c-3.2,2.4-6.1,5.1-9.1,7.7C687.1,1112.4,687.2,1112.8,687.3,1113.1 M700,1094.7c0.2,3.7,0.6,4.3,3.6,4.5c2.2,0.1,4.3-0.1,6.5-0.2
	c2.4-0.1,3.6-1.4,3.9-4.3H700z M711.8,1107.1c1.6-1.2,1.9-2.6,0.2-4.4C709.6,1104.9,709.6,1104.9,711.8,1107.1 M703.6,1197.8
	c3,0,4.9-1.9,4.8-4.8c0-2.9-2-4.8-4.9-4.7c-2.7,0.1-4.6,2-4.7,4.7C698.7,1195.7,700.7,1197.8,703.6,1197.8 M631.4,1180
	c2.5-0.1,4.4-1.9,4.4-4.4c0-2.5-2.2-4.5-4.8-4.5c-2.5,0-4.3,1.9-4.3,4.4C626.7,1178.2,628.7,1180.1,631.4,1180 M657,1144.5
	c-8.5,4.4-17,8.7-25.4,13.1c-5.1,2.6-5.6,4-3.8,10.3c1.3-1.1,2.3-2.2,3.6-3c3.1-2.1,6-4.5,9.4-6.1c19.3-8.9,38.6-17.5,58-26.3
	c1.1-0.5,2.1-1,3.1-1.5c2.2-1.1,3.7-2.6,3.8-5.3c0-1.4,0.2-1.4,2.7-2.5c-1.6,10.2-3.3,20.4-4.6,30.7c-1.4,10.2-5.3,20-5.3,30.9
	c4.3-1.4,6.9-3.9,7-7.8c0.2-12,4.2-23.3,5.6-35c0.6-5.2,1.6-10.3,2.5-15.4c0.3-1.5,0.7-2.9,1.9-4.4c0.9,1.8,1.8,3.6,2.7,5.5
	c4.5-3.3,4.6-6.7,0.4-10.6c1.3-0.7,2.4-1.3,4.4-2.3h-4.8c-0.6-1.1-1.1-2.1-1.6-3c-0.4-0.1-0.7-0.3-0.9-0.3c-1.9,0.2-3.7,0.4-5.6,0.7
	c-1.9,0.3-3.3,1.3-3.5,3.3c-0.3,3.5-2.6,5.2-5.5,6.7C686.2,1129.4,671.6,1136.9,657,1144.5 M652.8,1070c-2.5,4.9-5.4,9.5-8,14.3
	c-1.1,2.1-2.3,4.4-2.7,6.7c-1.1,5.9,1.2,10.9,6.7,13.1c7.6,3.1,15.3,6.3,23.2,8.2c7.3,1.8,13.9-1.5,19.2-6.7c1-0.9,1.6-2.4,2-3.8
	c0.4-1.5-0.2-2.5-2.5-2.1c0.3,1.3,0.6,2.4,1,3.9c-1.5-0.8-2.6-1.4-3.8-2.1c-1,0.8-1.8,1.5-2.7,2.2c-4.9,3.9-10.4,5.1-16.3,3.4
	c-5.7-1.6-11.3-3.6-16.7-5.9c-5.7-2.4-6.8-5.4-4.5-11c2.2-5.3,4.6-10.6,7.1-15.8c3.4-7.1,4.4-14.6,3.8-22.3
	c-0.1-1.4-0.8-2.8-1.3-4.2c-0.3,0-0.6,0.1-0.9,0.1c-0.1,0.7-0.3,1.5-0.1,2.2C657.5,1057.3,655.9,1063.8,652.8,1070 M653.9,1038.8
	c-2.4-11.2-6-22-9.7-32.7C646.5,1017.3,649.5,1028.3,653.9,1038.8"/>
<path class="st0" d="M708.7,1014.3h61.5l3-4.2c0,0-65.6,1.4-67.2,0.9L708.7,1014.3z"/>
<path class="st0" d="M770.2,1014.3c0,0-34.1,0.2-38.7,0.9c-4.6,0.7-17.1-0.3-17.1-0.3l-4.9,1.5l7.8,2.5c0,0,41.3-1.1,49.6,0
	L770.2,1014.3z"/>
<path class="st0" d="M1331.2,1198.6c0.4,0,0.7,0,1.1,0c0.1-0.1,0.2-0.2,0.3-0.3"/>
<path class="st0" d="M741.1,1182.3c4.6-0.4,9.6,3.2,14.7,7.3c-2.4-1.7-4.9-3.2-7.6-4.5C746,1184,743.6,1183.1,741.1,1182.3"/>
<path class="st0" d="M764.7,1196.4c1.2,0.8,2.4,1.5,3.6,2.1c-0.4,0-0.7,0-1.1,0c-0.1-0.1-0.2-0.2-0.3-0.3
	C766.2,1197.7,765.4,1197,764.7,1196.4"/>
<path class="st0" d="M804.1,968.1c0,0-6.3,3.8-11.2,11l-17,23l-5.7,7.3l-10.6,15.4l2.3,1.3L804.1,968.1z"/>
<polygon class="st0" points="831,1050.4 832.2,1053.7 864,1053.7 866.8,1052 857.9,1051.1 "/>
<polygon class="st0" points="842.5,972.6 830.5,1007.6 805.9,1007.6 824.2,972.6 "/>
<path class="st0" d="M832.1,1013.2L832.1,1013.2h-41.5c-0.5,0-1-0.3-1.3-0.8c-0.3-0.5-0.2-1,0.1-1.5l28.4-43.4
	c0.3-0.4,0.7-0.7,1.2-0.7l23.7-0.2l4.8-18c0.1-0.2,0.2-0.4,0.3-0.6l16.3-18.7l6-7.6c0.4-0.6,1.2-0.3,1.8,0c0.6,0.3,0.2,1.1,0.1,1.8
	c-3.6,14.3-10.4,43.9-10.4,44.2c0,0.2-0.1,0.3-0.2,0.5l-28,44.3c0,0-0.1,0.1-0.1,0.1c-0.2,0.2-0.4,0.4-0.6,0.5
	c-0.1,0-0.3,0.1-0.4,0.1C832.2,1013.2,832.1,1013.2,832.1,1013.2 M793.3,1010.3h37.7l10.9-40.7l-22.1,0.2L793.3,1010.3z
	 M845.2,968.6l-9.2,34.3l22.7-36c0.6-2.4,7.8-27,11.3-41.4l-7.3,9.2l-12.5,15.1L845.2,968.6C845.2,968.5,845.2,968.6,845.2,968.6"/>
<path class="st0" d="M847.3,958l-1.4-0.4c1.5-5.7,2.4-8.8,7.3-14.5l1.1,1C849.6,949.5,848.8,952.3,847.3,958"/>
<path class="st0" d="M836.6,999.2c1.2,1,1,1.9,3.4,0c0,0-4.2,5.8-4.4,5.9c-0.2,0.1-1.5-0.9-1.3-1.7
	C834.5,1002.7,836.6,999.2,836.6,999.2"/>
<path class="st0" d="M1251.1,1109.5c0,0,5.9,3.7,3.2,9.3l2,1c0,0,1-3.8,1.8-7.1c0.9-3.3-1.7-2.3-1.7-2.3L1251.1,1109.5z"/>
<path class="st0" d="M1191.4,1099.5c0,0.4,0,3,0.1,6.6c0.2,7.6,1,19.8,3.2,26.4c0,0,4.7,8.9,8.9,13c4.2,4,1.9,1.1,4.2,4
	c2.2,2.9-12.2-22.8-12.2-22.8L1191.4,1099.5z"/>
<path class="st0" d="M838.3,1052.6c-1.2,1-5.6,3.1-4.4,8.2l-3-8.9L838.3,1052.6z"/>
<path class="st0" d="M841.6,1095.8c0,0,4.6,4.3,9.5-4.4l-4.8,11.1l-4.8-0.8V1095.8z"/>
<path class="st0" d="M769.1,1233.6c1.1-0.8,1.7-2.5,3-3.5c-2.8-1.7-5.1-3.1-7.5-4.5c-2.2-1.3-4.5-1.7-6.8-0.7
	c-1.6,0.7-2.9,0.4-4.4-0.2c-0.9-0.4-1.8-0.9-2.8-0.9c-3.4-0.2-4.1-2.7-6.2-5c0.8-1.9,0.8-4.9,0.8-6.8c-0.1-0.3-0.2-0.6-0.3-1
	c0.1-1,0.1-1.9,0.1-2.7c0.1-7.2,4.3-10.7,11.5-9.5c4,0.6,7.9,1.3,12.2,1.3c-0.5-0.6-1-1.1-1.5-1.7c0.4,0,0.8,0,1.1,0
	c-1.2-0.6-2.4-1.3-3.6-2.1c-2.9-2.4-5.8-4.7-8.8-6.8c-5.1-4.1-10.1-7.7-14.7-7.3c-0.2-0.1-19.6,2.5-23.3,2.5
	c-3.1-0.6-6.1-11.7-4-18.5c3.4-10.9,6.5-21.8,9.7-32.7c1-2.6,1.9-5.1,2.3-7.8c0.7-2.4,1.3-4.8,1.4-7.2c0.2-4.3-0.2-8.6-0.9-12.8
	c-4.1-22.6-8.3-45.1-12.5-67.7c-0.4-2.3-0.2-5.1-3-6.5c-1.6,1-1.1,2.4-0.8,3.7c4.2,19.6,8.4,39.2,12.6,58.7
	c0.8,3.9,1.9,7.9,2.7,11.8c1,4.3,1.1,8.7,0.5,12.9c-0.2-1-0.4-2-0.8-3c-0.6-2.2-1.2-4.4-1.9-6.6c-0.1-1.8-0.6-4.2-1.5-7.7
	c-0.2,0.1-15.6-58.2-13.5-58.6c-0.1-0.6-1.2-6.8-1-9.2c0.2-2.5-1-4.3-3.3-5.1c-2.1-0.8-4.1-1.6-6.2-2.5c-1.9-0.8-2.2-2.3-1.7-4.2
	c0.8-3.1,2.3-5.7,5.4-7c1.1-0.5,46.7,8.8,51.1,9.3c12.5,1.3,25.5,2,38,2c7.6,0,18.7-0.2,28.4,1.7c0,0,5.7,2.7,8.1,9
	c2.5,2.8,10.8,40.1,11.2,41.6c2.4,9.3,5,18.5,7.6,27.8c0.1,0.5,0.5,0.9,1,1.7c1.3-1.4,2.4-2.6,3.5-3.8
	c11.4-12.6,22.7-25.3,34.1-37.9c1.7-1.8,3.6-3.5,5.6-5c2.2-1.6,4.8-2.1,7.5-2c2.6,0.1,6.2,0.4,10,1.7c1.5,0.5,2.7,1.3,3.5,2.4
	c0.2,0.3,0.4,0.6,0.6,0.9c0.6,1,1,2.2,1.2,3.5c0.6,3.6,0.7,8.7-0.2,14.4c-1.8,11.8-3.6,23.7-5.3,35.5c-1.4,9.6-4.9,18.2-11,25.8
	c-0.9,1.1-1.6,2.2-2.4,3.4c-0.2,0.3-5.5,6.8-8.2,10.9c-2.6,3.8-6,6.1-11.1,4.7c-1.4-0.4-3.3,0.8-5,1.3c1.2,2.2,2.8,3.9,3,5.8
	c0.2,2.1-0.5,4.4-1.3,6.4c-2.7,7.3-5.5,14.6-8.3,21.9c-1.6,4-4.3,7.1-7.6,9.9c-2.7,2.3-6,4-9.2,5.7c-3,1.7-6.3,1.7-9.8,1.1
	c-2.6-0.5-5.4-0.4-8.1-0.5c-0.1,0.3-0.1,0.6-0.2,0.9c0.6,0.3,1.2,0.8,1.9,1c21.8,6.8,43.5,13.9,65.4,20.2
	c6.4,1.8,11.1,4.7,14.6,10.1c2.1,3.1,3.2,6.5,2.2,10.3c-0.8,2.9-1.4,6-2.6,8.8c-1.6,3.8-4.1,4.4-7.2,1.8c-1.5-1.2-2.7-1.4-4.5-1.2
	c-3.4,0.3-5.2-1.1-5.6-4.6c-0.3-2.2-0.1-4.4,0-6.7c0.2-3.6,0.1-4-3.6-4.8c-12.4-2.8-24.7-5.4-37.1-8.1c-9.9-2.2-19.9-4.3-29.8-6.4
	c-0.3-0.1-0.5-0.1-0.8-0.2c-4.5-0.9-5.4-0.4-6.6,3.9c-1.8,6.4-1.9,12.9-1.6,19.5c0.5,9.6,0.8,19.2,1.3,28.8c0,0.7,0.1,1.4,0.2,2.1
	h-2.5c-0.4-9.3-0.8-18.6-1.2-27.9c-0.4-11.4-0.8-22.8-1.1-34.2c0-1.3,0.3-2.7,0.4-4c0.3-0.1,0.6-0.1,1-0.2c0.3,0.9,0.8,1.7,1,2.6
	c0.7,4.3,1.4,5.2,5.5,6.1c12.8,2.8,25.6,5.5,38.4,8.3c11.8,2.5,23.7,5,35.5,7.6c4.4,0.9,4.9,1.6,5.2,6.1c0.2,1.8,0.5,3.6,1.1,5.3
	c0.6,1.7,2.6,2,3.5,0.3c2.2-4.2,4.1-8.6,3.7-13.5c-0.2-2-1.1-3.5-2.8-4.3c-1.4-0.7-2.8-1.2-4.2-1.7c-25.4-8.8-51.2-16.3-77.1-23.2
	c-1.1-0.3-2.2-0.6-3.2-0.9c-2.2-0.7-4-2-4.6-4.4c-0.5-2.4-2-3.1-4.3-3c-1.3,0.1-2.5,0-3.8,0.1c-5.6,0.4-5.8,0.5-7.4,5.9
	c-1,3.4-3.6,5.5-6.4,7.4c-11.4,7.7-22.9,15.4-34.3,23.1c-15.8,10.7-25.8,14.5-41.6,25.2 M908,1263.2c1.2-3.5,1.7-7.2,2.1-10.9
	c-0.3-0.1-0.7-0.1-1-0.2c-0.7,3.6-1.5,7.2-2.2,10.9C907.3,1263.1,907.7,1263.1,908,1263.2 M904,1259c-0.2,1.7-0.3,3.3-0.5,5
	c0.3,0,0.6,0.1,1,0.1c0.2-1.7,0.4-3.4,0.6-5.1C904.7,1259.1,904.4,1259,904,1259 M761.2,1217.6c0.6-2.2-0.8-2.6-2.8-2.9
	c-0.8,2.3-1.5,4.2-2.2,6.2C759.4,1221.1,760.6,1220.2,761.2,1217.6 M717.4,1178.7c0.5,2.6,1.9,3.7,4.8,3.5c4.1-0.3,8.2-1,12.5-1.5
	c-1.9-2.5-13.7-9.2-18.5-10.7C716.7,1173,716.9,1175.8,717.4,1178.7 M722,1169.1c6.8,4.7,14.1,8.4,21.7,11.5
	c13.3,5.3,27.1,8.4,41.2,9.9c11.6,1.3,23.3,2.1,34.9,3.1c3.5,0.3,4.8-0.7,5.3-4.3c0.2-1.1,0.2-2.2,0.4-4c-4.1-0.5-7.9-1.1-11.8-1.5
	c-14.6-1.4-29-3.3-43.3-6.7c-14.5-3.5-28.6-8.2-42-14.9c-0.6-0.3-1.2-0.6-1.9-0.9c-3.1-1.3-5.4-0.6-7,2.3
	C718.6,1165.7,719,1167.1,722,1169.1 M732.7,1132.9c-1.7,7-3.6,14-5.5,21c-1.1,4.2-1,4.5,2.9,6.4c15.6,7.6,32,13,49.1,15.9
	c13.9,2.4,27.8,3.9,41.8,5.9c0.7,0.1,1.4,0.1,2.1,0.2c2.8,0,3.3-0.2,3.9-3.1c1.2-5.7,2.1-11.5,3.2-17.2c3.1-15.5,0.9-30.7-2.6-45.9
	c-5-22.6-9.5-45.2-14.2-67.9c-1.6-7.9-1.6-8-9.7-7.9c-16.9,0.1-33.8,0-50.5-2.1c-9.4-1.1-18.7-2.9-28.1-4.4
	c-1.9-0.3-3.8-0.6-6.6-1.1c1.2,6.3,2.1,11.9,3.3,17.4c3.9,17.7,7.8,35.3,11.8,53C735.8,1113.1,735.1,1123,732.7,1132.9
	 M715.8,1037.6c4.3,23,8.4,46,12.9,68.9c1.9,9.7,1.6,19-1.6,28.4c-2.5,7.1-4.6,14.3-6.9,21.5c-0.4,1.2-0.6,2.5-0.5,4
	c2.3-1.9,4.3-4.1,5-6.8c2.5-9.3,4.9-18.5,6.9-27.9c1.8-8.2,0.7-16.4-1-24.5c-4.6-21.8-9.2-43.5-13.9-65.3c-0.2-0.8-0.4-1.5-0.5-2.2
	c-0.2,0-0.5,0.1-0.7,0.1C715.5,1035,715.5,1036.3,715.8,1037.6 M870.2,1157.8c2.5,0.8,5,1.7,7.6,2.2c2.1,0.4,3.9-0.6,5.1-2.3
	c5.4-7.4,10.9-14.8,15.9-22.5c1.7-2.7,2.2-6.3,2.7-9.5c1.7-9.6,3-19.2,4.8-28.8c1.2-6.6,1.8-13.2,1.9-19.9c0-2.6,0.7-5.2,1.3-7.7
	c0.8-3.1,0-4.9-3.1-5.6c-1.5-0.4-3-0.6-4.4-1.1c-5.1-1.5-9.7-0.6-13.8,2.6c-2.1,1.6-4,3.5-5.8,5.4c-10.8,12.2-21.6,24.4-32.3,36.8
	c-2.6,3-4.8,6.4-7.3,9.8c5.4,4.6,10.6,4.7,15,0.9c1.5-1.3,2.7-2.8,4-4.3c12.1-13.6,24.3-27.3,36.4-40.9c1.2-1.3,2.5-2.6,3.9-3.7
	c1.4-1.1,3-1.9,5.8-1c-1.9,1.2-3.1,2.2-4.5,3c-3.1,1.8-4.8,4.3-5.4,8c-1.4,9.9-3.1,19.8-4.5,29.7c-0.3,2-0.2,4.2-0.1,6.2
	c0.1,4.7-0.8,9.1-4.1,12.8c-6.2,7-12.3,14-18.3,21.2c-1.3,1.5-2,3.6-2.7,5.5C867.9,1156,868.7,1157.3,870.2,1157.8 M854.8,1180.7
	c-3.6-2.3-8.1-3.2-7.8-8.3c-0.7,3.7-1.4,7.3-2.3,11.6C848.4,1182.8,851.3,1181.9,854.8,1180.7 M843.2,1194.1
	c3.8-0.7,6.5-3.2,8.7-8.5C846.1,1184.8,843.3,1187.6,843.2,1194.1 M886.4,1114.7c-6.2-0.7-12.5-1-18.7-1.1c-1.4,0-3.1,1.1-4.3,2.1
	c-2,1.7-3.7,3.8-5.7,5.5c-1.7,1.5-3.8,2.6-6,4c-0.6,11.7-1.3,24.1-2,36.9c0.9-0.7,1.6-1.3,2.2-1.9c12.1-12.4,24.1-24.7,36.2-37.1
	c0.3-0.3,0.6-0.6,0.9-0.9C891.9,1119,890.8,1115.2,886.4,1114.7 M891.2,1108.5c1.5-9,3.1-18,4.6-27.1c0.1-0.3-0.2-0.7-0.3-1.1
	c-2.6,1.3-22.9,24.1-27.3,30.7c6.8,0.2,13,0.3,19.2,0.4C889.5,1111.5,890.9,1110.7,891.2,1108.5 M864.7,1156.5
	c-3.6,4.4-7.2,8.4-10.4,12.6c-1.6,2.1-0.9,4.7-0.2,7.6c2.5-1.2,2.6-3,2.9-4.7C858.2,1166.2,866.5,1158.7,864.7,1156.5 M827.7,1208.2
	c0.4,2.2,2,3.2,4.2,3.3c2.5,0.1,5,0.4,7.5,0.6c1,0.1,1.9-0.1,2.9-0.2c6.3-1.2,11.4-4.3,15.2-9.5c5-6.8,8.2-14.5,10.2-22.7
	c0.2-0.6,0-1.3-0.6-2.2c-1.7,4-3.4,8-5.1,12c-0.4-0.1-0.7-0.3-1.1-0.4c1.6-6.9,4.6-13.5,6.4-20.3c-3.7-2.7-4.9-2.4-6.4,1.5
	c-1.5,4-2.9,8.1-4.4,12.2c-2.2,5.9-5.9,10.7-11.2,14.2c-1.1,0.7-2,1.7-3.6,3c2.1,0.6,3.3,1,4.8,1.4c-1.1,1.7-2.8,1.8-4.3,1.6
	c-1.9-0.3-2.6-2.1-2.7-3.8c-0.1-1.9,0.1-3.9,0.4-5.8c1.6-8.6,3.7-17.2,4.7-25.9c2-17.1,2.2-34.1-2.4-51c-4.1-15-7.5-30.3-11.2-45.4
	c-0.3-1.3-3.6-18.7-4.4-20.1c-0.1,1.3,2.6,18.7,2.4,20.6c-0.7-1-1.1-1.4-1.2-1.9c-2.3-10.6-4.5-21.2-6.7-31.9
	c-0.1-0.4,0.3-0.9,0.4-1.4c0,0,0.1,0,0.1,0c0,0,0,0-0.1,0c1.4-0.9,0.3-1.9-0.4-2.6c-0.6-0.6-1.3-1-2.1-1c-1.5,0.1-17-4.1-23-4.2
	c-14.5-0.3-29-0.5-43.4-2.7c-11.6-1.7-23-4.1-34.5-6.2c-4-0.7-7.9-1.4-11.9-2.1c-1.2-0.2-2.5-0.1-3.8-0.1c-2.6,0.2-4.1,1.5-4.5,3.6
	c-0.4,1.9,0.4,3.3,3.2,4.1c4.8,1.5,9.6,2.8,14.5,3.9c18.9,4.5,38,7.5,57.4,7.9c9.8,0.2,19.5,0.5,29.3,0.8c4.9,0.1,9.8-0.1,14.2-2.5
	c2-1.1,3.4-0.1,4.9,1c0,0,0,0,0,0c0,0,0,0,0,0c-5.9,1-7.4,3.4-6.1,9.6c5.8,27.7,11.5,55.3,17.5,83c2.1,9.9,1.6,19.7,0.2,29.5
	c-2,13.9-4.2,27.8-6.1,41.8C826.7,1202.6,827.3,1205.5,827.7,1208.2 M818.8,1213.2c2.5,0.3,5,0.4,7.1-1.2c-1.5-4.4-3.7-6.2-7.1-5.7
	c-2.2,0.3-3.4,1.5-3.5,3.5C815.3,1211.7,816.3,1212.9,818.8,1213.2 M799.5,1206.3c6.2-0.7,12.4-1.5,18.6-2.3c0.1,0,0.3,0,0.4,0
	c5.5-0.6,6.1-1.5,4.7-7.3c-11-0.9-21.8-1.7-32.7-2.6c-10.7-0.9-21.1-2.9-31.6-5.5c8,6.4,15.5,13.6,25.6,16.8
	C789.5,1206.8,794.5,1206.8,799.5,1206.3 M793,1217.2c1.7-1.4,2.7-3.1,2.2-5.5c-0.5-2.3-2.3-2.5-4.1-2.9
	c-10.8-2.4-21.7-4.8-32.5-7.1c-1.8-0.4-3.6-0.6-5.4-0.6c-2.8,0-4.9,1.7-5.1,4.5c-0.2,4,0,8,0.1,12c0,0.2,0.4,0.3,0.8,0.6
	c2.4-0.9,2.8-3.5,4.6-5.4c-1.3-0.8-2.4-1.5-3.6-2.3c0.3-1.3,1.1-1.8,2.4-1.5c1.3,0.4,2.6,0.8,3.9,1.4c7.5,3,15,5.8,22.4,8.9
	C784,1221.6,788.7,1220.9,793,1217.2"/>
<path class="st0" d="M794.2,1238.5c2.8,4.5,3.8,9,4.1,13.8c0.1,1.9,0,3.9,0.5,5.8c2.5,10.2,2.5,20.7,2.9,31.1h1.7
	c0.2-9,0.6-18-1.5-27c-2-8.6-1.1-17.5-0.6-26.2c0.1-2.2,0-4.3,0-7.5c-1.3,1.5-1.9,2.2-2.4,3c-2.7,3.8-6.5,6.4-10.6,8.7
	c-5.7,3.2-15.5,7.4-21.1,10.8 M798.6,1237.4c0.2-0.1,0.3-0.2,0.5-0.3v4.6c-0.2,0-0.3,0-0.5,0V1237.4z"/>
<path class="st0" d="M801.7,1289.2l-1,8.9c0,0-2.8,7.8,6,7.8c8.9,0,9.1-5,8.6-5.5c-0.4-0.5-1.1-11.3-1.1-11.3h-2.5l1.4,10.9
	c0,0-4.6,6.6-8.5,2.3c0,0-2.2,1.2-1.5-4.8l0.3-8.4H801.7z"/>
<path class="st0" d="M816.3,1310.8c-2.3,0-2.8-5.4-2.9-8.6l-0.9-9.6l0.1-0.2c0.2-0.4,1.4-2.1,2.8-1.9c0.8,0.1,1.4,0.8,1.7,2.1
	c0.1,0.4,1.7,8.9,1.2,13.8c0.1,0.6,0.4,2.6-0.5,3.7C817.4,1310.6,816.9,1310.8,816.3,1310.8 M814.1,1293l0.8,9.1
	c0.1,3.9,0.9,7.1,1.4,7.2c0.2,0,0.3-0.1,0.4-0.1c0.4-0.5,0.3-1.8,0.2-2.6l0-0.1l0-0.1c0.6-4.7-1.1-13.3-1.1-13.4
	c-0.2-0.8-0.4-1-0.5-1C815,1292,814.5,1292.5,814.1,1293"/>
<path class="st0" d="M801.5,1291.3c0,0-3,7.4-2.4,14.7c0,0-0.2,6.3,5.8,5.9c0,0,2.7-0.6,3.1-1.8c0.4-1.3,1.1-0.1,1.7,0
	c0.7,0.1,0.6,2.2,3.7,1.8c3.1-0.4,5.2-1,4.3-5.5c-1-4.5-0.7-11.3-0.7-11.3l-0.4-2.3h-3.1l0.4,3.9l-0.5,3.4c0,0,3.5,2.6,1,2.1
	c-2.5-0.4-5.8,1.5-5.8,1.5l-3.8-1.3l-1.5-0.8c0,0-1-1.3-1-1.9C802.1,1299.3,801.5,1291.3,801.5,1291.3"/>
<path class="st0" d="M790.2,1202.3c3.5,0,3.6-5.5,0-5.5C786.7,1196.7,786.7,1202.3,790.2,1202.3"/>
<path class="st0" d="M1169.9,1107.2H963.6l15.9-54.1H1154L1169.9,1107.2z M966.7,1104.9h200.1l-14.6-49.5h-171L966.7,1104.9z"/>
<path class="st0" d="M1013.6,986.4c-5.5,0-10.9,0.3-16.4-0.1c-2.5-0.2-6.2-1.5-6.8-3.2c-1.3-3.4,3.4-7.9,7.5-8
	c8.6-0.1,17.1,0,25.7,0c2.6,0,5.1,0.1,7.7,0c5.1-0.2,6.1,3,6,7.1c-0.1,4.2-3.2,4.3-6.2,4.3C1025.2,986.5,1019.4,986.4,1013.6,986.4
	L1013.6,986.4z M993.3,981c0.3,0.6,0.6,1.2,0.9,1.8c5,0,10.1,0.1,15.1-0.1c0.9,0,1.8-1.6,2.7-2.5c-0.9-0.7-1.7-1.9-2.7-2
	c-4-0.2-8-0.4-11.9,0C996,978.4,994.7,980,993.3,981 M1025.1,982.9L1025.1,982.9c2-0.1,4,0.1,6-0.2c1-0.2,1.8-1.2,2.8-1.9
	c-0.9-0.9-1.7-2.5-2.6-2.6c-4-0.3-8-0.3-12,0c-1.1,0.1-2.1,1.5-3.1,2.2c1,0.8,1.9,2.1,3,2.3C1021,983.1,1023.1,982.9,1025.1,982.9"
	/>
<path class="st0" d="M1195.8,977.3l-10.3-11.4c-3.8,0-7.5,0-11.3,0c-4.1,0-8.8,4.6-7.5,8c0.7,1.7,4.4,3,6.8,3.2
	c5.4,0.5,10.9,0.1,16.4,0.1v0C1191.9,977.3,1193.8,977.3,1195.8,977.3 M1185.7,969c0.9,0.1,1.8,1.3,2.6,2c-0.1,0.1-0.1,0.1-0.2,0.2
	l-1-1.2H1172c0.6-0.5,1.2-0.8,1.9-0.9C1177.8,968.6,1181.8,968.8,1185.7,969"/>
<rect x="829.6" y="1048.6" class="st0" width="439.1" height="5.5"/>
<polygon class="st0" points="863.9,1195.5 863.3,1193.8 953.7,1162 959.3,1137.9 1066.6,1137.9 1066.6,1139.8 960.8,1139.8 
	955.3,1163.4 954.8,1163.6 "/>
<polygon class="st0" points="1232.5,1184.5 1176,1163.4 1170.6,1139.8 1064.8,1139.8 1064.8,1137.9 1172,1137.9 1177.6,1162 
	1233.2,1182.8 "/>
<path class="st1" d="M1301.2,1231.4l81.3,44.1c0,0,4.9,2.9,8.1-1.1c0,0,2.6-1.3-3.2-5.5l-63.7-40.7"/>
<path class="st0" d="M1374,1271.8c0,0-3.1,11.2,3.4,13.8c6.5,2.6,7.1-6.6,7.1-6.6s-0.1-3.6-1.8-4.4
	C1380.9,1273.9,1374,1271.8,1374,1271.8"/>
<path class="st2" d="M1389.1,1269.8c0,0,2.4,2.2,2.4,9.4c0,7.2-6.9,8.3-6.9,8.3s-5.1,1.4-8.3-1.6c-3.3-3-3.8-4.4-4.1-6.5
	c-0.3-2.1,0.1-8.6,0.1-8.6"/>
<path class="st0" d="M1385.5,1276.1c0,0,1.9,6.2-1.1,8.3c0,0-2,2.1,0.2,1.5c0,0,7.8,1,4.9-11.2L1385.5,1276.1z"/>
<path class="st1" d="M796.6,1235.3l-81.3,44.1c0,0-4.9,2.9-8.1-1.1c0,0-2.6-1.3,3.2-5.5l63.7-40.7"/>
<path class="st0" d="M719.1,1277.4c0,0,2.5,9-2.7,11c-5.2,2.1-5.6-5.2-5.6-5.2s0.1-2.9,1.4-3.5
	C713.5,1279.1,719.1,1277.4,719.1,1277.4"/>
<path class="st2" d="M707,1275.8c0,0-1.9,1.7-1.9,7.5c0,5.8,5.5,6.7,5.5,6.7s4,1.1,6.7-1.3c2.6-2.4,3-3.5,3.2-5.1
	c0.2-1.7-0.1-6.9-0.1-6.9"/>
<path class="st0" d="M709.9,1280.9c0,0-1.5,5,0.9,6.6c0,0,1.6,1.7-0.2,1.2c0,0-5.9-0.2-3.6-9.9L709.9,1280.9z"/>
<rect x="1125.5" y="649.6" class="st0" width="0.9" height="171.7"/>
<rect x="1125.4" y="644.4" class="st0" width="1.8" height="183.7"/>
<polygon class="st0" points="1322.2,540.4 564.8,540.4 564.6,540.3 29.1,113.1 30,112.1 565.3,539 1321.7,539 1953.5,50.5 
	1954.3,51.6 "/>
<polygon class="st0" points="1321.3,526.6 565.7,526.6 565.5,526.5 47.5,78.2 48.4,77.2 566.2,525.3 1320.8,525.3 1952.6,0 
	1953.4,1.1 "/>
<path class="st0" d="M978.8,1059.5c0,0,6.5-5.8,11.3-5.8l-9.8,0.6L978.8,1059.5z"/>
<path class="st0" d="M1155.2,1059.5c0,0-6.5-5.8-11.3-5.8l9.8,0.6L1155.2,1059.5z"/>
<rect x="833.2" y="1075.7" transform="matrix(0.4042 -0.9147 0.9147 0.4042 -473.6316 1426.0743)" class="st0" width="49.2" height="1.8"/>
<path class="st0" d="M1314.2,907.1c-1-1.3-0.9-3.6-0.9-3.6l-1.4-252.6l924.8-445l-1.5-3.2l-913.2,439.4v-90.4l633-456.9l-2.2-3
	l-633.3,457.1H565.7l-0.9-0.7L13.2,145.1l-2.2,3l551.6,403.2V641L-18.9,362.4l-1.5,3.2l593.6,284.5v27l1.1,229.6l-1943.1,426.4
	l0.3,1.2L575.7,907.6h65.9v0.3h161.2v-0.3h284.5h153.9h69.6l1311.7,288.3l0.3-1.2L1314.2,907.1z M1309.1,648.1h-180.9v-2.9
	l186.2,0.2L1309.1,648.1z M566.3,552.6h752v90h-752V552.6z M641.4,906.4H579c-0.8-0.9-1.6-2.8-2-6.5V827h64.5V906.4z M641.4,825.8
	h-64.5V650.9l64.5-0.4V825.8z M576.9,648.1L576.9,648.1l-0.2,0l0.1-0.2l-5.2-2.5l187.3-0.2v2.8l-18.8,0.1h-97.9h0H576.9z
	 M642.2,650.5l91.3-0.5l25.4,0v175.6H642.2V650.5z M801.1,906.4H642.9V827h116v2.1h42.2V906.4z M1085.2,906.4H802.7v-77.3h282.5
	V906.4z M802.7,825.8v-0.2h-41.1V650v-0.7v-0.4v-0.7v-2.8h363.7v3.5v1.1v0.1v1.8v174.5h-38.2v-0.5H802.7z M1087.2,905.5v-76.5h40.9
	v-1.1h113l0,77.6H1087.2z M1241.1,826.5h-113V651.8h113V826.5z M1241.9,826.5V651.8h66.7c0.1,15.7,0.9,107.9,1.3,174.7L1241.9,826.5
	L1241.9,826.5L1241.9,826.5z M1310.2,898.6c0,0.7,0,1.3,0,1.9v5.9h-68.1l-0.2-78.9h68c0.1,14.6,0.2,28,0.2,39V898.6z"/>
</svg>
